<svg id="logo" data-name="Layer 1" xmlns="http://www.w3.org/2000/svg" viewBox="0 0 220.17 43.78"><title>logo</title><path d="M40.59,62.75a1.12,1.12,0,0,1-.74-0.19,0.87,0.87,0,0,1-.22-0.67,6.4,6.4,0,0,1,.1-0.72L40,60q0.58-3.07,1-4.61a11.08,11.08,0,0,0,.38-2,1.07,1.07,0,0,0-.24-0.74,6.67,6.67,0,0,0-1-.79A13.9,13.9,0,0,0,41.79,51a1.91,1.91,0,0,0,.65-0.82,20.16,20.16,0,0,0,.65-2q1.2-4,3.7-12,0-.1.31-0.84A4,4,0,0,1,47.93,34a2,2,0,0,1,1.54-.86,1,1,0,0,1,1,.91,7.82,7.82,0,0,1,.1,1,14.6,14.6,0,0,1-.38,2.64q-0.29,1.1-.77,3.31-0.38,1.54-1,4.18T47.21,49.6a4.33,4.33,0,0,1-.14.65,2,2,0,0,0-.1.6,0.56,0.56,0,0,0,.34.58,4.59,4.59,0,0,0,1.34.19,3.78,3.78,0,0,1,1.25.29L50.45,52a2.52,2.52,0,0,0,.65.1,1.21,1.21,0,0,0,.82-0.29,2.4,2.4,0,0,0,.82-1,15.1,15.1,0,0,0,.53-1.7l0.24-1,1-3.17q0.82-2.64,1.37-4.32a24.38,24.38,0,0,1,1.37-3.31A6.49,6.49,0,0,1,58,36a2.24,2.24,0,0,1,2.16-1,0.73,0.73,0,0,1,.77.82,2.05,2.05,0,0,1-.14.72q-0.62,2.35-1.15,5-0.19.72-.82,3.46t-1.39,5.14a69.53,69.53,0,0,0-2.06,8.3,4.72,4.72,0,0,1-1,2.18,4.37,4.37,0,0,1-2,1.13,3.19,3.19,0,0,1-.91.14,1.1,1.1,0,0,1-1.25-1.25,3,3,0,0,1,0-.58q0.62-3.26,1.1-5.09a4.22,4.22,0,0,0,.1-0.62,0.69,0.69,0,0,0-.86-0.67,6.87,6.87,0,0,1-1.1-.22l-1.06-.26a6.29,6.29,0,0,0-1.2-.14,1,1,0,0,0-.84.36,5.55,5.55,0,0,0-.6,1.51A18.33,18.33,0,0,0,45.2,57q-0.43,1.78-.67,2.54a5.34,5.34,0,0,1-1.25,2.18,3.91,3.91,0,0,1-2.06,1A3.27,3.27,0,0,1,40.59,62.75Z" transform="translate(-39.63 -29.05)"/><path d="M60.49,59.44a3.32,3.32,0,0,1-1.08-2.69,9.78,9.78,0,0,1,.19-1.54,25.37,25.37,0,0,1,1.9-5.66,17.19,17.19,0,0,1,3.38-4.7,19.54,19.54,0,0,1,5.76-3.94,3.81,3.81,0,0,1,1.73-.38,4,4,0,0,1,2.26.53,1.7,1.7,0,0,1,.77,1.49,5.17,5.17,0,0,1-.91,2.59,8.26,8.26,0,0,1-1.78,2.21,31.34,31.34,0,0,1-7.44,5.47,3.08,3.08,0,0,0-.94.72,2.44,2.44,0,0,0-.46,1q-0.1.34-.29,1.15A6.27,6.27,0,0,0,63.39,57,1.62,1.62,0,0,0,64,58.43q0.77,0.34,3.36-1.18a41.84,41.84,0,0,0,5.5-3.91A33.74,33.74,0,0,0,77.31,49l2.16-2.78a3.31,3.31,0,0,1,.62-0.58,0.41,0.41,0,0,1,.67.29,2.31,2.31,0,0,1-.43.91,74,74,0,0,1-5.76,6.53,55.47,55.47,0,0,1-5.66,5.14,10.43,10.43,0,0,1-5.28,1.82A4.75,4.75,0,0,1,60.49,59.44Zm9.26-11A15.46,15.46,0,0,0,73,45a4,4,0,0,0,.91-1.87,1.83,1.83,0,0,0-.24-1.18,0.94,0.94,0,0,0-.82-0.41,2.43,2.43,0,0,0-1.25.53,16.58,16.58,0,0,0-6.58,9.41A47.77,47.77,0,0,0,69.75,48.4Z" transform="translate(-39.63 -29.05)"/><path d="M73.76,59A19.72,19.72,0,0,1,77.6,47.68a9.41,9.41,0,0,1,3.58-2.74,10.09,10.09,0,0,1,4.3-1.25l0.53,0a3.42,3.42,0,0,1,2.74,2.11,12.41,12.41,0,0,1,.62,1.44,7.49,7.49,0,0,0,.82-0.86,5.88,5.88,0,0,1,1.49-1.3,2.22,2.22,0,0,1,1-.24,0.7,0.7,0,0,1,.77.82,2.64,2.64,0,0,1-.1.53,75.94,75.94,0,0,0-1.78,8.35,21.7,21.7,0,0,0-.34,3.5,8.78,8.78,0,0,0,0,1.1q0.29,0.24.86-.24a27.63,27.63,0,0,0,2.38-2.62q1.8-2.14,6-7.32l2.16-2.78a3.31,3.31,0,0,1,.62-0.58,0.41,0.41,0,0,1,.67.29,2.3,2.3,0,0,1-.43.91l-2.06,2.69q-4.08,5.38-6.67,8.57a16.74,16.74,0,0,1-3.55,3.67,6.69,6.69,0,0,1-1.3.14q-2.74,0-2.74-3.12,0-1.2.14-3.22l-1.39,1.49q-2.21,2.45-2.78,3.12a6.61,6.61,0,0,1-2.4,1.87,6.76,6.76,0,0,1-2.88.67,4.55,4.55,0,0,1-2.5-.67A3.55,3.55,0,0,1,73.76,59Zm13.78-6.53a4.42,4.42,0,0,0,1-2.3,1.25,1.25,0,0,0,0-.38l-0.29-1.15q0-.14-0.26-1.08a4.48,4.48,0,0,0-.7-1.61,1.85,1.85,0,0,0-1.63-1.15,3.83,3.83,0,0,0-2,.82,7.72,7.72,0,0,0-2.4,2.64,43.17,43.17,0,0,0-3.12,7.39,11.33,11.33,0,0,0-.53,3.31q0,2,.86,2a2.9,2.9,0,0,0,1.49-.72A34.24,34.24,0,0,0,87.53,52.43Z" transform="translate(-39.63 -29.05)"/><path d="M108,57q2.71-3.48,5.06-7.13,0.24-.38.38-0.58a2.11,2.11,0,0,0,.19-0.29l2.16-2.78a3.31,3.31,0,0,1,.62-0.58,0.41,0.41,0,0,1,.67.29,2.3,2.3,0,0,1-.43.91q-1,1.3-2.09,3t-1.46,2.28Q111.34,55.07,110,57a26.61,26.61,0,0,1-3.17,3.67,7.18,7.18,0,0,1-2.14,1.58,5.13,5.13,0,0,1-2.18.53,3.47,3.47,0,0,1-2.33-.84A3.57,3.57,0,0,1,99,59.53q-0.1-1-.1-1.44a13.43,13.43,0,0,1,.53-3.65l0.29-1.06q1.68-6.14,3-9.84,0.24-.53,1.68-4.37,1.25-3.5,1.63-4.32,1-2.35,2.83-2.35a1.11,1.11,0,0,1,1.2,1.3,17.17,17.17,0,0,1-.82,3.29q-0.82,2.66-1,3.24l-0.38,1.25-1.2,4.13q-0.48,1.58-1.25,4.22T104,54.4a19.27,19.27,0,0,0-1.15,5.09,1.72,1.72,0,0,0,.62,1.58Q105.29,60.49,108,57Z" transform="translate(-39.63 -29.05)"/><path d="M130.2,46a2.3,2.3,0,0,1-.43.91q-1,1.3-2.09,3t-1.46,2.28q-1.78,2.93-3.12,4.82a26.64,26.64,0,0,1-3.17,3.67,7.18,7.18,0,0,1-2.14,1.58,5.13,5.13,0,0,1-2.18.53,3.47,3.47,0,0,1-2.33-.84,3.57,3.57,0,0,1-1.18-2.38q-0.1-1-.1-1.44a13.43,13.43,0,0,1,.53-3.65l0.29-1.06q1.68-6.14,3-9.84,0.48-1.05,1.34-3.6L118,37.69q-0.48,0-1.49,0-0.82-.1-0.77-0.29t1-.29h1.49a19.3,19.3,0,0,1,.86-2.21q1-2.35,2.83-2.35a1.11,1.11,0,0,1,1.2,1.3,4.22,4.22,0,0,1-.14,1,20.11,20.11,0,0,1-.67,2.3q0.58,0,1.49,0t0.86,0.34a0.56,0.56,0,0,1-.5.22l-0.55,0h-1.49l-1.2,3.84-1.2,4.13q-0.48,1.58-1.25,4.22t-1.34,4.46A19.25,19.25,0,0,0,116,59.49a1.72,1.72,0,0,0,.62,1.58q1.78-.58,4.49-4t5.06-7.15q0.24-.38.38-0.58a2.15,2.15,0,0,0,.19-0.29l2.16-2.78a3.28,3.28,0,0,1,.62-0.58A0.41,0.41,0,0,1,130.2,46Z" transform="translate(-39.63 -29.05)"/><path d="M136.68,64.67a2.18,2.18,0,0,1-.58-1.78,26.5,26.5,0,0,1,1.39-7.25L138.08,54q0.14-.43.77-2.16t1.25-3.22q0.62-1.49,1.25-2.69l0.1-.19q0.14-.38.43-1.06a3,3,0,0,0,.29-1.1,0.8,0.8,0,0,0-.48-0.77,0.85,0.85,0,0,0-.38-0.1q-0.82,0-2.45,1.54a53.14,53.14,0,0,0-6.41,7.32,30,30,0,0,0-4.06,7.8,11.69,11.69,0,0,1-1.06,2.26,3,3,0,0,1-1.92,1.34,6.26,6.26,0,0,1-.72.1,0.74,0.74,0,0,1-.86-0.82,4.24,4.24,0,0,1,.1-0.62q0.77-3.17,2-7.87l3.94-13.49A28.39,28.39,0,0,1,131.93,35a6.11,6.11,0,0,1,.77-1.2,2.06,2.06,0,0,1,1.73-.91,1.7,1.7,0,0,1,.48,0,0.88,0.88,0,0,1,.82,1l0,0.38a7.67,7.67,0,0,1-.43,1.92q-1.54,5.76-3.17,11.52,0,0.24-.26.91a2.48,2.48,0,0,0-.12,1.2h0.19a0.76,0.76,0,0,0,.67-0.36,3.57,3.57,0,0,1,.38-0.5q1.82-2,3.55-4a11.72,11.72,0,0,1,5-3.22,5.43,5.43,0,0,1,1.34-.24,2.1,2.1,0,0,1,1.51.53,2,2,0,0,1,.55,1.54,4.37,4.37,0,0,1-.14,1.06A88.13,88.13,0,0,1,142,53.82a39.87,39.87,0,0,0-1.32,4.37,17.71,17.71,0,0,0-.65,3.74,0.67,0.67,0,0,0,.24.67q2.11-.77,6.67-7.06T151.71,49s0.75-1,2.16-2.78a3.3,3.3,0,0,1,.62-0.58,0.41,0.41,0,0,1,.67.29,2.3,2.3,0,0,1-.43.91q-2,2.59-4.13,5.66-5.52,7.63-8.26,10.75a5.85,5.85,0,0,1-3.94,1.82A2,2,0,0,1,136.68,64.67Z" transform="translate(-39.63 -29.05)"/><path d="M165.34,72.83a2.65,2.65,0,0,1-2.26-1.1,2.74,2.74,0,0,1-.58-1.68,5.2,5.2,0,0,1,1.06-2.74,20.21,20.21,0,0,1,2.57-3.07,36.55,36.55,0,0,1,3.48-3q0.24-.19.55-0.41l0.7-.46a5.81,5.81,0,0,0,2.5-2.33,8.14,8.14,0,0,0,.86-3.53l-0.82.86-0.84.94q-0.51.55-.79,0.94a8.37,8.37,0,0,1-2.38,2,11.13,11.13,0,0,1-3,1.13,5.94,5.94,0,0,1-1.25.14,2.79,2.79,0,0,1-1.94-.67,2.15,2.15,0,0,1-.7-1.78,32.92,32.92,0,0,1,1-6.84,21.57,21.57,0,0,1,2.74-6.22,1.71,1.71,0,0,1,.24-0.38,2.18,2.18,0,0,1,1.82-1.39,1,1,0,0,1,1.2,1.1,2.59,2.59,0,0,1-.14.82,56.62,56.62,0,0,0-1.25,5.9l-0.43,2.35a13.75,13.75,0,0,0-.43,3.07,4.34,4.34,0,0,0,0,.77q0.15,0.91.58,0.91a1.87,1.87,0,0,0,1.1-.62A29.61,29.61,0,0,0,174.08,52q1.49-2.26,2.35-3.77a20,20,0,0,0,1.44-3.1,7.46,7.46,0,0,1,.72-1.25,1.29,1.29,0,0,1,.58-0.53,2.8,2.8,0,0,1,.82-0.19,0.89,0.89,0,0,1,1,1q-0.24,1.3-1,4.75-0.86,3.84-1.1,5.28a8.73,8.73,0,0,0,3-1.85A26.42,26.42,0,0,0,185,49s0.75-1,2.16-2.78a3.33,3.33,0,0,1,.62-0.58,0.41,0.41,0,0,1,.67.29,2.3,2.3,0,0,1-.43.91l-1.1,1.49a51.31,51.31,0,0,1-3.53,4.42,17.76,17.76,0,0,1-3.72,3.12,9.33,9.33,0,0,0-1.58,1.3,3.06,3.06,0,0,0-.72,1.44,21.83,21.83,0,0,1-1.27,3.86q-0.84,1.95-2.18,4.49a11.34,11.34,0,0,1-6.58,5.47A6.4,6.4,0,0,1,165.34,72.83Zm1.3-1.54a2.77,2.77,0,0,0,1.51-.48,4,4,0,0,0,1.27-1.39,20.91,20.91,0,0,0,1.39-3q0.58-1.54,1.3-3.84L173,60a38.39,38.39,0,0,0-4.22,2.93,17.12,17.12,0,0,0-3.07,3.22A9.1,9.1,0,0,0,164.52,68a2.6,2.6,0,0,0-.19,1.06,2.21,2.21,0,0,0,.43,1.32,2.27,2.27,0,0,0,1.2.84A1.88,1.88,0,0,0,166.63,71.29Z" transform="translate(-39.63 -29.05)"/><path d="M183.22,59.44a3.32,3.32,0,0,1-1.08-2.69,9.74,9.74,0,0,1,.19-1.54,25.36,25.36,0,0,1,1.9-5.66,17.2,17.2,0,0,1,3.38-4.7,19.54,19.54,0,0,1,5.76-3.94,3.8,3.8,0,0,1,1.73-.38,4,4,0,0,1,2.26.53,1.7,1.7,0,0,1,.77,1.49,5.17,5.17,0,0,1-.91,2.59,8.26,8.26,0,0,1-1.78,2.21A31.35,31.35,0,0,1,188,52.81a3.08,3.08,0,0,0-.94.72,2.43,2.43,0,0,0-.46,1q-0.1.34-.29,1.15a6.3,6.3,0,0,0-.19,1.39,1.63,1.63,0,0,0,.58,1.39q0.77,0.34,3.36-1.18a41.8,41.8,0,0,0,5.5-3.91A33.81,33.81,0,0,0,200,49l2.16-2.78a3.27,3.27,0,0,1,.62-0.58,0.41,0.41,0,0,1,.53,0,0.42,0.42,0,0,1,.14.29,2.31,2.31,0,0,1-.43.91,73.91,73.91,0,0,1-5.76,6.53,55.52,55.52,0,0,1-5.66,5.14,10.43,10.43,0,0,1-5.28,1.82A4.75,4.75,0,0,1,183.22,59.44Zm9.26-11A15.48,15.48,0,0,0,195.77,45a4,4,0,0,0,.91-1.87,1.83,1.83,0,0,0-.24-1.18,0.94,0.94,0,0,0-.82-0.41,2.43,2.43,0,0,0-1.25.53,16.58,16.58,0,0,0-6.58,9.41A47.75,47.75,0,0,0,192.48,48.4Z" transform="translate(-39.63 -29.05)"/><path d="M196.49,59a19.72,19.72,0,0,1,3.84-11.28,9.41,9.41,0,0,1,3.58-2.74,10.09,10.09,0,0,1,4.3-1.25l0.53,0a3.42,3.42,0,0,1,2.74,2.11,12.41,12.41,0,0,1,.62,1.44,7.53,7.53,0,0,0,.82-0.86,5.88,5.88,0,0,1,1.49-1.3,2.23,2.23,0,0,1,1-.24,0.7,0.7,0,0,1,.77.82,2.67,2.67,0,0,1-.1.53,75.85,75.85,0,0,0-1.78,8.35,21.64,21.64,0,0,0-.34,3.5,8.78,8.78,0,0,0,0,1.1q0.29,0.24.86-.24a27.63,27.63,0,0,0,2.38-2.62q1.8-2.14,6-7.32s0.75-1,2.16-2.78a3.33,3.33,0,0,1,.62-0.58,0.41,0.41,0,0,1,.67.29,2.3,2.3,0,0,1-.43.91l-2.06,2.69q-4.08,5.38-6.67,8.57A16.73,16.73,0,0,1,214,61.79a6.69,6.69,0,0,1-1.3.14q-2.74,0-2.74-3.12,0-1.2.14-3.22l-1.39,1.49q-2.21,2.45-2.78,3.12a6.61,6.61,0,0,1-2.4,1.87,6.76,6.76,0,0,1-2.88.67,4.55,4.55,0,0,1-2.5-.67A3.55,3.55,0,0,1,196.49,59Zm13.78-6.53a4.42,4.42,0,0,0,1-2.3,1.27,1.27,0,0,0,0-.38l-0.29-1.15q0-.14-0.26-1.08a4.47,4.47,0,0,0-.7-1.61,1.85,1.85,0,0,0-1.63-1.15,3.83,3.83,0,0,0-2,.82,7.73,7.73,0,0,0-2.4,2.64,43.25,43.25,0,0,0-3.12,7.39,11.34,11.34,0,0,0-.53,3.31q0,2,.86,2a2.9,2.9,0,0,0,1.49-.72A34.22,34.22,0,0,0,210.27,52.43Z" transform="translate(-39.63 -29.05)"/><path d="M233.16,64.67a2.18,2.18,0,0,1-.58-1.78A26.5,26.5,0,0,1,234,55.65L234.55,54q0.14-.43.77-2.16t1.25-3.22q0.62-1.49,1.25-2.69l0.1-.19q0.15-.38.43-1.06a3,3,0,0,0,.29-1.1,0.8,0.8,0,0,0-.48-0.77,0.85,0.85,0,0,0-.38-0.1q-0.82,0-2.45,1.54a53.17,53.17,0,0,0-6.41,7.32,30.06,30.06,0,0,0-4.06,7.8,11.66,11.66,0,0,1-1.06,2.26,3,3,0,0,1-1.92,1.34,6.26,6.26,0,0,1-.72.1,0.74,0.74,0,0,1-.86-0.82,4.29,4.29,0,0,1,.1-0.62q0.77-3.17,2-7.87l3.94-13.49A28.42,28.42,0,0,1,228.41,35a6.14,6.14,0,0,1,.77-1.2,2.06,2.06,0,0,1,1.73-.91,1.7,1.7,0,0,1,.48,0,0.88,0.88,0,0,1,.82,1l0,0.38a7.65,7.65,0,0,1-.43,1.92q-1.54,5.76-3.17,11.52,0,0.24-.26.91a2.47,2.47,0,0,0-.12,1.2h0.19a0.76,0.76,0,0,0,.67-0.36,3.52,3.52,0,0,1,.38-0.5q1.82-2,3.55-4a11.73,11.73,0,0,1,5-3.22,5.42,5.42,0,0,1,1.34-.24,2.1,2.1,0,0,1,1.51.53,2,2,0,0,1,.55,1.54,4.39,4.39,0,0,1-.14,1.06,88,88,0,0,1-2.74,9.22,39.89,39.89,0,0,0-1.32,4.37,17.66,17.66,0,0,0-.65,3.74,0.66,0.66,0,0,0,.24.67q2.11-.77,6.67-7.06T248.19,49l2.16-2.78a3.3,3.3,0,0,1,.62-0.58,0.41,0.41,0,0,1,.67.29,2.31,2.31,0,0,1-.43.91q-2,2.59-4.13,5.66-5.52,7.63-8.26,10.75a5.85,5.85,0,0,1-3.94,1.82A2,2,0,0,1,233.16,64.67Z" transform="translate(-39.63 -29.05)"/><path d="M248.38,61.6a4.13,4.13,0,0,1,1-2.64,2.68,2.68,0,0,1,2.06-1.2,1.35,1.35,0,0,1,1,.38,1.56,1.56,0,0,1,.36,1.1,3.44,3.44,0,0,1-1,2.42,2.94,2.94,0,0,1-2.21,1A1,1,0,0,1,248.38,61.6ZM252,52.29a1,1,0,0,1-1-1.15l0-.53a3,3,0,0,1,.14-1q0.72-2.54,1.49-6.1,1-3.94,1.58-6.24a39.74,39.74,0,0,1,1.63-4.75A11.81,11.81,0,0,1,257,30.11a2.18,2.18,0,0,1,1.87-1.06,0.81,0.81,0,0,1,.77.34,2,2,0,0,1,.19,1,39.93,39.93,0,0,1-1.63,10.56,17.27,17.27,0,0,1-.65,2.4q-0.46,1.34-1,2.64-1,2.59-1.44,4.13a3,3,0,0,1-2.21,2.06A3.46,3.46,0,0,1,252,52.29Z" transform="translate(-39.63 -29.05)"/></svg>
