<svg id="6dd6c519-50c9-4ed5-9f3d-a820a943ec66" data-name="Layer 1" xmlns="http://www.w3.org/2000/svg" viewBox="0 0 72.21 61.2"><title>logo-2</title><path d="M16.05,39.2a0.7,0.7,0,0,1-.46-0.12,0.54,0.54,0,0,1-.13-0.42,3.94,3.94,0,0,1,.06-0.45l0.15-.72q0.36-1.92.63-2.88a7,7,0,0,0,.24-1.23,0.67,0.67,0,0,0-.15-0.47,4.14,4.14,0,0,0-.63-0.49,8.64,8.64,0,0,0,1-.59,1.19,1.19,0,0,0,.41-0.51,12.59,12.59,0,0,0,.4-1.27q0.75-2.49,2.31-7.47s0.08-.21.2-0.52a2.46,2.46,0,0,1,.52-0.85,1.26,1.26,0,0,1,1-.54,0.6,0.6,0,0,1,.6.57,5,5,0,0,1,.06.6A9.15,9.15,0,0,1,22,23.48q-0.18.69-.48,2.07L20.9,28.16q-0.41,1.65-.71,2.82a2.7,2.7,0,0,1-.09.41,1.26,1.26,0,0,0-.06.38,0.35,0.35,0,0,0,.21.36,2.85,2.85,0,0,0,.84.12,2.35,2.35,0,0,1,.78.18l0.34,0.09a1.59,1.59,0,0,0,.41.06,0.76,0.76,0,0,0,.51-0.18,1.5,1.5,0,0,0,.51-0.65A9.52,9.52,0,0,0,24,30.68l0.15-.63,0.63-2q0.51-1.65.85-2.7a15.29,15.29,0,0,1,.85-2.07,4,4,0,0,1,.45-0.84,1.4,1.4,0,0,1,1.35-.6,0.46,0.46,0,0,1,.48.51,1.29,1.29,0,0,1-.09.45q-0.39,1.47-.72,3.12-0.12.45-.51,2.16t-0.87,3.21a43.48,43.48,0,0,0-1.29,5.19,3,3,0,0,1-.65,1.37,2.74,2.74,0,0,1-1.28.71,2,2,0,0,1-.57.09A0.69,0.69,0,0,1,22,37.88a1.87,1.87,0,0,1,0-.36q0.39-2,.69-3.18A2.63,2.63,0,0,0,22.77,34a0.43,0.43,0,0,0-.54-0.42,4.28,4.28,0,0,1-.69-0.14l-0.66-.17a4,4,0,0,0-.75-0.09,0.61,0.61,0,0,0-.52.23,3.48,3.48,0,0,0-.37.94,11.48,11.48,0,0,0-.3,1.29q-0.27,1.11-.42,1.59a3.34,3.34,0,0,1-.78,1.36,2.44,2.44,0,0,1-1.29.62A2.05,2.05,0,0,1,16.05,39.2Z" transform="translate(-15.45 -20.3)"/><path d="M28.49,37.13a2.08,2.08,0,0,1-.67-1.68,6.12,6.12,0,0,1,.12-1A15.84,15.84,0,0,1,29.12,31,10.73,10.73,0,0,1,31.23,28a12.21,12.21,0,0,1,3.6-2.46,2.38,2.38,0,0,1,1.08-.24,2.49,2.49,0,0,1,1.41.33,1.07,1.07,0,0,1,.48.93,3.23,3.23,0,0,1-.57,1.62,5.18,5.18,0,0,1-1.11,1.38A19.61,19.61,0,0,1,31.47,33a1.91,1.91,0,0,0-.58.45,1.53,1.53,0,0,0-.29.6q-0.06.21-.18,0.72a3.92,3.92,0,0,0-.12.87,1,1,0,0,0,.36.87q0.48,0.21,2.1-.73a26.18,26.18,0,0,0,3.43-2.44A21.11,21.11,0,0,0,39,30.62l1.35-1.74a2.07,2.07,0,0,1,.39-0.36,0.26,0.26,0,0,1,.33,0,0.26,0.26,0,0,1,.09.18,1.44,1.44,0,0,1-.27.57,46.18,46.18,0,0,1-3.6,4.08,34.66,34.66,0,0,1-3.54,3.21,6.52,6.52,0,0,1-3.3,1.14A3,3,0,0,1,28.49,37.13Zm5.79-6.9a9.66,9.66,0,0,0,2.06-2.13,2.5,2.5,0,0,0,.57-1.17,1.14,1.14,0,0,0-.15-0.73,0.59,0.59,0,0,0-.51-0.25,1.52,1.52,0,0,0-.78.33,10.36,10.36,0,0,0-4.11,5.88A29.79,29.79,0,0,0,34.28,30.23Z" transform="translate(-15.45 -20.3)"/><path d="M36.78,36.83a12.33,12.33,0,0,1,2.4-7,5.88,5.88,0,0,1,2.23-1.71,6.3,6.3,0,0,1,2.69-.78l0.33,0a2.14,2.14,0,0,1,1.71,1.32,7.8,7.8,0,0,1,.39.9A4.67,4.67,0,0,0,47,29,3.65,3.65,0,0,1,48,28.19,1.39,1.39,0,0,1,48.6,28a0.44,0.44,0,0,1,.48.51,1.65,1.65,0,0,1-.06.33,47.36,47.36,0,0,0-1.11,5.22,13.56,13.56,0,0,0-.21,2.19,5.51,5.51,0,0,0,0,.69q0.18,0.15.54-.15a17.23,17.23,0,0,0,1.48-1.63q1.13-1.33,3.73-4.58l1.35-1.74a2.07,2.07,0,0,1,.39-0.36,0.26,0.26,0,0,1,.42.18,1.44,1.44,0,0,1-.27.57L54.09,31q-2.55,3.36-4.17,5.35A10.46,10.46,0,0,1,47.7,38.6a4.17,4.17,0,0,1-.81.09q-1.71,0-1.71-2,0-.75.09-2l-0.87.93q-1.38,1.53-1.74,2a4.13,4.13,0,0,1-1.5,1.17,4.22,4.22,0,0,1-1.8.42,2.84,2.84,0,0,1-1.56-.42A2.22,2.22,0,0,1,36.78,36.83Zm8.61-4.08a2.76,2.76,0,0,0,.6-1.44,0.8,0.8,0,0,0,0-.24l-0.18-.72q0-.09-0.17-0.67a2.79,2.79,0,0,0-.43-1,1.16,1.16,0,0,0-1-.72,2.39,2.39,0,0,0-1.23.51,4.83,4.83,0,0,0-1.5,1.65,27,27,0,0,0-2,4.62,7.09,7.09,0,0,0-.33,2.07q0,1.26.54,1.26a1.81,1.81,0,0,0,.93-0.45A21.41,21.41,0,0,0,45.39,32.75Z" transform="translate(-15.45 -20.3)"/><path d="M58.19,35.62q1.69-2.17,3.17-4.46,0.15-.24.24-0.36l0.12-.18,1.35-1.74a2.07,2.07,0,0,1,.39-0.36,0.26,0.26,0,0,1,.42.18,1.44,1.44,0,0,1-.27.57q-0.63.81-1.3,1.88l-0.92,1.43q-1.11,1.83-2,3a16.68,16.68,0,0,1-2,2.3,4.49,4.49,0,0,1-1.33,1,3.21,3.21,0,0,1-1.37.33,2.17,2.17,0,0,1-1.45-.52,2.23,2.23,0,0,1-.74-1.48q-0.06-.6-0.06-0.9A8.39,8.39,0,0,1,52.83,34L53,33.35q1.05-3.84,1.86-6.15,0.15-.33,1.05-2.73,0.78-2.19,1-2.7a1.94,1.94,0,0,1,1.77-1.47,0.69,0.69,0,0,1,.75.81A10.77,10.77,0,0,1,59,23.17q-0.51,1.67-.63,2L58.08,26l-0.75,2.58q-0.3,1-.78,2.64T55.71,34A12,12,0,0,0,55,37.16a1.08,1.08,0,0,0,.39,1A7.27,7.27,0,0,0,58.19,35.62Z" transform="translate(-15.45 -20.3)"/><path d="M72.06,28.7a1.45,1.45,0,0,1-.27.57q-0.63.81-1.3,1.88l-0.92,1.43q-1.11,1.83-2,3a16.67,16.67,0,0,1-2,2.3,4.51,4.51,0,0,1-1.33,1,3.21,3.21,0,0,1-1.37.33,2.17,2.17,0,0,1-1.46-.52,2.23,2.23,0,0,1-.74-1.48q-0.06-.6-0.06-0.9A8.39,8.39,0,0,1,61,34l0.18-.66q1.05-3.84,1.86-6.15,0.3-.66.84-2.25l0.54-1.41c-0.2,0-.51,0-0.93,0S63,23.41,63,23.33a0.61,0.61,0,0,1,.63-0.18h0.93a12.24,12.24,0,0,1,.54-1.38A1.94,1.94,0,0,1,66.9,20.3a0.69,0.69,0,0,1,.75.81,2.67,2.67,0,0,1-.09.63,12.68,12.68,0,0,1-.42,1.44c0.24,0,.55,0,0.93,0s0.56,0.07.54,0.21a0.35,0.35,0,0,1-.32.13l-0.34,0H67L66.27,26l-0.75,2.58q-0.3,1-.78,2.64T63.9,34a12,12,0,0,0-.72,3.18,1.08,1.08,0,0,0,.39,1,7.28,7.28,0,0,0,2.8-2.52q1.69-2.16,3.17-4.47,0.15-.24.24-0.36l0.12-.18,1.35-1.74a2.07,2.07,0,0,1,.39-0.36A0.26,0.26,0,0,1,72.06,28.7Z" transform="translate(-15.45 -20.3)"/><path d="M76.11,40.4a1.36,1.36,0,0,1-.36-1.11,16.53,16.53,0,0,1,.87-4.53L77,33.71q0.09-.27.48-1.35t0.78-2q0.39-.93.78-1.68l0.06-.12c0.06-.16.15-0.38,0.27-0.66a1.86,1.86,0,0,0,.18-0.69,0.5,0.5,0,0,0-.3-0.48A0.54,0.54,0,0,0,79,26.66a2.88,2.88,0,0,0-1.53,1,33.27,33.27,0,0,0-4,4.58,18.75,18.75,0,0,0-2.54,4.88,7.31,7.31,0,0,1-.66,1.41,1.9,1.9,0,0,1-1.2.84l-0.45.06a0.46,0.46,0,0,1-.54-0.51,2.61,2.61,0,0,1,.06-0.39q0.48-2,1.23-4.92l2.46-8.43a17.75,17.75,0,0,1,1.32-3.3,3.84,3.84,0,0,1,.48-0.75,1.29,1.29,0,0,1,1.08-.57,1.07,1.07,0,0,1,.3,0,0.55,0.55,0,0,1,.51.6l0,0.24a4.81,4.81,0,0,1-.27,1.2q-1,3.6-2,7.2,0,0.15-.17.57a1.55,1.55,0,0,0-.08.75h0.12a0.48,0.48,0,0,0,.42-0.23,2.16,2.16,0,0,1,.24-0.31Q74.91,29.3,76,28.07a7.33,7.33,0,0,1,3.12-2A3.39,3.39,0,0,1,80,25.91a1.31,1.31,0,0,1,.95.33,1.27,1.27,0,0,1,.34,1,2.76,2.76,0,0,1-.09.66,55.2,55.2,0,0,1-1.71,5.76,24.8,24.8,0,0,0-.83,2.73,11,11,0,0,0-.41,2.34,0.42,0.42,0,0,0,.15.42q1.32-.48,4.17-4.41t3-4.08l1.35-1.74a2.07,2.07,0,0,1,.39-0.36,0.26,0.26,0,0,1,.33,0,0.26,0.26,0,0,1,.09.18,1.43,1.43,0,0,1-.27.57q-1.23,1.62-2.58,3.54-3.45,4.77-5.16,6.72a3.66,3.66,0,0,1-2.46,1.14A1.27,1.27,0,0,1,76.11,40.4Z" transform="translate(-15.45 -20.3)"/><path d="M21.83,81.5a1.66,1.66,0,0,1-1.41-.69,1.72,1.72,0,0,1-.36-1.05,3.25,3.25,0,0,1,.66-1.71,12.62,12.62,0,0,1,1.6-1.92,22.89,22.89,0,0,1,2.17-1.86L24.84,74l0.44-.29a3.63,3.63,0,0,0,1.56-1.46,5.08,5.08,0,0,0,.54-2.21l-0.51.54-0.52.58c-0.21.23-.37,0.42-0.5,0.58a5.25,5.25,0,0,1-1.48,1.28,7,7,0,0,1-1.85.7,3.7,3.7,0,0,1-.78.09,1.74,1.74,0,0,1-1.22-.42,1.34,1.34,0,0,1-.44-1.11,20.53,20.53,0,0,1,.6-4.28,13.48,13.48,0,0,1,1.71-3.88,1.09,1.09,0,0,1,.15-0.24,1.36,1.36,0,0,1,1.14-.87,0.64,0.64,0,0,1,.75.69,1.61,1.61,0,0,1-.09.51,35.48,35.48,0,0,0-.78,3.69L23.3,69.41A8.61,8.61,0,0,0,23,71.33a2.73,2.73,0,0,0,0,.48q0.09,0.57.36,0.57A1.17,1.17,0,0,0,24.11,72a18.51,18.51,0,0,0,3.18-3.51q0.93-1.41,1.47-2.36a12.58,12.58,0,0,0,.9-1.93,4.64,4.64,0,0,1,.45-0.78,0.8,0.8,0,0,1,.36-0.33A1.73,1.73,0,0,1,31,63a0.56,0.56,0,0,1,.63.63q-0.15.81-.63,3-0.54,2.4-.69,3.3a5.46,5.46,0,0,0,1.85-1.16,16.56,16.56,0,0,0,2-2.08l1.35-1.74a2.1,2.1,0,0,1,.39-0.36,0.26,0.26,0,0,1,.42.18,1.44,1.44,0,0,1-.27.57l-0.69.93A32,32,0,0,1,33.09,69a11.08,11.08,0,0,1-2.33,2,5.82,5.82,0,0,0-1,.81,1.91,1.91,0,0,0-.45.9A13.67,13.67,0,0,1,28.53,75q-0.53,1.21-1.37,2.8a7.09,7.09,0,0,1-4.11,3.42A4,4,0,0,1,21.83,81.5Zm0.81-1a1.73,1.73,0,0,0,.94-0.3,2.5,2.5,0,0,0,.79-0.87,13,13,0,0,0,.87-1.86q0.36-1,.81-2.4l0.54-1.62A23.9,23.9,0,0,0,24,75.32a10.69,10.69,0,0,0-1.92,2,5.73,5.73,0,0,0-.72,1.14,1.63,1.63,0,0,0-.12.66,1.38,1.38,0,0,0,.27.83,1.42,1.42,0,0,0,.75.53A1.17,1.17,0,0,0,22.64,80.54Z" transform="translate(-15.45 -20.3)"/><path d="M33,73.13a2.07,2.07,0,0,1-.67-1.68,6.14,6.14,0,0,1,.12-1A15.84,15.84,0,0,1,33.63,67,10.73,10.73,0,0,1,35.75,64a12.22,12.22,0,0,1,3.6-2.46,2.38,2.38,0,0,1,1.08-.24,2.49,2.49,0,0,1,1.41.33,1.07,1.07,0,0,1,.48.93,3.23,3.23,0,0,1-.57,1.62,5.18,5.18,0,0,1-1.11,1.38A19.61,19.61,0,0,1,36,69a1.9,1.9,0,0,0-.58.45,1.52,1.52,0,0,0-.29.6c0,0.14-.1.38-0.18,0.72a3.93,3.93,0,0,0-.12.87,1,1,0,0,0,.36.87q0.48,0.21,2.1-.73a26.28,26.28,0,0,0,3.43-2.45,21.14,21.14,0,0,0,2.81-2.7l1.35-1.74a2.09,2.09,0,0,1,.39-0.36,0.26,0.26,0,0,1,.33,0,0.26,0.26,0,0,1,.09.18,1.44,1.44,0,0,1-.27.57,46.26,46.26,0,0,1-3.6,4.08,34.66,34.66,0,0,1-3.54,3.21A6.52,6.52,0,0,1,35,73.7,3,3,0,0,1,33,73.13Zm5.79-6.9a9.69,9.69,0,0,0,2.06-2.13,2.5,2.5,0,0,0,.57-1.17,1.14,1.14,0,0,0-.15-0.73,0.59,0.59,0,0,0-.51-0.25,1.52,1.52,0,0,0-.78.33,10.37,10.37,0,0,0-4.11,5.88A29.88,29.88,0,0,0,38.79,66.23Z" transform="translate(-15.45 -20.3)"/><path d="M41.3,72.83a12.33,12.33,0,0,1,2.4-7,5.87,5.87,0,0,1,2.23-1.71,6.29,6.29,0,0,1,2.69-.78l0.33,0a2.14,2.14,0,0,1,1.71,1.32,7.86,7.86,0,0,1,.39.9A4.71,4.71,0,0,0,51.56,65a3.65,3.65,0,0,1,.93-0.81A1.38,1.38,0,0,1,53.12,64a0.44,0.44,0,0,1,.48.51,1.64,1.64,0,0,1-.06.33,47.27,47.27,0,0,0-1.11,5.22,13.61,13.61,0,0,0-.21,2.19,5.4,5.4,0,0,0,0,.69q0.18,0.15.54-.15a17.32,17.32,0,0,0,1.48-1.63Q55.4,69.86,58,66.62l1.35-1.74a2.09,2.09,0,0,1,.39-0.36,0.26,0.26,0,0,1,.33,0,0.26,0.26,0,0,1,.09.18,1.43,1.43,0,0,1-.27.57L58.61,67q-2.55,3.36-4.17,5.36a10.49,10.49,0,0,1-2.22,2.29,4.2,4.2,0,0,1-.81.09q-1.71,0-1.71-2,0-.75.09-2l-0.87.93q-1.38,1.53-1.74,2a4.13,4.13,0,0,1-1.5,1.17,4.22,4.22,0,0,1-1.8.42,2.84,2.84,0,0,1-1.56-.42A2.22,2.22,0,0,1,41.3,72.83Zm8.61-4.08a2.76,2.76,0,0,0,.6-1.44,0.79,0.79,0,0,0,0-.24l-0.18-.72c0-.06-0.07-0.29-0.17-0.68a2.79,2.79,0,0,0-.43-1,1.16,1.16,0,0,0-1-.72,2.39,2.39,0,0,0-1.23.51,4.82,4.82,0,0,0-1.5,1.65,26.94,26.94,0,0,0-2,4.62,7.09,7.09,0,0,0-.33,2.07q0,1.26.54,1.26a1.81,1.81,0,0,0,.93-0.45A21.4,21.4,0,0,0,49.91,68.75Z" transform="translate(-15.45 -20.3)"/><path d="M64.22,76.4a1.36,1.36,0,0,1-.36-1.11,16.53,16.53,0,0,1,.87-4.53l0.36-1q0.09-.27.48-1.35t0.78-2q0.39-.93.78-1.68l0.06-.12c0.06-.16.15-0.38,0.27-0.66a1.86,1.86,0,0,0,.18-0.69,0.5,0.5,0,0,0-.3-0.48,0.54,0.54,0,0,0-.24-0.06,2.88,2.88,0,0,0-1.53,1,33.27,33.27,0,0,0-4,4.58A18.74,18.74,0,0,0,59,73.07a7.3,7.3,0,0,1-.66,1.41,1.9,1.9,0,0,1-1.2.84l-0.45.06a0.46,0.46,0,0,1-.54-0.51,2.61,2.61,0,0,1,.06-0.39q0.48-2,1.23-4.92l2.46-8.43a17.75,17.75,0,0,1,1.32-3.3,3.84,3.84,0,0,1,.48-0.75,1.29,1.29,0,0,1,1.08-.57,1.07,1.07,0,0,1,.3,0,0.55,0.55,0,0,1,.51.6l0,0.24a4.82,4.82,0,0,1-.27,1.2q-1,3.6-2,7.2,0,0.15-.17.57a1.55,1.55,0,0,0-.08.75h0.12a0.48,0.48,0,0,0,.42-0.23,2.15,2.15,0,0,1,.24-0.31Q63,65.3,64.1,64.07a7.33,7.33,0,0,1,3.12-2,3.39,3.39,0,0,1,.84-0.15,1.31,1.31,0,0,1,.95.33,1.27,1.27,0,0,1,.34,1,2.76,2.76,0,0,1-.09.66,55.2,55.2,0,0,1-1.71,5.76,24.82,24.82,0,0,0-.83,2.73,11,11,0,0,0-.41,2.34,0.42,0.42,0,0,0,.15.42q1.32-.48,4.17-4.41t3-4.08L75,64.88a2.08,2.08,0,0,1,.39-0.36,0.26,0.26,0,0,1,.33,0,0.26,0.26,0,0,1,.09.18,1.43,1.43,0,0,1-.27.57q-1.23,1.62-2.58,3.54-3.45,4.77-5.16,6.72a3.66,3.66,0,0,1-2.46,1.14A1.27,1.27,0,0,1,64.22,76.4Z" transform="translate(-15.45 -20.3)"/><path d="M73.73,74.48a2.58,2.58,0,0,1,.6-1.65,1.68,1.68,0,0,1,1.29-.75,0.84,0.84,0,0,1,.64.24,1,1,0,0,1,.23.69,2.15,2.15,0,0,1-.6,1.52,1.84,1.84,0,0,1-1.38.64A0.65,0.65,0,0,1,73.73,74.48ZM76,68.66a0.62,0.62,0,0,1-.63-0.72l0-.33a1.88,1.88,0,0,1,.09-0.6q0.45-1.59.93-3.81,0.6-2.46,1-3.9a24.88,24.88,0,0,1,1-3,7.44,7.44,0,0,1,.72-1.53,1.37,1.37,0,0,1,1.17-.66,0.51,0.51,0,0,1,.48.21,1.23,1.23,0,0,1,.12.6,24.9,24.9,0,0,1-1,6.6,10.75,10.75,0,0,1-.4,1.5q-0.29.84-.62,1.65-0.63,1.62-.9,2.58a1.85,1.85,0,0,1-1.38,1.29A2.17,2.17,0,0,1,76,68.66Z" transform="translate(-15.45 -20.3)"/></svg>