<svg xmlns="http://www.w3.org/2000/svg" width="32" height="32" enable-background="new 0 0 32 32" viewBox="0 0 32 32">
  <g stroke="#FFF" stroke-width="2" stroke-miterlimit="10" stroke-linecap="round" stroke-linejoin="round">
    <path d="M649 137.999h26v18h-14M653 155.999h-4v-14M661 156l-8 6v-6"/>
  </g>
  <path fill="#4b7f52" d="M29.7 2.767c-.107-.45-.511-.767-.972-.767h-.006c-5.267.033-18.075.916-23.246 8.38-2.686 3.878-2.917 8.913-.687 14.965.017.047.052.079.075.122-.797 1.973-1.106 3.286-1.114 3.323-.116.54.229 1.072.769 1.188.07.015.14.022.21.022.461 0 .876-.321.977-.79.021-.102 2.569-10.373 11.577-16.378.46-.306.584-.927.277-1.387s-.927-.585-1.387-.277c-5.108 3.405-8.254 8.008-10.104 11.656-1.324-4.578-.977-8.377 1.052-11.305 3.993-5.764 13.464-7.154 19.181-7.448-1.23 1.801-2.574 5.103-2.574 10.929 0 3.12-.885 5.522-2.629 7.14-2.796 2.591-7.338 2.834-10.66 2.584-.552-.045-1.031.371-1.073.922-.042.55.371 1.03.921 1.072.665.051 1.375.082 2.113.082 3.382 0 7.327-.663 10.058-3.194 2.17-2.011 3.27-4.906 3.27-8.605 0-9.099 3.43-11.096 3.447-11.105.416-.209.634-.677.525-1.129z"/>
</svg>
