<svg id="danger" data-name="Layer_1" xmlns="http://www.w3.org/2000/svg" viewBox="0 0 19 19">
  <path fill="#60695c" d="M134.85,202.85l4.08-3.63a0.5,0.5,0,1,0-.66-0.75l-4.17,3.71-4.17-3.71a0.5,0.5,0,1,0-.66.75l4.08,3.63-4.08,3.63a0.5,0.5,0,0,0,.66.75l4.17-3.71,4.17,3.71a0.5,0.5,0,1,0,.66-0.75Z" transform="translate(-124.6 -193.35)"/>
  <path fill="#60695c" d="M140.82,196.13a9.5,9.5,0,1,0,2.78,6.72A9.44,9.44,0,0,0,140.82,196.13Zm-6.72,15.22a8.5,8.5,0,1,1,8.5-8.5A8.51,8.51,0,0,1,134.1,211.35Z" transform="translate(-124.6 -193.35)"/>
</svg>
