<svg id="list" data-name="Layer_1" xmlns="http://www.w3.org/2000/svg" viewBox="0 0 20 20"><defs><style>.cls-1{fill:#010101;}</style></defs><title>list</title><path class="cls-1" d="M317.66,258a0.5,0.5,0,0,0-.38-0.18h-0.51c-5,0-9,0-12,.7a8.74,8.74,0,0,0-3.72,1.74,6.69,6.69,0,0,0-2.09,3.43,8.46,8.46,0,0,0,.14,4.44,6,6,0,0,0,.91,1.8,13.72,13.72,0,0,0-2.27,7.4,0.5,0.5,0,0,0,1,0,14,14,0,0,1,4.35-9.65,16,16,0,0,1,3.82-2.85,7.69,7.69,0,0,1,3.33-1,0.5,0.5,0,0,0,0-1,8.53,8.53,0,0,0-3.79,1.12,17,17,0,0,0-4.06,3,17.93,17.93,0,0,0-1.77,2.07,5,5,0,0,1-.56-1.21,7.51,7.51,0,0,1-.13-3.87c1.43-5.12,6.86-5.14,16.72-5.14-1.17,6.29-3.37,10.36-6.52,12.1a8.1,8.1,0,0,1-6.93.28,5.37,5.37,0,0,1-.7-0.35,0.5,0.5,0,0,0-.51.86,6.34,6.34,0,0,0,.83.42,9.92,9.92,0,0,0,2.86.69c0.27,0,.55,0,0.81,0a8.39,8.39,0,0,0,4.11-1.05,11.13,11.13,0,0,0,4.14-4.3,27.77,27.77,0,0,0,3-9.09,0.5,0.5,0,0,0-.11-0.41h0Z" transform="translate(-297.78 -257.81)"/></svg>
