<svg version="1.1" id="logo" xmlns="http://www.w3.org/2000/svg" xmlns:xlink="http://www.w3.org/1999/xlink" x="0px" y="0px"
	 viewBox="0 0 200 180" style="enable-background:new 0 0 200 180;" xml:space="preserve">
<g>
	<path d="M23.8,60.7c0-0.4-0.1-0.8-0.1-0.9c0-0.2,0-0.4,0-0.8c0-0.3,0.1-0.4,0.2-0.4c0.1,0,0.4-0.2,0.7-0.4
		c-0.1-0.1-0.2-0.2-0.2-0.3c0-0.1-0.1-0.2-0.2-0.4c-0.1,0.1-0.2,0.1-0.2,0.2c0,0-0.1,0.1-0.3,0.2c0-0.2,0-0.4,0-0.5
		c0-0.1,0-0.3,0-0.5c0.1-0.2,0.1-0.4,0.2-0.4c0.1-0.1,0.1-0.2,0.2-0.4c0-0.1,0-0.2,0-0.5c0-0.2,0.1-0.6,0.2-1.1
		c0.1-0.4,0.1-0.8,0.1-1c0-0.2,0-0.4,0-0.4l0.1-0.4c0-0.3,0-0.5,0-0.5c0,0-0.1-0.1-0.2-0.3c-0.1-0.2-0.1-0.3-0.1-0.2
		c0.1,0.1,0.1,0,0.1-0.3l0-0.1l-0.1,0l0-0.2c-0.1-0.2-0.1-0.4-0.1-0.8s0.1-0.7,0.2-1.1c0.1-0.4,0.2-0.7,0.3-1.1
		c0.1-0.4,0.2-0.6,0.2-0.9l0.2-0.7l0-0.5l0-0.1c0,0,0-0.1,0-0.1l0-0.1l0-0.4c0,0-0.1-0.1-0.1-0.2L25.1,45c0.2-0.1,0.3-0.2,0.4-0.2
		c0.1-0.1,0.2-0.2,0.3-0.3l0.2-0.2c0,0,0.1-0.1,0.3-0.2c0.2-0.1,0.3-0.1,0.4-0.1l0.8,0c0.4,0.1,0.8,0.3,1.2,0.7
		c0.2,0.3,0.4,0.7,0.6,1.2c0.2,0.5,0.3,1,0.5,1.5c0.1,0.5,0.3,1.1,0.3,1.6c0.1,0.5,0.1,0.9,0.2,1.2l0.1,2.2c0,0.4,0,0.6,0.1,0.8
		c0,0.2,0,0.4,0,0.8l0,0.9c0,0.3,0.1,0.4,0.1,0.4c0,0,0.1,0.1,0.1,0.3l0.1,5.2c0,0.2,0,0.3,0,0.4c0,0,0,0.2,0,0.4l0.2,0.4
		c0.1,0.2,0.1,0.4,0,0.4c-0.1,0,0,0.2,0.1,0.6c0.1,0.3,0.2,0.5,0.2,0.6c0,0.1,0,0.2,0,0.3c0,0.1,0,0.2,0,0.5c0,0.2,0.1,0.6,0.2,1.1
		c0.3-0.2,0.5-0.5,0.6-0.8c0.2-0.3,0.3-0.6,0.5-0.9l0.9-1.6c0.2-0.3,0.5-0.6,0.8-1c0.3-0.4,0.7-0.8,1-1.1c0.3-0.4,0.7-0.7,1-1.1
		c0.3-0.3,0.5-0.6,0.6-0.8c0.1-0.3,0.2-0.6,0.2-0.9c0-0.3,0-0.7,0-1c0-0.3-0.1-0.6-0.1-1c0-0.3,0-0.7,0-1c0.1-0.4,0.1-0.7,0.1-1.2
		c0-0.4,0-0.9,0.1-1.3c0-0.3,0-0.5,0-0.8c0-0.3-0.1-0.6-0.1-0.8c0-0.1,0-0.1,0-0.2c0,0,0-0.1,0-0.1c0,0,0-0.1,0-0.1l0.1-1.2
		c0.2-0.7,0.2-1.3,0.2-2c0-0.7,0-1.3,0.2-1.9c0-0.1,0.1-0.3,0.1-0.4c0-0.1,0-0.2,0.1-0.4c0-0.2,0-0.3,0-0.4c0-0.1,0-0.2,0-0.4
		l0.1-0.3c0-0.2,0-0.3,0-0.2c0,0.1,0,0,0-0.2c0.4-0.1,0.6-0.1,0.7-0.1c0.1,0.1,0.2,0.1,0.5,0.1c0-0.2,0-0.3,0-0.4c0-0.1,0-0.2,0-0.4
		l1.8-0.4c0.2,0,0.3,0,0.4,0c0.1,0,0.1,0,0.1,0c0,0,0,0,0.1,0c0,0,0.1,0.1,0.3,0.2c0.4,0.1,0.6,0.3,0.7,0.4c0.1,0.1,0.2,0.4,0.4,0.8
		c0.2,0.3,0.3,0.4,0.3,0.4c0-0.1,0.1,0,0.2,0.4c0.1,0.3,0.1,0.6,0,0.8c-0.1,0.2-0.2,0.5-0.2,0.8L43,45.7l-0.1,0.4l-0.2,0.4
		c-0.2,0.9-0.3,1.7-0.2,2.5c0.1,0.8,0.2,1.6,0.3,2.5l0.1,1c0,0.3,0.1,0.4,0.1,0.4s0.1,0.1,0.1,0.3l0.1,0.9c0,0.2,0,0.4,0.1,0.4
		c0,0.1,0.1,0.2,0,0.5l0.1,1.8c0,0.3,0,0.6,0.1,0.8c0,0.2,0.1,0.4,0,0.8c-0.1,0.4-0.1,0.7,0,0.9c0,0.2,0.1,0.5,0.1,0.9
		c0,0.3,0,0.6,0,0.8c0,0.2,0,0.5,0.1,0.9l0.4,5.3c0.1,0.5,0.2,1,0.2,1.7c0,0.7,0,1.3,0.1,1.7c0,0.3,0.1,0.6,0.1,1
		c0,0.3,0.1,0.6,0.1,0.8c0.1,0.2,0.1,0.3,0.1,0.4c0,0.1,0.1,0.2,0.1,0.6l1.5,7.1c0.2,0.5,0.3,0.9,0.5,1.3c0.2,0.4,0.3,0.8,0.5,1.2
		c0.3,0.7,0.6,1.5,1,2.2c0.3,0.7,0.7,1.4,1.2,2l1.5,1.5l0.1,0l1,0.9c0.2,0.1,0.5,0.3,0.7,0.4c0.2,0.1,0.4,0.3,0.6,0.5l-0.1,0
		c-0.3,0.2-0.5,0.4-0.6,0.5c-0.1,0.1-0.2,0.2-0.2,0.3c0,0.1-0.1,0.1-0.2,0.2s-0.2,0.2-0.4,0.4l-0.2,0.2c-0.2,0.1-0.3,0.2-0.3,0.2
		c0,0-0.1,0.1-0.3,0.1c-0.3,0.1-0.7,0.2-1.1,0.4c-0.4,0.1-0.8,0.2-1.3,0.3l-0.2,0l-0.1,0c-0.7,0.1-1.2,0-1.5-0.1
		c-0.3-0.1-0.7-0.3-1.3-0.5c-0.3-0.1-0.4-0.1-0.3-0.1c0,0,0,0-0.2-0.2l-0.9-0.8L43.5,91c-0.2-0.3-0.4-0.6-0.6-0.8
		c-0.2-0.2-0.4-0.5-0.6-0.8l-0.9-1.9c-0.1-0.4-0.3-0.7-0.4-0.9c-0.1-0.2-0.2-0.4-0.3-0.6s-0.2-0.3-0.2-0.5c-0.1-0.2-0.1-0.4-0.2-0.7
		c-0.1-0.3-0.1-0.5-0.2-0.6C40,84,40,83.9,39.9,83.7c-0.1-0.1-0.1-0.3-0.2-0.5c-0.1-0.2-0.2-0.5-0.2-1c-0.1-0.7-0.3-1.3-0.6-2
		c-0.3-0.6-0.4-1.3-0.4-2c0-0.6-0.1-1.3-0.3-1.9c-0.2-0.7-0.3-1.3-0.3-2l0-0.4l-0.2-0.6c-0.1-0.1-0.1-0.2-0.1-0.3c0-0.1,0-0.3,0-0.6
		c0-0.3,0-0.7-0.1-1c-0.1-0.3-0.1-0.7,0-1c0-0.2,0-0.6-0.1-1.4c-0.1-0.8-0.1-1.5-0.1-2.2c0-0.3,0-0.4,0.1-0.4c0,0,0-0.1,0-0.3
		c-0.1-0.4-0.2-0.8-0.2-1C37,65,37,64.6,37,64.1l0-1.2c0-0.3,0-0.7-0.1-1c-0.1-0.3-0.3-0.3-0.6,0.1c-0.1,0.1-0.2,0.2-0.2,0.3
		c0,0.1-0.1,0.2-0.1,0.3c-0.4,0.7-0.9,1.4-1.3,2.1c-0.5,0.7-0.8,1.4-1,2.3c-0.1,0.5-0.2,0.9-0.3,1.1c-0.1,0.2-0.1,0.5-0.2,0.7
		c-0.1,0.2-0.1,0.4-0.1,0.7c0,0.3,0,0.7-0.1,1.3c-0.1,0.8-0.1,1.6,0,2.2c0,0.7,0.2,1.4,0.4,2.3c0.1,0.3,0.1,0.6,0.1,0.8
		c0,0.2,0,0.4,0,0.7c0.1,0.6,0.1,1.1,0.2,1.6c0.1,0.5,0.2,1,0.4,1.6c0.1,0.4,0.2,0.7,0.2,0.9c0,0.2,0,0.4,0.1,0.5
		c0,0.2,0.1,0.3,0.2,0.6c0.1,0.2,0.2,0.6,0.4,1.1c0,0-0.1,0-0.1,0.1s0,0-0.1,0.1c0,0-0.1,0.1-0.1,0.1l-0.1,0.2
		c-0.1,0.1-0.1,0.2-0.1,0.2c0,0-0.1,0.1-0.3,0.2c-0.2-0.4-0.5-0.6-0.8-0.4c-0.3,0.2-0.5,0.4-0.6,0.8c0,0.2,0,0.3,0,0.3
		s0.1,0,0.1,0.1c-0.7,0-1.1,0.2-1.5,0.5c-0.3,0.3-0.7,0.5-1,0.5c0,0-0.1,0-0.2,0l-0.1,0c-0.6,0-1-0.3-1.2-0.7
		c-0.2-0.4-0.4-0.8-0.8-1.2c-0.3-0.4-0.5-0.8-0.7-1.2c-0.2-0.4-0.3-0.8-0.5-1.2c-0.2-0.3-0.3-0.6-0.4-0.8c-0.1-0.2-0.2-0.5-0.3-0.9
		l-0.2-0.9l0-0.4l0.3-0.2c-0.2-0.2-0.3-0.2-0.4-0.2c0,0-0.1,0-0.1-0.1c-0.1-0.4-0.2-0.6-0.2-0.8c0-0.1,0-0.3,0-0.3
		c0-0.1,0-0.2,0.1-0.3c0-0.1,0-0.3,0-0.6l-0.3-1.4l0-0.1l-0.2-0.3c0-0.2,0-0.3,0-0.4s0-0.2,0-0.2c0-0.1,0-0.1,0-0.2
		c0-0.1,0-0.3-0.1-0.6c-0.3,0.2-0.4,0.2-0.3,0.2c0.1,0,0.1-0.1,0-0.1c0-0.2,0-0.4,0-0.7c0-0.3-0.1-0.7-0.1-1c-0.1-0.4-0.1-0.7-0.2-1
		c-0.1-0.3-0.1-0.6-0.2-0.8c0.2,0,0.3,0.1,0.3,0s0,0,0,0s0,0,0,0c0,0,0.1,0,0.3,0c-0.1-0.3-0.1-0.6-0.1-0.7s0-0.3,0-0.6
		c-0.1-0.1-0.1-0.2-0.1-0.2c0,0,0,0-0.1-0.1c0.1-0.4,0.1-0.6,0.1-0.7c0-0.1-0.1-0.3-0.2-0.7c-0.1-0.6-0.1-0.9,0-1
		c0.1-0.1,0-0.2-0.4-0.3l-0.1-0.2c0.3-0.1,0.4-0.2,0.4-0.1c-0.1,0,0-0.1,0.1-0.3l-0.4,0.1c-0.1-0.4-0.2-0.7-0.1-1
		c0-0.2,0.1-0.4,0.1-0.5c0.1-0.1,0.1-0.2,0.2-0.3s0.1-0.2,0.2-0.4c-0.1,0-0.2-0.1-0.1-0.1c0.1,0,0,0-0.1,0.1c0,0-0.1,0-0.1,0.1
		s-0.1,0.1-0.1,0.1c-0.1-0.3-0.1-0.6-0.1-0.8S23.8,61.1,23.8,60.7z M23.9,60c0.1,0.1,0.2,0.2,0.1,0.2c0,0,0,0.1,0.1,0.3l0.2-0.6
		L23.9,60z M24.7,59.3c-0.4-0.3-0.6-0.3-0.6,0c0,0.3,0.1,0.4,0.4,0.3c0-0.2,0-0.2-0.1-0.2C24.4,59.5,24.5,59.4,24.7,59.3z
		 M26.2,72.2L26,72.3l-0.1,0.1c-0.1,0.2-0.1,0.4,0,0.5s0.3,0.1,0.5,0.1L26.2,72.2z M26.2,75.2c0.2-0.1,0.3-0.3,0.3-0.3
		c0-0.1,0-0.1-0.1-0.2c0,0-0.1-0.1,0-0.1c0,0,0.2-0.1,0.4-0.2c-0.1-0.2-0.1-0.3-0.1-0.3c0,0-0.1-0.1-0.2-0.2
		c-0.2,0.2-0.3,0.4-0.3,0.5C26.1,74.7,26.2,74.9,26.2,75.2z M38.7,75.9c-0.3,0.1-0.4,0.2-0.4,0.2c0,0,0.1,0.3,0.3,0.6
		c0.2-0.1,0.4-0.2,0.4-0.3C39.1,76.4,39,76.2,38.7,75.9z"/>
	<path d="M64.1,63.2c0,0.2,0,0.3-0.2,0.4c-0.2,0.1-0.3,0.3-0.3,0.5c-0.1,0.5-0.4,1-0.9,1.5c-0.5,0.5-0.9,1-1.2,1.4
		c-0.2,0.3-0.3,0.5-0.5,0.7c-0.1,0.2-0.3,0.5-0.5,0.7l-0.4,0.5c-0.1,0.1-0.1,0.3-0.1,0.3c0,0.1,0,0.2-0.1,0.3
		c-0.1,0.2-0.2,0.4-0.4,0.5c-0.1,0.1-0.3,0.3-0.4,0.5c-0.1,0.2-0.1,0.2-0.1,0.2c0-0.1,0,0,0.1,0.4C59.1,71,59,71.1,59,71.1
		s-0.1,0.1-0.1,0.3c-0.1,0.1-0.1,0.3-0.3,0.5c-0.1,0.2-0.3,0.5-0.6,0.8c-0.3,0.4-0.5,0.7-0.6,0.9c-0.1,0.2-0.1,0.5,0.3,1
		c0.3,0.5,0.6,0.9,0.9,1.2c0.3,0.4,0.6,0.7,1.1,0.9c0.5,0.3,1,0.3,1.6,0.1c0.6-0.2,1.2-0.4,1.7-0.7c0.3-0.2,0.5-0.3,0.6-0.3
		c0.1-0.1,0.3-0.2,0.5-0.3c0.8-0.5,1.4-1,1.9-1.4c0.5-0.4,0.9-0.9,1.3-1.3c0.4-0.5,0.7-1,1.1-1.6c0.4-0.6,0.8-1.3,1.3-2.1l0.1-0.2
		l0-0.1l3.1-5.4l0.3-0.4c0.1-0.4,0.3-0.7,0.5-1c0.2-0.3,0.3-0.6,0.5-0.9l1.7-2.7c0.2-0.2,0.3-0.3,0.3-0.4c0.1-0.1,0.2-0.2,0.4-0.3
		c0.2,0.3,0.2,0.4,0.3,0.4c0,0,0,0.1-0.1,0.5l-1.4,3.9l0,0.1c0,0,0,0.1,0,0.1l-0.4,1c-0.3,0.5-0.5,1-0.7,1.5
		c-0.2,0.4-0.4,0.9-0.7,1.4l-0.7,1.4l-0.2,0.4l-0.2,0.4c-0.1,0.2-0.2,0.4-0.1,0.4c0,0-0.1,0.1-0.4,0.2c0,0.3,0,0.6-0.1,0.7
		s-0.2,0.4-0.4,0.6l-2.2,3.4c-0.2,0.2-0.3,0.4-0.4,0.5c-0.1,0.2-0.3,0.3-0.4,0.6c-0.2,0.2-0.3,0.4-0.5,0.5c-0.2,0.1-0.3,0.3-0.5,0.4
		c-0.2,0.2-0.6,0.5-1.1,1c-0.5,0.4-0.9,0.7-1.2,0.8l0.1,0.3l0.8-0.5c-0.1,0.2-0.2,0.4-0.4,0.5S65,78,64.6,78.1
		c-0.3,0.1-0.5,0.2-0.7,0.3c-0.1,0.1-0.3,0.2-0.6,0.3c-0.5,0.3-0.9,0.4-1.2,0.6s-0.7,0.2-1,0.4c-0.3,0.1-0.6,0.2-0.9,0.3
		s-0.7,0.2-1,0.3c-0.7,0.2-1.6,0.3-2.6,0.3c-1,0-1.9-0.2-2.5-0.5c-0.6-0.3-1.2-0.6-1.6-1c-0.5-0.4-1-0.8-1.5-1.2l-0.7-0.7
		c-0.1-0.2-0.2-0.3-0.4-0.5c-0.1-0.2-0.2-0.4-0.4-0.5c-0.3-0.3-0.5-0.5-0.6-0.7c-0.1-0.2-0.2-0.5-0.3-0.8c-0.2-0.6-0.4-1.1-0.5-1.6
		c-0.1-0.5-0.2-1-0.3-1.5c-0.1-0.2-0.1-0.3-0.2-0.3c0,0-0.1-0.2-0.2-0.4c0-0.1,0-0.2,0.1-0.3c0.1-0.1,0.1-0.3,0.1-0.5l-0.1-0.7
		c0-0.9,0.1-1.5,0.3-2c0.2-0.4,0.4-1,0.6-1.7l1.6-3.5c0.4-0.8,0.9-1.5,1.4-2.1c0.5-0.6,1.1-1.2,1.8-1.7c0.2-0.2,0.5-0.4,0.9-0.7
		c0.4-0.3,0.9-0.6,1.3-0.8c0.4-0.3,0.9-0.5,1.3-0.8c0.4-0.2,0.8-0.3,1-0.4c0.4-0.1,0.7-0.1,0.7-0.2c0-0.1,0.3-0.1,0.7-0.2
		c0.4-0.1,1-0.2,1.7-0.2c0.7,0,1.3,0.2,1.6,0.5l1.1,1.2c0.1,0.2,0.3,0.4,0.4,0.7c0.2,0.3,0.3,0.6,0.3,0.8c0,0.1,0.1,0.3,0.1,0.6
		c0,0.3,0.1,0.6,0.1,0.8c0,0.3,0,0.6,0,0.8c0,0.3,0,0.4,0,0.5c-0.2,0.3-0.4,0.6-0.6,1c-0.2,0.3-0.3,0.7-0.2,1
		C64,63.3,64.1,63.3,64.1,63.2z M57.3,70.1c0.2-0.3,0.3-0.5,0.4-0.7c0.1-0.1,0.2-0.3,0.4-0.6l0.9-1.2c0.1-0.2,0.3-0.4,0.4-0.6
		c0.2-0.1,0.3-0.3,0.4-0.6c0.2-0.3,0.3-0.6,0.5-0.7c0.1-0.2,0.2-0.3,0.3-0.4c0.1-0.1,0.1-0.2,0.2-0.3c0.1-0.1,0.1-0.2,0.2-0.5
		l0.3-0.6c0.3-0.5,0.5-1,0.5-1.3c0-0.4-0.3-0.8-0.9-1.3c-0.4,0.2-0.7,0.3-1,0.6c-0.2,0.1-0.3,0.2-0.4,0.3s-0.3,0.1-0.5,0.2l0.1,0.4
		c-0.4,0.2-0.7,0.4-0.9,0.6c-0.2,0.3-0.4,0.5-0.6,0.7c-0.3,0.3-0.4,0.4-0.4,0.4c0,0-0.1,0.1-0.1,0.5c-0.1,0.5-0.2,0.8-0.3,1
		c-0.1,0.2-0.2,0.4-0.3,0.5c-0.1,0.1-0.2,0.3-0.2,0.5c-0.1,0.2-0.1,0.4-0.1,0.8c0,0.5,0,0.8-0.1,0.9c-0.1,0.1-0.1,0.1-0.2,0.1
		c0,0-0.1,0-0.1,0.1c0,0.1,0.1,0.3,0.2,0.8c0.1,0.2,0,0.3,0,0.4c-0.1,0.1-0.1,0.2,0,0.5c0,0.1,0.1,0.2,0.1,0.3
		c0.1,0.1,0.1,0.3,0.2,0.5L57.3,70.1z"/>
	<path d="M78,52.4c0-0.2,0.1-0.3,0.1-0.3c0.1,0,0.3-0.2,0.8-0.5c0.1-0.1,0.1-0.2,0.1-0.1c0,0,0,0,0.2,0c0.4-0.1,0.6-0.3,0.8-0.4
		c0.1-0.1,0.4-0.3,0.9-0.4l0.3,0.3c0.2,0.2,0.3,0.2,0.3,0.2c0.1,0,0.1-0.1,0.2-0.2c0.1-0.1,0.2-0.2,0.3-0.3c0.1-0.1,0.3-0.1,0.6,0
		L81.8,50l0.8-0.2c0.3,0.6,0.5,0.9,0.6,1c0.1,0.1,0.1,0.1,0.1-0.1c0-0.1-0.1-0.3-0.1-0.5c-0.1-0.2-0.1-0.4-0.1-0.4
		c0.1-0.1,0.2-0.1,0.3,0c0.1,0,0.1,0.1,0.2,0.1s0.1,0.1,0,0c0,0,0-0.1-0.1-0.3c0.2,0,0.5,0,0.8-0.1c0.3,0,0.5-0.1,0.8-0.1
		c0.3-0.1,0.5-0.1,0.7-0.1c0.2,0,0.4,0.1,0.6,0.2c0.1-0.2,0.2-0.4,0.3-0.5c0.1-0.2,0.2-0.3,0.4-0.4c0.1,0,0.2,0,0.4,0
		c0.7-0.1,1.3-0.2,1.7-0.3c0.4-0.1,0.8-0.1,1,0.1c0.3,0.1,0.5,0.3,0.6,0.7c0.2,0.3,0.3,0.8,0.5,1.5c0.1,0.3,0.2,0.6,0.2,0.9
		s0,0.5,0,0.7c0,0.2-0.1,0.5-0.1,0.8c0,0.3-0.1,0.7-0.1,1.2l-0.1,0.5L91,57.1c0,0.6-0.1,1.2,0,1.9c0,0.7,0.1,1.4,0.1,2.1
		c0,0.1,0,0.3,0.1,0.5s0.1,0.4,0.1,0.6c0,0.6,0.1,1.3,0.2,2c0.1,0.7,0.4,1.4,0.7,1.9c0.3,0.5,0.6,1.1,0.9,1.6s0.8,1,1.2,1.3
		c0.5,0.3,1,0.4,1.4,0.4c0.4,0,0.8-0.3,1.3-0.7l0.9-0.9c0,0,0.1-0.1,0.1-0.1l4.6-7.6c0.1-0.2,0.2-0.3,0.3-0.4
		c0.1-0.1,0.2-0.2,0.3-0.4c0.2-0.2,0.3-0.4,0.3-0.6c0-0.2,0.1-0.4,0.2-0.7l0.2,0l0.2,0.4l0.2-0.5l0.2,0l0,0.6c0,0,0,0.1,0,0.2
		c0,0.1,0,0.2,0,0.3c-0.2,0.3-0.3,0.7-0.4,1c-0.1,0.6-0.3,1.2-0.5,1.7s-0.5,1-0.8,1.6c-0.1,0.2-0.1,0.3-0.2,0.4
		c0,0.1-0.1,0.2-0.2,0.4c-0.3,0.8-0.6,1.4-1.1,2c-0.5,0.6-0.9,1.2-1.3,1.9l0,0.1c0,0,0,0.1,0,0.1c-0.5,0.9-1.1,1.6-1.8,2.2
		c-0.3,0.3-0.6,0.4-0.8,0.5c-0.2,0.1-0.4,0.1-0.7,0.2c-0.5,0.1-0.8,0.2-0.9,0.3c-0.1,0.1-0.3,0.3-0.7,0.4c-0.2,0-0.3,0.1-0.3,0.1
		c0,0-0.1,0-0.1,0c0,0-0.1,0-0.2,0c-0.1,0-0.2,0.1-0.3,0.2c-0.2,0.1-0.3,0.2-0.4,0.2c0,0-0.2,0-0.3,0.1c-0.3,0.1-0.6,0.2-0.9,0.2
		c-0.3,0-0.6,0-0.9,0c-0.9,0-1.7-0.1-2.2-0.4c-0.6-0.2-1.2-0.6-1.9-1.1l-0.1,0l-0.5-0.5c-0.1-0.2-0.3-0.4-0.5-0.7
		c-0.2-0.3-0.4-0.5-0.6-0.7c-0.5,0.1-0.7,0.2-0.7,0.2c0,0-0.1,0.2-0.4,0.5c-0.4,0.4-0.8,0.9-1.3,1.3c-0.5,0.4-1,0.8-1.6,1.1
		c-0.6,0.3-1.1,0.5-1.7,0.7c-0.6,0.1-1.2,0.2-1.9,0.2c-0.6-0.1-1-0.1-1.4-0.2c-0.4,0-0.7-0.1-1-0.2c-0.3-0.1-0.6-0.2-0.9-0.3
		c-0.3-0.1-0.7-0.3-1.1-0.6l-0.3-0.2l-0.9-0.9c-0.6-0.5-1-1.1-1.3-1.8c-0.3-0.7-0.4-1.5-0.4-2.2c0-0.5,0-1,0.1-1.5s0.1-0.8,0.1-1.2
		c0-0.4,0.1-0.7,0.2-1.2c0.1-0.4,0.2-0.9,0.3-1.4c0,0,0-0.1,0-0.1l2-3.6c0.2-0.4,0.5-0.8,0.9-1.2c0.4-0.4,0.7-0.7,1.1-1
		c-0.2,0-0.2-0.2-0.2-0.4c0.1-0.2,0.2-0.4,0.3-0.6c0.1-0.2,0.3-0.4,0.5-0.7c0.2-0.2,0.4-0.4,0.5-0.4c0.2-0.2,0.3-0.4,0.4-0.6
		S77.6,52.5,78,52.4z M78,66.3c0,0.3,0,0.6,0,1c0,0.4,0.2,0.6,0.5,0.7c0.2,0.1,0.4,0.2,0.5,0.3c0.1,0.1,0.1,0.2,0.2,0.4
		c0,0.1,0.1,0.3,0.2,0.4c0.1,0.1,0.3,0.3,0.5,0.4c0.4,0.2,0.9,0.3,1.5,0.3c0.6,0,1-0.1,1.4-0.4c0.2-0.1,0.3-0.2,0.3-0.2
		c0,0,0,0,0.2-0.1l1.1-1.2c0.2-0.3,0.4-0.6,0.7-0.8c-0.3-0.6-0.5-1.1-0.6-1.5c-0.1-0.4-0.1-0.8-0.1-1c0-0.1-0.1-0.4-0.2-1
		c-0.2-0.6-0.2-1.2-0.2-1.9l0-0.1l0-0.1l0.3-3.7c0.1-0.3,0.1-0.6,0.2-1.1c0.1-0.4,0.2-0.9,0.3-1.3c0.1-0.4,0.2-0.8,0.3-1.2
		c0.1-0.4,0.1-0.6,0-0.8c-0.3,0.3-0.5,0.5-0.8,0.7c-0.3,0.2-0.6,0.4-0.9,0.7c-0.6,0.7-1.2,1.2-1.6,1.6c-0.4,0.4-0.7,0.7-1,1
		c-0.3,0.3-0.5,0.5-0.6,0.7c-0.1,0.2-0.2,0.4-0.3,0.7l-0.7,1.9l0.6,0.1l-0.5,0.3c-0.1,0.1-0.1,0.1-0.1,0.1c0,0,0,0,0,0.1l0,0.1
		c0,0.3,0,0.4,0,0.4c0,0-0.1,0.1-0.2,0.4c0.4,0,0.5-0.1,0.5-0.1c-0.1-0.1,0,0,0.1,0.2c-0.3,0.1-0.5,0.1-0.6,0.2
		c-0.1,0-0.1,0-0.1,0.1c0,0,0,0.1,0,0.1c0,0.1,0,0.2-0.1,0.3c-0.1,0.1-0.1,0.1-0.1,0.1c0,0,0,0.1-0.2,0.2c-0.3,0.2-0.4,0.3-0.3,0.2
		c0.1-0.1,0.1-0.1,0-0.2c-0.3,0.3-0.5,0.5-0.6,0.6s-0.1,0.1-0.1,0.2c0,0,0,0,0.1,0c0.1,0,0.1,0,0.1,0.1c0.1,0,0.2,0,0.3,0.1
		c0,0-0.1,0.1-0.4,0.2c-0.2,0.1-0.4,0.1-0.5,0.1s-0.1,0.1,0.1,0.4c0.1-0.1,0.2-0.1,0.4-0.2c0.2-0.1,0.3-0.1,0.4-0.1
		c0.3-0.1,0.4-0.1,0.5-0.1c0.1,0,0.2,0.1,0.3,0.3C78.4,65,78.3,65,78.3,65c0.1,0,0.1,0.1,0,0.3c-0.2,0.1-0.3,0.2-0.3,0.1
		c0-0.1,0.1,0.1,0.2,0.4c0.2-0.1,0.3-0.2,0.3-0.2c0,0,0,0.1,0,0.1c0,0.1,0,0.1,0,0.2c0,0,0.2,0,0.5-0.2l0.1,0.5
		c-0.3,0.2-0.5,0.3-0.4,0.4c0.1,0.1,0.2,0.3,0.3,0.6c-0.2,0-0.3,0-0.4,0c0,0-0.2-0.3-0.4-1L78,66.3z"/>
	<path d="M99.1,29.8c0.1-0.2,0.1-0.4,0.1-0.5c0-0.1,0.1-0.3,0.1-0.4c0-0.2,0.1-0.3,0.1-0.6c0.1-0.2,0.2-0.5,0.3-1
		c0.1-0.4,0.3-0.8,0.5-1.2c0.2-0.4,0.5-0.9,0.7-1.3c0.3-0.4,0.6-0.8,0.9-1.1c0.3-0.3,0.7-0.5,1.1-0.6c0.3-0.1,0.8-0.1,1.5,0
		c0.6,0.1,1.1,0.2,1.4,0.4c0.6,0.4,1.1,0.8,1.4,1.3c0.3,0.4,0.5,0.9,0.6,1.3c0.1,0.4,0.2,0.9,0.2,1.3c0,0.4,0,0.7,0,1
		c0,0.6,0,0.9,0,1c0,0.1,0,0.4,0.2,0.9c0,0.1,0,0.1,0,0.2c0,0-0.1,0.2-0.1,0.4l0,1.5c-0.1,0.5-0.1,0.9-0.1,1.1c0,0.2,0,0.6,0.1,1.1
		c0.1,0.6,0,1.3-0.2,2c-0.2,0.7-0.4,1.3-0.5,1.9c0,0.3-0.1,0.7-0.1,1c-0.1,0.3-0.2,0.6-0.3,0.9c-0.3,0.6-0.5,1.2-0.6,1.7
		c-0.1,0.6-0.3,1.2-0.7,1.9c-0.2,0.4-0.3,0.7-0.3,0.9c0,0.2,0,0.5,0.1,1l1.7,9.2c0.3,1,0.5,1.8,0.7,2.4c0.2,0.6,0.4,1.3,0.7,2.1
		l1.5,3.2c0.2,0.4,0.5,0.6,0.7,0.7c0.2,0.1,0.5,0,0.8-0.1c0.3-0.1,0.5-0.3,0.8-0.6c0.3-0.3,0.5-0.5,0.7-0.8l0.2-0.3
		c0.6-0.7,1.1-1.6,1.5-2.4c0.4-0.9,0.7-1.8,1.1-2.8c0.1-0.1,0.2-0.5,0.4-0.9s0.4-0.9,0.6-1.4c0.2-0.5,0.5-1,0.7-1.4
		c0.2-0.4,0.4-0.7,0.6-0.8c0.1,0.5,0.1,1,0,1.4c-0.1,0.4-0.2,1-0.3,1.6c0,0.3,0,0.3,0,0.3c0-0.1,0,0-0.1,0.2c0,0.2-0.1,0.2,0,0.2
		c0,0,0,0-0.1,0.1l-0.2,0.8c-0.3,1.3-0.6,2.5-1,3.6c-0.4,1-0.8,2-1.4,2.8c-0.6,0.8-1.4,1.6-2.3,2.3c-0.9,0.7-2,1.2-3.4,1.7l-1-0.1
		l-0.5,0c-0.3,0-0.6-0.1-0.9-0.2c-0.3-0.1-0.6-0.2-0.9-0.3c-0.6-0.2-1.1-0.5-1.5-0.7s-0.7-0.6-1-0.9c-0.3-0.3-0.5-0.7-0.7-1.1
		c-0.2-0.4-0.4-0.9-0.7-1.5c-0.4-0.8-0.8-1.8-1.1-3c-0.4-1.1-0.7-2.3-1-3.6c-0.3-1.2-0.5-2.4-0.7-3.6c-0.2-1.2-0.3-2.3-0.4-3.2
		c-0.1-1.2-0.2-2.3-0.3-3.4c-0.1-1.1-0.2-2.3-0.2-3.4c-0.1-1.6-0.1-3.2,0-4.8c0-1.6,0.2-3.2,0.4-4.9l0.3-1.3l0.7-0.6l0.1-0.8
		c0.1-0.3,0.2-0.5,0.3-0.6c0.1,0-0.1-0.1-0.5-0.2c0.1,0.6,0,1-0.1,1C99.3,29.6,99.1,29.7,99.1,29.8z M100,28.3l0.4-0.1l0.1-0.8
		c0.1-0.4,0.2-0.5,0.3-0.6c0.1,0-0.1-0.1-0.5-0.2L100,28.3z M100.9,28.1c-0.4,0.3-0.5,0.7-0.3,1.1L100.9,28.1z M101.3,26.3l0.1-0.8
		c0.1-0.4,0.2-0.6,0.3-0.6c0.1,0-0.1-0.1-0.4-0.3c0.1,0.6,0,0.9-0.1,1c-0.1,0.1-0.2,0.2-0.3,0.3L101.3,26.3z M101.7,26.2
		c-0.4,0.3-0.5,0.7-0.3,1.1L101.7,26.2z M102.7,24.3c-0.3,0.3-0.4,0.7-0.3,1.1L102.7,24.3z M104.8,40.5c0.1-0.1,0.2-0.5,0.3-0.9
		s0.2-1,0.3-1.5c0.1-0.5,0.2-1.1,0.3-1.6c0.1-0.5,0.1-0.8,0.1-1.1c0-0.1,0-0.2,0-0.2c0-0.1,0-0.1,0-0.2c0.1-0.7,0.1-1.3,0.1-2
		c0-0.6-0.1-1.3-0.1-1.9c-0.1-0.4-0.1-0.6-0.1-0.8c0-0.2,0-0.4,0-0.6c0-0.2,0-0.5-0.1-0.8c0-0.3-0.1-0.7-0.2-1.3
		c-0.1,0.1-0.2,0.4-0.3,0.8c-0.1,0.4-0.2,0.9-0.2,1.4c-0.1,0.5-0.1,1-0.1,1.4c0,0.5-0.1,0.8-0.1,0.9l-0.1,1.6l0,1.6
		c0,0.4,0,0.7,0,0.8c0,0.2,0,0.5,0,0.8c0,0.5,0,1,0.1,1.8S104.7,40.1,104.8,40.5z"/>
	<path d="M143.3,55.9c-0.3,0-0.4,0-0.3-0.1s0.1-0.4,0.1-1l0-1.1c-0.1-0.8-0.1-1.8,0-2.8c0.1-1,0.2-1.9,0.2-2.8c0-0.3,0-0.4,0-0.4
		c0,0,0-0.1,0.1-0.4l0.2-1.5c0.1-0.6,0.1-1.2,0.2-1.9c0-0.6,0.1-1.3,0.2-1.9l0.2-0.6l0.4-2.5l0-0.3c0,0,0-0.1,0-0.1c0,0,0,0,0-0.1
		c0.2-0.7,0.2-1.1,0.1-1.3c-0.1-0.1-0.3-0.1-0.5,0c-0.2,0.1-0.5,0.3-0.8,0.6c-0.3,0.3-0.5,0.5-0.7,0.6c-0.2,0.1-0.4,0.3-0.5,0.4
		c-0.1,0.1-0.3,0.2-0.4,0.4c-0.2,0.2-0.3,0.5-0.5,0.9c-0.2,0.4-0.5,1-0.9,1.7c-0.1,0.2-0.2,0.4-0.3,0.5c-0.1,0.1-0.1,0.3-0.2,0.5
		c0,0.2-0.1,0.3-0.1,0.4s0,0.2-0.1,0.4c-0.1,0.4-0.1,0.7-0.2,0.8s-0.2,0.3-0.3,0.5c-0.1,0.2-0.2,0.3-0.2,0.6c0,0.2-0.1,0.6-0.1,1.1
		l-0.2,1.9c-0.1,0.1-0.1,0.2-0.1,0.3c0,0.1,0,0.2,0,0.3c0,0.3,0,0.9,0,1.7c0,0.8,0.1,1.6,0.2,2.4c0.1,0.9,0.1,1.7,0.1,2.4
		c0,0.8,0,1.3-0.1,1.6c-0.4,0.1-0.6,0.1-0.8,0.1s-0.2-0.1-0.3-0.2s-0.2-0.1-0.4-0.1c-0.2,0-0.6,0.2-1.1,0.4
		c-0.6,0.3-1.1,0.4-1.6,0.4c-0.4,0-0.9-0.3-1.3-0.8c-0.1-0.1-0.2-0.2-0.2-0.2s-0.1-0.2-0.1-0.3c-0.1-0.2-0.2-0.3-0.3-0.4
		s-0.1-0.2-0.2-0.4l-0.4,1.2c-0.1,0.4-0.3,0.7-0.4,0.9c-0.1,0.2-0.3,0.5-0.5,0.8c-0.4,0.5-0.8,1-1.1,1.3c-0.3,0.3-0.8,0.7-1.4,1.1
		l-0.9,0.6l-0.1,0c-0.3,0.2-0.6,0.3-1.1,0.4c-0.4,0.1-0.8,0.2-1.1,0.2c-0.2,0-0.4,0-0.4,0c-0.1,0-0.2,0-0.4,0c-0.3,0-0.6,0-0.8-0.1
		c-0.3-0.1-0.5-0.2-0.8-0.3l-0.1-0.1c-0.4-0.2-0.7-0.3-0.8-0.3c-0.1,0-0.2-0.1-0.3-0.4l-0.2,0.2l-0.1-0.3c-0.2,0-0.4-0.1-0.8-0.4
		c0-0.3-0.1-0.5-0.4-0.6l0.1,0.4l0.3,0.2c0,0.1,0,0.2-0.1,0.3l-0.2-0.5c-0.3-0.3-0.6-0.6-0.8-1c-0.2-0.4-0.4-0.7-0.6-0.9
		c-0.1-0.3-0.2-0.5-0.3-0.7c-0.1-0.2-0.2-0.4-0.3-0.6c0-0.2,0-0.2,0-0.2c0.1,0,0-0.1-0.3-0.4c-0.1-0.1-0.2-0.4-0.3-0.8
		c-0.1-0.4-0.1-0.6-0.1-0.6c0-0.2,0-0.3,0-0.3c0,0.1,0,0-0.2-0.2c-0.1-0.2-0.2-0.3-0.3-0.3c-0.1,0-0.1-0.2-0.1-0.7l-0.4-1.3
		l-0.3-2.2l0-0.1l-0.2-5.4c0-0.2,0-0.3,0.1-0.3c0,0,0,0,0.1-0.3c0-0.2,0-0.3,0-0.3c0,0,0,0,0-0.1c-0.1-0.5,0-1,0.1-1.6
		c0.2-0.5,0.2-1,0.1-1.4c0-0.2,0-0.6,0-1.2c0-0.5,0.1-1.1,0.1-1.8c0-0.5,0-0.9-0.1-1.3c-0.1-0.4-0.1-0.7-0.1-0.8
		c-0.2,0-0.2-0.2-0.1-0.7c0.1-0.5,0.2-1,0.3-1.4c-0.2,0-0.5-0.2-1-0.4c-0.5-0.2-0.8-0.4-1-0.4c-0.2,0.1-0.3,0.1-0.4,0
		c-0.1,0,0.1-0.1,0.5-0.4l-0.8-0.2l-0.1,0c-0.1,0.1-0.1,0.1-0.2,0c-0.6,0.1-1.1,0.1-1.8,0c-0.6-0.1-1.2-0.2-1.7-0.3
		c-0.2,0-0.3,0-0.3,0c0,0-0.1,0.1-0.3,0.1c-0.2,0.1-0.3,0.1-0.3,0.1s-0.1,0-0.4-0.1c-0.5-0.1-0.9-0.1-1.1-0.1c-0.3,0-0.5,0-0.7,0
		c-0.2,0-0.3,0-0.3,0.1c-0.1,0.1-0.2,0.1-0.5,0.1c-0.6,0-1,0-1,0c-0.1,0-0.1,0-0.3-0.2l-0.2,0c-0.1,0.3-0.1,0.4-0.1,0.3
		c0-0.1-0.1-0.1-0.4-0.1l-2.1,0.4c-0.3,0-0.5,0-0.7,0.1c-0.1,0.1-0.4,0.1-0.8,0.1c-0.4,0-0.8,0.1-1.3,0.3c-0.3,0.1-0.7,0.2-1,0.3
		c-0.3,0.1-0.7,0.3-0.9,0.5c-0.5,0.3-0.9,0.5-1.2,0.6c-0.4,0.1-0.5,0.4-0.5,0.8l0,0.4c0,0.3,0.2,0.5,0.6,0.7s0.8,0.3,1.4,0.4
		c0.1,0.3,0.1,0.4,0,0.5c-0.1,0-0.2,0.2-0.5,0.3c0,0,0,0,0,0c0,0-0.1,0-0.2,0.1c-0.2,0.1-0.4,0-0.7-0.1c-0.2-0.1-0.4-0.2-0.6-0.1
		l-0.1,0.1c-0.1,0-0.2,0-0.3-0.1c-0.1-0.1-0.2-0.1-0.3-0.2c-0.3-0.1-0.5-0.2-0.6-0.3c0-0.1-0.2-0.2-0.5-0.4
		c-0.1-0.1-0.1-0.1-0.2-0.1c0,0-0.1,0-0.1-0.1L91.6,35c0,0-0.1,0-0.1,0c0,0,0-0.1-0.1-0.1l0-0.1l-0.1,0l-0.4-1c0,0,0-0.1-0.1-0.1
		c0,0,0,0-0.1-0.1c0-0.2,0-0.3,0-0.3c0,0,0-0.1,0-0.2c-0.1-0.4-0.1-0.8,0-1.1c0.1-0.3,0.2-0.7,0.5-1.1c0.3-0.6,0.8-1.1,1.4-1.5
		c0.2-0.1,0.4-0.2,0.6-0.3c0.2-0.1,0.4-0.2,0.7-0.4c0.2-0.1,0.4-0.1,0.5-0.2c0.1,0,0.1-0.1,0.2-0.1c0,0,0.1-0.1,0.1-0.1
		c0.1,0,0.2-0.1,0.4-0.1l0.1,0.5c0.1,0,0.2,0,0.2,0c0.3-0.5,0.9-0.9,1.6-1.2c0.8-0.3,1.6-0.5,2.5-0.6c0.3-0.1,0.9-0.2,1.6-0.3
		c0.7-0.1,1.3-0.1,1.7,0.1l0.2,0c0.3-0.1,0.6-0.2,0.7-0.2c0.1,0,0.2-0.1,0.2,0c0,0,0.1,0,0.2,0.1c0.1,0.1,0.3,0.1,0.7,0.2
		c0.2,0,0.3,0,0.3,0c0,0,0.1-0.1,0.3-0.1c0,0,0,0.1,0.1,0l2.4-0.1c0.5,0,0.9,0,1.1,0.1c0.2,0.1,0.5,0.1,0.7,0.2c0.3,0,0.5,0,0.5,0
		c0.1,0,0.2,0,0.4,0c0.3,0,0.5,0,0.6,0.1c0.1,0.1,0.2,0.2,0.3,0.2c0.1,0.1,0.2,0.1,0.3,0.2c0.1,0,0.4,0,0.7,0c0.1,0,0.1,0,0.1,0
		c0,0,0.1,0,0.3,0l0.5,0.1c0.6,0.1,1.3,0.3,2,0.5c0.7,0.3,1.2,0.4,1.5,0.5l0.3-2.5l0-0.1l0.2-1.6c0.1-0.3,0.1-0.5,0.1-0.7
		c0-0.2,0-0.4,0-0.6c0-0.2,0-0.4,0.1-0.5c0.1-0.2,0.3-0.3,0.6-0.5l1.1,0.6c0.1,0.1,0.2,0.1,0.3,0.1s0.2,0.1,0.3,0.2
		c0.2,0.1,0.3,0.3,0.5,0.4c0.1,0.2,0.3,0.3,0.4,0.5c0.2,0.2,0.5,0.4,0.7,0.7c0.2,0.2,0.4,0.5,0.4,0.8c0.1,0.4,0.1,0.6,0.2,0.8
		c0.1,0.1,0.1,0.3,0.1,0.7c0,0.1,0,0.2,0,0.2c0,0,0,0,0,0.1l-0.2,1.3c-0.1,0.4-0.1,0.7-0.1,0.8c0,0.1,0.1,0.3,0.1,0.5
		c0.3,0.1,0.6,0.2,0.9,0.2c0.3,0,0.5,0,0.8,0c0.1,0.1,0.2,0.1,0.4,0.1c0.2,0,0.4,0,0.6,0c0.8,0.1,1.2,0.1,1.3,0.1
		c0.1,0,0.1,0.1,0,0.2l0.2,0c0.2-0.1,0.4-0.1,0.5-0.1c0.1,0,0.1,0,0.1,0c0,0,0,0,0,0.1c0,0,0.1,0,0.3,0l2.2,0.2l-0.1-2.3
		c0-1,0-2.1-0.1-3.2c-0.1-1.1,0-2.1,0.2-3.1c0.1-0.5,0.2-0.9,0.2-1.2c0.1-0.3,0-0.7-0.1-1.3c1.1-0.5,2-0.4,3,0.4l0.3,0.2
		c0.7,0.5,1.1,1,1.4,1.4c0.3,0.4,0.5,1,0.6,1.8c0,0.2,0,0.3,0,0.2c0-0.1,0,0-0.1,0.1l0,0.1l0,0.2c0,0,0,0.1,0,0.1l0.1,4.9
		c0.1,0.2,0.2,0.4,0.2,0.4c0,0.1,0,0.2,0,0.4l0,0.4l1.3-0.1c0.3,0,0.6-0.1,0.9-0.2s0.6-0.2,0.9-0.3c0.2,0,0.4-0.1,0.7-0.2
		c0.3-0.1,0.6-0.1,0.9-0.2c0.3-0.1,0.6-0.2,0.8-0.3c0.2-0.1,0.3-0.2,0.3-0.4l0.1-0.2c0-0.2-0.1-0.3-0.4-0.4c-0.3-0.1-0.6-0.2-1-0.3
		c-0.4-0.1-0.8-0.2-1.2-0.3c-0.4-0.1-0.7-0.2-0.9-0.2c0.2-0.2,0.4-0.4,0.5-0.4c0.1,0,0.4-0.1,0.9-0.2l0.4-0.1c0.4,0,0.8,0,1.2,0.1
		c0.4,0.1,0.7,0.2,0.9,0.3L142,27c0.1,0.1,0.1,0.1,0.2,0.2c0.1,0,0.1,0.1,0.2,0.2c0.2,0.2,0.4,0.3,0.6,0.5c0.2,0.1,0.3,0.3,0.4,0.5
		l0,0.1l-0.1,1.5l0,0.1l0,0.1l-0.1,0l-0.6,0.8c-0.2,0-0.2,0.1-0.2,0.2c-0.2,0.1-0.3,0.2-0.3,0.3c0,0-0.1,0.1-0.3,0.2
		c-0.5,0.3-0.9,0.6-1.3,0.8c-0.4,0.2-0.9,0.5-1.6,0.7c-0.6,0.2-1.1,0.4-1.7,0.5c-0.6,0.2-1.1,0.3-1.7,0.3l-0.1,0l0.1,1.1
		c0,0.5,0.1,1.1,0.2,1.6c0.1,0.5,0.2,1,0.2,1.5c0,0.3,0,0.6,0.1,0.8c0.1,0.2,0.1,0.5,0,0.7c0,0.3,0,0.8,0,1.4
		c0.1,0.6,0.1,1.1,0.1,1.5l0,0.2l-0.1,0.2c-0.1,0.5-0.1,1.1,0.1,1.8c0.1-0.1,0.1-0.2,0.1-0.1c0,0,0,0,0-0.2c0.2-0.7,0.4-1.3,0.7-1.9
		c0.3-0.6,0.6-1.2,0.8-1.9c0.5-1.3,1.3-2.5,2.3-3.5l1.3-1.3c0.3-0.3,0.6-0.6,1-0.9c0.4-0.3,0.8-0.5,1.2-0.7c0.1,0,0.3-0.1,0.4-0.1
		c0.2-0.1,0.3-0.1,0.4-0.1l2.4-0.6c0.8,0,1.3,0,1.5,0.3c0.2,0.2,0.6,0.6,1,1c0.3,0.3,0.4,0.5,0.5,0.9c0,0.3,0.1,0.7,0,1
		c0,0.3,0,0.5,0.1,0.8c0.1,0.3,0.1,0.6,0,0.9c-0.1,0.7-0.1,1.3-0.1,2c0.1,0.7,0.1,1.4,0,2c0,0.4,0.1,0.7,0.1,1c0,0,0,0.1,0,0.2
		l0,0.2c0,0.1,0,0.2,0,0.1c0-0.1,0,0,0,0.2l-0.1,1.6c0.1,0.6,0.1,1.1,0.2,1.7c0,0.5,0.1,1.1,0,1.7c0,0.2,0,0.3,0,0.4
		c0,0.1,0,0.2,0,0.3c-0.1,0.6-0.1,0.9,0,1.1c0.1,0.2,0.1,0.5,0.1,0.8l-0.1,0.9l0.1,1.6c0,0.4,0,0.8,0,1.2c0,0.5,0.1,0.8,0.2,1.1
		l0.1,0.3L151,59c0.1,0.3,0.2,0.6,0.1,0.9c0,0.2,0,0.5,0,0.8l0.4,1.1c0.2,0.3,0.3,0.6,0.4,1c0.1,0.4,0.2,0.7,0.4,0.9
		c0.2,0.2,0.4,0.3,0.6,0.3c0.2,0,0.5-0.3,0.9-0.8c0.2-0.3,0.5-0.7,0.7-1c0.2-0.4,0.4-0.7,0.5-1.1l1.5-5.2c0.2-0.7,0.3-1.3,0.4-1.7
		c0.1-0.4,0.1-0.7,0.1-1.1c0-0.3,0-0.6,0-1c0-0.4,0-0.8,0.1-1.4c0-0.2,0.1-0.3,0-0.3c0,0,0-0.1,0.1-0.2l0.1-0.5
		c0-0.3,0.1-0.5,0.1-0.5c0,0,0.1-0.1,0.3-0.3l0.2,0.1c0.2,0.3,0.3,0.5,0.2,0.6c0,0.1,0,0.3,0,0.4c0.1,0.1,0.1,0.2,0,0.1
		c-0.1-0.1,0,0,0.1,0.2c0.1,0.3,0.2,0.7,0.2,1.4c0,0.7,0,1.4,0,2.2c0,0.8-0.1,1.5-0.2,2.2c-0.1,0.7-0.2,1.2-0.2,1.5
		c-0.1,0.6-0.2,1.2-0.3,1.6c-0.1,0.5-0.2,0.9-0.3,1.4c-0.1,0.4-0.3,0.9-0.5,1.3c-0.2,0.4-0.4,1-0.7,1.5l0,0.1l0,0.1l-0.2,0.4
		l-0.2,0.5l-1,1.7c-0.2,0.4-0.5,0.6-0.8,0.8c-0.3,0.2-0.6,0.5-0.8,0.8l-0.4,0.4c-0.1,0.1-0.2,0.1-0.3,0.1c-0.1,0-0.2,0.1-0.3,0.2
		c-0.4,0.2-0.9,0.4-1.7,0.4c-0.7,0.1-1.3,0.1-1.6,0.1c-0.5,0.1-1,0-1.3-0.1l-0.1,0c-0.2,0-0.4-0.3-0.6-0.7c-0.2-0.4-0.4-0.8-0.5-1
		c0-0.1-0.1-0.2-0.2-0.2l0.1,0l0,0.1c0,0.1,0,0.1,0.1,0.1l-0.2-0.2c-0.1-0.2-0.3-0.7-0.6-1.4c-0.3-0.7-0.6-1.4-0.9-2.2
		c-0.3-0.8-0.6-1.5-0.8-2.2c-0.2-0.7-0.3-1.1-0.3-1.3c0-0.5-0.1-0.9-0.2-1.5s-0.2-1-0.3-1.5c0-0.2,0-0.4,0-0.5c0-0.1,0-0.2,0-0.2
		s0-0.1,0.1-0.2C143.2,56.2,143.2,56.1,143.3,55.9z M106.1,27.2c-0.3-0.1-0.4-0.2-0.4-0.2c0,0-0.1,0.1-0.3,0.1
		c0.1,0,0.2,0.1,0.2,0.1c0,0,0.1,0,0.1,0c0,0,0,0,0.1,0C105.9,27.3,106,27.2,106.1,27.2z M107,27.2c0.1,0.1,0.2,0.1,0.3,0.1
		s0.2,0,0.3-0.1c-0.1,0-0.2,0-0.2-0.1C107.3,27.1,107.2,27.1,107,27.2z M107.7,26.8c0.2,0,0.3,0,0.3,0c0,0,0,0.1,0.1,0.2L107.7,26.8
		z M108,27.1c0.2,0.1,0.3,0.2,0.3,0.2c-0.1,0,0.1,0,0.4-0.1l-0.3-0.1L108,27.1z M109.2,27.2l-0.2,0.1c0,0,0.1,0,0.2,0
		c0.1,0,0.1,0,0.2-0.1C109.4,27.2,109.3,27.2,109.2,27.2z M112.9,27.9c-0.1,0.1-0.2,0.1-0.1,0.1C112.9,27.9,113,27.9,112.9,27.9
		c0.2,0.2,0.3,0.2,0.3,0.1C113.2,27.9,113.1,27.8,112.9,27.9z M113.7,27.9c-0.1,0-0.1,0-0.1,0c0,0,0.1,0.1,0.2,0.2
		c0.2,0.1,0.3,0,0.2,0C113.9,28,113.8,27.9,113.7,27.9z M118.5,57c0.3,0.2,0.4,0.5,0.2,0.9L118.5,57z M119.4,56.7
		c-0.2-0.3-0.3-0.4-0.4-0.5c0-0.1,0.1-0.2,0.3-0.5L119.4,56.7z M119.4,58.4c0.4,0.1,0.5,0.4,0.2,0.9L119.4,58.4z M120.3,57.8
		c-0.1-0.1-0.2-0.1-0.4-0.2c-0.1,0-0.1-0.4,0-1c-0.2,0.2-0.3,0.3-0.4,0.4c-0.1,0.1-0.1,0.1-0.1,0.1c0,0,0.1,0.1,0.1,0.1
		s0.1,0.1,0.1,0.3l0.1,0.8L120.3,57.8z M121.3,59.2L121.3,59.2c-0.1,0-0.1,0-0.1,0l-0.1-0.5c0,0.1-0.1,0.1-0.1,0.2
		c-0.1,0-0.1,0.1-0.1,0.1l0-0.9c-0.2,0.2-0.3,0.3-0.4,0.3c0,0.1-0.1,0.1-0.1,0.1c0,0,0,0.1,0.1,0.1c0,0.1,0.1,0.2,0.1,0.3l0.2,0.8
		l0.2-0.2c-0.1-0.2-0.2-0.3-0.2-0.3c0,0,0-0.1,0.1-0.2c0,0.2,0.1,0.2,0.3,0.2l0,0.2L121.3,59.2z M120.9,59.5l0.2,0.1l0-0.3
		L120.9,59.5z M122,60.7c-0.1-0.1-0.2-0.1-0.3-0.1c-0.1,0-0.1-0.4,0-1c-0.2,0.2-0.3,0.3-0.4,0.4c-0.1,0.1-0.1,0.1-0.1,0.2
		c0,0,0,0.1,0.1,0.1c0.1,0,0.1,0.1,0.1,0.3l0,0.5c0,0,0.1,0,0.2,0l0,0.1L122,60.7z M130.2,56c0.2-0.3,0.4-0.6,0.6-1.2
		c0.2-0.5,0.4-1,0.6-1.5l-0.9-2.8c-0.1-0.3-0.1-0.7-0.2-1.4c-0.1-0.7-0.1-1.4-0.2-2.1c-0.1-0.7-0.1-1.4-0.2-2.1
		c0-0.6-0.1-1.1-0.2-1.4c0-0.3-0.1-0.5-0.1-0.6c0-0.1,0-0.3,0-0.6l-0.2-1.1c-0.1-0.5-0.1-1.2-0.1-1.9c0-0.8,0-1.4-0.1-1.9l-0.1-2.8
		c0,0-0.2,0-0.5-0.1l-2.1-0.1l0.2-0.3c-0.3,0-0.4,0-0.5,0c-0.1,0-0.1,0-0.1,0.1c0,0,0,0.1-0.1,0.1c-0.1,0-0.2,0.1-0.4,0.1
		c-0.3,0-0.4,0-0.3,0c0.1,0,0,0-0.3,0l0-0.1l0.1,0l0-0.1l0.1,0l-0.2-0.1c-0.1,0-0.2,0-0.2,0.1c0,0,0,0.1,0,0.1c0,0-0.1,0-0.2,0
		s-0.4-0.2-0.7-0.4c-0.2,0.1-0.3,0.1-0.3,0.1c0,0-0.1,0-0.2,0.2c-0.1-0.1-0.2-0.1-0.3-0.2c-0.1,0-0.2,0-0.2-0.1l-0.5,0.1
		c0,0.1,0,0.4,0,0.9c0,0.4,0,1,0,1.5c0,0.1-0.1,0.2-0.1,0.2c-0.1,0.1-0.1,0.1-0.1,0.2c0,0.1,0,0.3,0.1,0.5c0.1,0.2,0.1,0.4,0.1,0.5
		l0,2.1l-0.1,1.2c0,0.3,0,0.5-0.2,0.5c-0.1,0-0.2,0.2-0.2,0.6l0.3,2.2c0.1,0.4,0.1,0.6,0.2,0.6c0,0,0.1,0.3,0.1,0.7
		c0,0.3,0,0.5-0.1,0.6c0,0.1-0.1,0.2-0.2,0.4c0.2,0,0.3,0.1,0.3,0.2s0,0.1,0,0.2l0,0.4c0,0.3,0,0.6,0.1,0.8c0.1,0.3,0.1,0.5,0,0.8
		l0.2,0c0.1,0.1,0.1,0.1,0.1,0c0,0,0,0,0.1,0.1c0.1,0.1,0.2,0.2,0.1,0.3c0,0.1,0,0.2,0,0.3c-0.2,0.1-0.4,0.1-0.4,0
		c0,0-0.1-0.1-0.4-0.1c0.2,0.3,0.3,0.4,0.3,0.3c0.1,0,0.1,0.1,0.2,0.5l1.1,4.1c0.1,0.3,0.2,0.5,0.2,0.6c0.1,0.1,0.2,0.3,0.4,0.6
		c0.1,0.2,0.2,0.4,0.2,0.6c0.1,0.2,0.2,0.4,0.4,0.6c0.6,0.6,1,1,1.4,1.2c0.4,0.3,0.7,0.3,1.1,0.3c0.3-0.1,0.7-0.3,1-0.7
		c0.4-0.4,0.8-0.9,1.3-1.5L130.2,56z M125.7,34.3c0.2,0.1,0.3,0.1,0.3,0c0-0.1-0.1-0.1-0.2-0.1c-0.1,0-0.2,0-0.2,0
		C125.5,34.2,125.6,34.3,125.7,34.3z M147,68.4c0.1-0.2,0.1-0.3,0.1-0.2c0,0-0.1,0-0.3,0L147,68.4z M147.5,67.4c-0.1,0-0.2,0-0.3,0
		c-0.1,0-0.1-0.2,0-0.5c-0.3,0.2-0.4,0.3-0.4,0.3c0.1,0,0.1,0,0.2,0.2l0.1,0.4L147.5,67.4z M147.8,68.5L147.8,68.5l-0.1-0.3
		c0,0-0.1,0.1-0.1,0.1c0,0-0.1,0-0.1,0.1l0-0.5c-0.4,0.2-0.5,0.3-0.4,0.3c0.1,0,0.2,0.1,0.2,0.3l0.1,0.4l0.2-0.2l0.1,0.1L147.8,68.5
		L147.8,68.5z M147.5,69.1c0.1-0.1,0.1-0.2,0-0.2s-0.1,0-0.3,0L147.5,69.1z M148.1,68.2l0-0.1c-0.1,0-0.2,0-0.2-0.1
		c-0.1,0.1-0.1,0.1-0.1,0.2c0,0,0.1,0.1,0.2,0.1L148.1,68.2z M148.6,67.3c-0.1-0.1-0.2-0.1-0.3-0.1c-0.1,0-0.1-0.2,0-0.5
		c-0.3,0.2-0.4,0.3-0.4,0.3c0.1,0,0.1,0,0.2,0.2l0.1,0.4L148.6,67.3z M148.7,68.9c-0.1,0-0.2,0-0.3,0c-0.1,0-0.1-0.2,0-0.5
		c-0.4,0.2-0.5,0.3-0.4,0.3c0.1,0,0.1,0,0.1,0.2l0.1,0.4L148.7,68.9z M149.1,68.2L149.1,68.2l-0.1-0.3c-0.1,0.1-0.1,0.2-0.2,0.2
		l0-0.5c-0.2,0.1-0.3,0.2-0.3,0.2c-0.1,0-0.1,0.1-0.1,0.1c0,0,0,0,0.1,0.1c0,0,0.1,0.1,0.1,0.2l0.1,0.4l0.1-0.2l0.1,0.1L149.1,68.2
		L149.1,68.2z M149.8,68.8c-0.1,0-0.2,0-0.3,0c-0.1,0-0.1-0.2,0-0.6c-0.4,0.2-0.5,0.3-0.4,0.3c0.1,0,0.1,0,0.1,0.2l0.1,0.4
		L149.8,68.8z"/>
	<path d="M44.2,131.5c0.3-0.1,0.5-0.2,0.7-0.3c0.2-0.1,0.3-0.2,0.4-0.2c0.1-0.1,0.2-0.1,0.4-0.1c0.1,0,0.4,0,0.7,0l1,0.3
		c0,0,0,0.1,0.1,0l0.4,0.3c0.1,0.2,0.3,0.4,0.4,0.7l0.7,1.8c0.2,0.5,0.3,0.8,0.3,1c0,0.2,0,0.6,0.1,1l1.4,3.4c0.2,0.5,0.5,1,0.8,1.5
		s0.5,1,0.8,1.4l0.2,0.4c0.1,0.2,0.2,0.3,0.3,0.4s0.1,0.1,0.1,0.1c0,0,0.1,0.1,0.1,0.1c0,0,0.1,0.1,0.3,0.2c0.9,0.7,1.7,1.1,2.5,1.2
		c0.8,0.1,1.7-0.3,2.8-1.2c-0.1-0.4-0.1-0.6-0.2-0.7c-0.1-0.1-0.1-0.3-0.2-0.6l-0.5-5c0-1.1,0.1-2.1,0.2-3.1c0.1-0.9,0.4-2,0.8-3.2
		c0.2-0.4,0.3-0.7,0.5-1c0.1-0.2,0.3-0.5,0.6-0.9c0.2-0.3,0.3-0.5,0.4-0.6c0.1-0.1,0.1-0.2,0.2-0.2c0.1,0,0.1-0.1,0.3-0.2
		c0.1-0.1,0.4-0.3,0.7-0.6c0.2-0.1,0.2-0.2,0.1-0.1c-0.1,0,0,0,0.2-0.1c0.6-0.2,1.1-0.4,1.6-0.4c0.5,0,0.9,0,1.2,0.1
		c0.3,0.1,0.6,0.3,0.8,0.5c0.2,0.2,0.4,0.4,0.6,0.6l0.3,0.3c0.3,0.4,0.5,0.7,0.6,0.9c0.1,0.3,0.1,0.5,0,0.7c0,0.2-0.1,0.4-0.2,0.6
		c-0.1,0.2-0.2,0.4-0.3,0.6c-0.1,0.4-0.1,0.5,0,0.5c0.1,0,0,0.1-0.2,0.3c-0.3,0.3-0.6,0.4-1,0.4c-0.4,0-0.7-0.1-1.1-0.1
		c0-0.4,0-0.7,0-0.7c0,0-0.1,0-0.4,0.1c0,0.3-0.1,0.6-0.1,0.8c0,0.2-0.1,0.4-0.1,0.6s0,0.4,0,0.7c0,0.2,0.1,0.6,0.1,1
		c0.1,0.7,0.1,1.3,0,1.8c-0.1,0.5-0.1,1,0.1,1.6c0.2,0.6,0.4,1.2,0.4,1.8c0.1,0.5,0.3,1.1,0.5,1.6c0.2,0.3,0.3,0.5,0.4,0.7
		c0.1,0.2,0.3,0.4,0.4,0.7l3,8.7c0,0.3,0.1,0.5,0.2,0.6c0.1,0.1,0.2,0.3,0.2,0.6l0.9,6.1c-0.1,0.3-0.1,0.7-0.1,1.1s0,0.7-0.1,1.1
		c0,0.2-0.1,0.3-0.1,0.3c0,0-0.1,0-0.1,0.2l-0.5,1.6c0,0.2-0.1,0.3-0.1,0.3c0,0-0.1,0.1-0.4,0.2c0.1,0.5,0.1,0.9,0.1,1.1
		c0,0.2-0.1,0.5-0.3,0.8c-0.2,0.2-0.3,0.3-0.2,0.3c0,0,0,0.1-0.1,0.4l-0.8,1.5l-0.6,0.9c-0.2,0.3-0.4,0.4-0.5,0.3
		c-0.1,0-0.3,0.1-0.6,0.4c-0.2,0.2-0.3,0.4-0.4,0.5c-0.1,0.1-0.2,0.2-0.3,0.3s-0.2,0.2-0.3,0.2c-0.1,0.1-0.3,0.2-0.5,0.3
		c-0.4,0.3-0.8,0.6-1.2,1c-0.4,0.4-0.9,0.6-1.3,0.8c-0.5,0.2-1,0.4-1.5,0.7c-0.5,0.2-1,0.3-1.5,0.2c-0.4-0.1-0.7-0.1-1-0.1
		c-0.3,0-0.7,0-1.1,0l-2.4-0.2c0,0-0.1,0-0.1,0c-0.1,0-0.1,0-0.2,0c-0.7,0-1.1-0.1-1.4-0.3c-0.3-0.2-0.7-0.4-1.2-0.6l-1.2-0.7
		c0,0,0-0.1,0-0.1c0,0,0,0,0,0c-0.7-0.4-1.3-1-1.7-1.6c-0.4-0.7-0.8-1.4-1.1-2.2l-0.9-3.5c0-0.3,0-0.5,0-0.5c0,0,0.1-0.1,0.1-0.4
		l0-0.1c0-0.9,0.2-1.9,0.6-2.9c0.4-1,0.9-1.9,1.4-2.6c0.3-0.5,0.6-0.8,0.8-1s0.4-0.5,0.6-0.6c0.2-0.2,0.4-0.4,0.7-0.5
		c0.2-0.2,0.5-0.4,0.9-0.8l0.7-0.6c0.5-0.4,0.8-0.6,1-0.8c0.2-0.2,0.4-0.3,0.6-0.3c0.2-0.1,0.4-0.1,0.6-0.1c0.3,0,0.7-0.1,1.3-0.2
		c0,0.3,0.1,0.5,0.1,0.6c0,0.1-0.1,0.2-0.4,0.5c-0.2,0.1-0.3,0.2-0.3,0.2c0,0-0.1,0.1-0.2,0.2l-0.5,0.4c-0.3,0.2-0.6,0.5-0.9,0.9
		c-0.3,0.4-0.7,0.9-1,1.3c-0.3,0.5-0.6,0.9-0.9,1.3c-0.3,0.4-0.4,0.8-0.5,1.1c-0.1,0.3-0.2,0.7-0.2,1.2c-0.1,0.5-0.1,1-0.1,1.4
		c0,0.5,0,1,0,1.4c0,0.5,0,0.8,0.1,1.1c0.1,0.4,0.3,0.9,0.7,1.4c0.4,0.5,0.8,1,1.3,1.5c0.5,0.5,1,0.9,1.5,1.2c0.5,0.4,1,0.5,1.3,0.6
		c0.7,0.1,1.3,0.1,1.8,0c0.4-0.2,1-0.3,1.8-0.5c0.1-0.3,0.1-0.3,0.1-0.2c0,0.1,0,0,0.1-0.2c0.1-0.1,0.1-0.3,0.2-0.4
		c0.3,0.1,0.4,0.2,0.4,0.2c-0.1,0,0-0.1,0.3-0.2l0.2-0.1c-0.1,0-0.2,0.1-0.2,0.1c0,0,0,0,0.1-0.1c0.3-0.2,0.6-0.4,0.8-0.5
		s0.4-0.3,0.5-0.5c0.2-0.2,0.3-0.4,0.4-0.6c0.1-0.2,0.3-0.5,0.5-0.8l0.3-0.5c0.1-0.1,0.2-0.2,0.2-0.2c0.1,0,0,0-0.3,0l0-0.4
		c0.3-0.1,0.5-0.2,0.5-0.2c0,0,0-0.2,0.1-0.5c0-0.2,0-0.4,0-0.8c0-0.4,0-0.8,0-1.2c0-0.4,0-0.8,0-1.2c0-0.4,0-0.7,0-0.8
		c0.1-0.3,0.1-0.4,0-0.3c-0.1,0.1-0.1,0.1,0-0.1l0.1-0.7c0-0.5-0.1-0.9-0.3-1.2c-0.2-0.3-0.3-0.6-0.4-0.9c-0.1-0.3-0.1-0.6-0.1-0.8
		c0-0.2,0-0.3,0-0.5c0-0.1,0-0.2,0-0.3c0-0.1-0.1-0.2-0.1-0.4l-0.7-2c-0.2-0.4-0.4-0.9-0.5-1.5c-0.1-0.6-0.3-1.1-0.5-1.6
		c-0.1-0.3-0.2-0.5-0.1-0.5c0,0,0-0.2-0.1-0.4c-0.1-0.4-0.2-0.8-0.5-1.2c-0.3-0.3-0.4-0.6-0.3-0.7l-4.2,1.6
		c-0.2,0.1-0.3,0.2-0.4,0.2c-0.1,0-0.3,0-0.7,0l-3.8-0.3c-0.7,0-1.2,0-1.6,0c-0.4,0-0.8-0.2-1.3-0.7l-0.3-0.3
		c-0.4-0.4-0.7-0.8-1-1.4c-0.2-0.5-0.5-1-0.7-1.5c-0.2-0.4-0.3-0.7-0.3-0.9c0-0.2-0.1-0.5-0.2-0.9l-0.2-1.2c0-0.2,0-0.3,0-0.2
		c0,0.1,0,0.1,0-0.1c-0.2-0.6-0.2-1-0.3-1.1c0-0.2,0-0.3,0-0.4c0-0.1,0-0.1,0.1-0.1c0,0,0-0.1,0-0.4c0-0.2-0.1-0.3-0.1-0.4
		c-0.1,0-0.2-0.1-0.2-0.1c-0.1-0.1-0.2-0.2-0.3-0.2c-0.1-0.1-0.1-0.2-0.1-0.3l0-3.1c0.1-0.6,0.2-1.1,0.4-1.5
		C44.2,132.6,44.3,132.1,44.2,131.5z M59.5,168.4c0.1,0.2,0.1,0.3,0.1,0.3c0,0,0,0,0.3,0.1c-0.1-0.1-0.2-0.2-0.2-0.2
		C59.7,168.5,59.6,168.4,59.5,168.4z M61.9,167.3C61.9,167.3,61.9,167.3,61.9,167.3L61.9,167.3z"/>
	<path d="M86,131.9c0,0.2,0,0.3-0.2,0.4c-0.2,0.1-0.3,0.3-0.3,0.5c-0.1,0.5-0.4,1-0.9,1.5c-0.5,0.5-0.9,1-1.2,1.4
		c-0.2,0.3-0.3,0.5-0.5,0.7c-0.1,0.2-0.3,0.5-0.5,0.7l-0.4,0.5c-0.1,0.1-0.1,0.3-0.1,0.3c0,0.1,0,0.2-0.1,0.3
		c-0.1,0.2-0.2,0.4-0.4,0.5c-0.1,0.1-0.3,0.3-0.4,0.5c-0.1,0.2-0.1,0.2-0.1,0.2c0-0.1,0,0,0.1,0.4c-0.1,0.1-0.2,0.1-0.3,0.2
		c0,0.1-0.1,0.1-0.1,0.3c-0.1,0.1-0.1,0.3-0.3,0.5c-0.1,0.2-0.3,0.5-0.6,0.8c-0.3,0.4-0.5,0.7-0.6,0.9c-0.1,0.2-0.1,0.5,0.3,1
		c0.3,0.5,0.6,0.9,0.9,1.2c0.3,0.4,0.6,0.7,1.1,0.9c0.5,0.3,1,0.3,1.6,0.1c0.6-0.2,1.2-0.4,1.7-0.7c0.3-0.2,0.5-0.3,0.6-0.3
		c0.1-0.1,0.3-0.2,0.5-0.3c0.8-0.5,1.4-1,1.9-1.4c0.5-0.4,0.9-0.9,1.3-1.3c0.4-0.5,0.7-1,1.1-1.6c0.4-0.6,0.8-1.3,1.3-2.1l0.1-0.2
		l0-0.1l3.1-5.4l0.3-0.4c0.1-0.4,0.3-0.7,0.5-1c0.2-0.3,0.3-0.6,0.5-0.9l1.7-2.7c0.2-0.2,0.3-0.3,0.3-0.4c0.1-0.1,0.2-0.2,0.4-0.3
		c0.2,0.3,0.2,0.4,0.3,0.4c0,0,0,0.1-0.1,0.5l-1.4,3.9l0,0.1c0,0,0,0.1,0,0.1l-0.4,1c-0.3,0.5-0.5,1-0.7,1.5
		c-0.2,0.4-0.4,0.9-0.7,1.4l-0.7,1.4l-0.2,0.4l-0.2,0.4c-0.1,0.2-0.2,0.4-0.1,0.4c0,0-0.1,0.1-0.4,0.2c0,0.3,0,0.6-0.1,0.7
		c-0.1,0.2-0.2,0.4-0.4,0.6l-2.2,3.4c-0.2,0.2-0.3,0.4-0.4,0.5c-0.1,0.2-0.3,0.3-0.4,0.6c-0.2,0.2-0.3,0.4-0.5,0.5
		c-0.2,0.1-0.3,0.3-0.5,0.4c-0.2,0.2-0.6,0.5-1.1,1s-0.9,0.7-1.2,0.8l0.1,0.3l0.8-0.5c-0.1,0.2-0.2,0.4-0.4,0.5
		c-0.1,0.1-0.4,0.2-0.7,0.3c-0.3,0.1-0.5,0.2-0.7,0.3c-0.1,0.1-0.3,0.2-0.6,0.3c-0.5,0.3-0.9,0.4-1.2,0.6c-0.3,0.1-0.7,0.2-1,0.4
		c-0.3,0.1-0.6,0.2-0.9,0.3s-0.7,0.2-1,0.3c-0.7,0.2-1.6,0.3-2.6,0.3c-1,0-1.9-0.2-2.5-0.5c-0.6-0.3-1.2-0.6-1.6-1
		c-0.5-0.4-1-0.8-1.5-1.2l-0.7-0.7c-0.1-0.2-0.2-0.3-0.4-0.5c-0.1-0.2-0.2-0.4-0.4-0.5c-0.3-0.3-0.5-0.5-0.6-0.7
		c-0.1-0.2-0.2-0.5-0.3-0.8c-0.2-0.6-0.4-1.1-0.5-1.6c-0.1-0.5-0.2-1-0.3-1.5c-0.1-0.2-0.1-0.3-0.2-0.3s-0.1-0.2-0.2-0.4
		c0-0.1,0-0.2,0.1-0.3c0.1-0.1,0.1-0.3,0.1-0.5l-0.1-0.7c0-0.9,0.1-1.5,0.3-2s0.4-1,0.6-1.7l1.6-3.5c0.4-0.8,0.9-1.5,1.4-2.1
		c0.5-0.6,1.1-1.2,1.8-1.7c0.2-0.2,0.5-0.4,0.9-0.7c0.4-0.3,0.9-0.6,1.3-0.8c0.4-0.3,0.9-0.5,1.3-0.8c0.4-0.2,0.8-0.3,1-0.4
		c0.4-0.1,0.7-0.1,0.7-0.2c0-0.1,0.3-0.1,0.7-0.2c0.4-0.1,1-0.2,1.7-0.2c0.7,0,1.3,0.2,1.6,0.5l1.1,1.2c0.1,0.2,0.3,0.4,0.4,0.7
		c0.2,0.3,0.3,0.6,0.3,0.8c0,0.1,0.1,0.3,0.1,0.6c0,0.3,0.1,0.6,0.1,0.9c0,0.3,0,0.6,0,0.8c0,0.3,0,0.4,0,0.5
		c-0.2,0.3-0.4,0.6-0.6,1c-0.2,0.3-0.3,0.7-0.2,1C85.9,131.9,85.9,132,86,131.9z M79.2,138.8c0.2-0.3,0.3-0.5,0.4-0.7
		c0.1-0.1,0.2-0.3,0.4-0.6l0.9-1.2c0.1-0.2,0.3-0.4,0.4-0.6c0.2-0.1,0.3-0.3,0.4-0.6c0.2-0.3,0.3-0.6,0.5-0.7
		c0.1-0.2,0.2-0.3,0.3-0.4c0.1-0.1,0.1-0.2,0.2-0.3c0.1-0.1,0.1-0.2,0.2-0.5l0.3-0.6c0.3-0.5,0.5-1,0.5-1.3c0-0.4-0.3-0.8-0.9-1.3
		c-0.4,0.2-0.7,0.3-1,0.6c-0.2,0.1-0.3,0.2-0.4,0.3c-0.1,0.1-0.3,0.1-0.5,0.2l0.1,0.4c-0.4,0.2-0.7,0.4-0.9,0.6
		c-0.2,0.3-0.4,0.5-0.6,0.7c-0.3,0.3-0.4,0.4-0.4,0.4c0,0-0.1,0.1-0.1,0.5c-0.1,0.5-0.2,0.8-0.3,1s-0.2,0.4-0.3,0.5
		c-0.1,0.1-0.2,0.3-0.2,0.5c-0.1,0.2-0.1,0.4-0.1,0.8c0,0.5,0,0.8-0.1,0.9c-0.1,0.1-0.1,0.1-0.2,0.1c0,0-0.1,0-0.1,0.1
		c0,0.1,0.1,0.3,0.2,0.8c0.1,0.2,0,0.3,0,0.4c-0.1,0.1-0.1,0.2,0,0.5c0,0.1,0.1,0.2,0.1,0.3c0.1,0.1,0.1,0.3,0.2,0.5L79.2,138.8z"/>
	<path d="M99.8,121.1c0-0.2,0.1-0.3,0.1-0.3c0.1,0,0.3-0.2,0.8-0.5c0.1-0.1,0.1-0.1,0.1-0.1c0,0,0,0,0.2,0c0.4-0.1,0.6-0.3,0.8-0.4
		c0.1-0.1,0.4-0.3,0.9-0.4l0.3,0.3c0.2,0.2,0.3,0.2,0.3,0.2c0.1,0,0.1-0.1,0.2-0.2c0.1-0.1,0.2-0.2,0.3-0.3c0.1-0.1,0.3-0.1,0.6,0
		l-0.6-0.6l0.8-0.2c0.3,0.6,0.5,0.9,0.6,1c0.1,0.1,0.1,0.1,0.1-0.1c0-0.1-0.1-0.3-0.1-0.5c-0.1-0.2-0.1-0.4-0.1-0.4
		c0.1-0.1,0.2-0.1,0.3,0c0.1,0,0.1,0.1,0.2,0.1c0,0.1,0.1,0.1,0,0.1c0,0,0-0.1-0.1-0.3c0.2,0,0.5,0,0.8-0.1c0.3,0,0.5-0.1,0.8-0.1
		c0.3-0.1,0.5-0.1,0.7-0.1c0.2,0,0.4,0.1,0.6,0.2c0.1-0.2,0.2-0.4,0.3-0.5c0.1-0.2,0.2-0.3,0.4-0.4c0.1,0,0.2,0,0.4,0
		c0.7-0.1,1.3-0.2,1.7-0.3c0.4-0.1,0.8-0.1,1,0.1c0.3,0.1,0.5,0.3,0.6,0.7c0.2,0.3,0.3,0.8,0.5,1.5c0.1,0.3,0.2,0.6,0.2,0.9
		c0,0.2,0,0.5,0,0.7c0,0.2-0.1,0.5-0.1,0.8c0,0.3-0.1,0.7-0.1,1.2l-0.1,0.5l-0.3,2.5c0,0.6-0.1,1.2,0,1.9s0.1,1.4,0.1,2.1
		c0,0.1,0,0.3,0.1,0.5c0,0.2,0.1,0.4,0.1,0.6c0,0.6,0.1,1.3,0.2,2c0.1,0.7,0.4,1.4,0.7,1.9c0.3,0.5,0.6,1.1,0.9,1.6
		c0.3,0.6,0.8,1,1.2,1.3c0.5,0.3,1,0.4,1.4,0.4s0.8-0.3,1.3-0.7l0.9-0.9c0,0,0.1-0.1,0.1-0.1l4.6-7.6c0.1-0.2,0.2-0.3,0.3-0.4
		c0.1-0.1,0.2-0.2,0.3-0.4c0.2-0.2,0.3-0.4,0.3-0.6c0-0.2,0.1-0.4,0.2-0.7l0.2,0l0.2,0.4l0.2-0.5l0.2,0l0,0.6c0,0,0,0.1,0,0.2
		c0,0.1,0,0.2,0,0.3c-0.2,0.3-0.3,0.7-0.4,1c-0.1,0.6-0.3,1.2-0.5,1.7c-0.2,0.5-0.5,1-0.8,1.6c-0.1,0.2-0.1,0.3-0.2,0.4
		c0,0.1-0.1,0.2-0.2,0.4c-0.3,0.8-0.6,1.4-1.1,2c-0.5,0.6-0.9,1.2-1.3,1.9l0,0.1c0,0.1,0,0.1,0,0.1c-0.5,0.9-1.1,1.6-1.8,2.2
		c-0.3,0.3-0.6,0.4-0.8,0.5c-0.2,0.1-0.4,0.1-0.7,0.2c-0.5,0.1-0.8,0.2-0.9,0.3s-0.3,0.3-0.7,0.4c-0.2,0-0.3,0.1-0.3,0.1
		c0,0-0.1,0-0.1,0c0,0-0.1,0-0.2,0c-0.1,0-0.2,0.1-0.3,0.2c-0.2,0.1-0.3,0.2-0.4,0.2c0,0-0.2,0-0.3,0.1c-0.3,0.1-0.6,0.2-0.9,0.2
		c-0.3,0-0.6,0-0.9,0c-0.9,0-1.7-0.1-2.2-0.4c-0.6-0.2-1.2-0.6-1.9-1.1l-0.1,0l-0.5-0.5c-0.1-0.2-0.3-0.4-0.5-0.7
		c-0.2-0.3-0.4-0.5-0.6-0.7c-0.5,0.1-0.7,0.2-0.7,0.2s-0.1,0.2-0.4,0.5c-0.4,0.4-0.8,0.9-1.3,1.3c-0.5,0.4-1,0.8-1.6,1.1
		c-0.6,0.3-1.1,0.5-1.7,0.7c-0.6,0.1-1.2,0.2-1.9,0.2c-0.6-0.1-1-0.1-1.4-0.2c-0.4,0-0.7-0.1-1-0.2c-0.3-0.1-0.6-0.2-0.9-0.3
		c-0.3-0.1-0.7-0.3-1.1-0.6l-0.3-0.2l-0.9-0.9c-0.6-0.5-1-1.1-1.3-1.8c-0.3-0.7-0.4-1.5-0.4-2.2c0-0.5,0-1,0.1-1.4
		c0-0.4,0.1-0.8,0.1-1.2c0-0.4,0.1-0.7,0.2-1.2c0.1-0.4,0.2-0.9,0.3-1.4c0,0,0-0.1,0-0.1l2-3.6c0.2-0.4,0.5-0.8,0.9-1.2
		c0.4-0.4,0.7-0.7,1.1-1c-0.2,0-0.2-0.2-0.2-0.4c0.1-0.2,0.2-0.4,0.3-0.6c0.1-0.2,0.3-0.4,0.5-0.7c0.2-0.2,0.4-0.4,0.5-0.4
		c0.2-0.2,0.3-0.4,0.4-0.6S99.4,121.2,99.8,121.1z M99.8,135c0,0.3,0,0.6,0,1c0,0.4,0.2,0.6,0.5,0.7c0.2,0.1,0.4,0.2,0.5,0.3
		c0.1,0.1,0.1,0.2,0.2,0.4c0,0.1,0.1,0.3,0.2,0.4c0.1,0.1,0.3,0.3,0.5,0.4c0.4,0.2,0.9,0.3,1.5,0.3c0.6,0,1-0.1,1.4-0.4
		c0.2-0.1,0.3-0.2,0.3-0.2c0,0,0,0,0.2-0.1l1.1-1.2c0.2-0.3,0.4-0.6,0.7-0.8c-0.3-0.6-0.5-1.1-0.6-1.5c-0.1-0.4-0.1-0.8-0.1-1
		c0-0.1-0.1-0.4-0.2-1c-0.2-0.6-0.2-1.2-0.2-1.9l0-0.1l0-0.1l0.3-3.7c0.1-0.3,0.1-0.6,0.2-1.1c0.1-0.4,0.2-0.9,0.3-1.3
		c0.1-0.4,0.2-0.8,0.3-1.2c0.1-0.4,0.1-0.6,0-0.8c-0.3,0.3-0.5,0.5-0.8,0.7c-0.3,0.2-0.6,0.4-0.9,0.7c-0.6,0.7-1.2,1.2-1.6,1.6
		c-0.4,0.4-0.7,0.7-1,1c-0.3,0.3-0.5,0.5-0.6,0.7c-0.1,0.2-0.2,0.4-0.3,0.7l-0.7,1.9l0.6,0.1L101,130c-0.1,0.1-0.1,0.1-0.1,0.1
		c0,0,0,0,0,0.1l0,0.1c0,0.3,0,0.4,0,0.4c0,0-0.1,0.1-0.2,0.4c0.4,0,0.5-0.1,0.5-0.1c-0.1-0.1,0,0,0.1,0.2c-0.3,0.1-0.5,0.1-0.6,0.2
		c-0.1,0-0.1,0-0.1,0.1c0,0,0,0.1,0,0.1s0,0.2-0.1,0.3c-0.1,0.1-0.1,0.1-0.1,0.1c0,0,0,0.1-0.2,0.2c-0.3,0.2-0.4,0.3-0.3,0.2
		c0.1-0.1,0.1-0.1,0-0.2c-0.3,0.3-0.5,0.5-0.6,0.6s-0.1,0.1-0.1,0.2c0,0,0,0,0.1,0c0.1,0,0.1,0,0.1,0.1c0.1,0,0.2,0,0.3,0.1
		c0,0-0.1,0.1-0.4,0.2c-0.2,0.1-0.4,0.1-0.5,0.1c-0.1,0-0.1,0.1,0.1,0.4c0.1-0.1,0.2-0.1,0.4-0.2c0.2-0.1,0.3-0.1,0.4-0.1
		c0.3-0.1,0.4-0.1,0.5-0.1c0.1,0,0.2,0.1,0.3,0.3c-0.4,0.1-0.6,0.2-0.6,0.1c0.1,0,0.1,0.1,0,0.3c-0.2,0.1-0.3,0.2-0.3,0.1
		c0-0.1,0.1,0.1,0.2,0.4c0.2-0.1,0.3-0.2,0.3-0.2c0,0,0,0.1,0,0.1c0,0.1,0,0.1,0,0.2c0,0,0.2,0,0.5-0.2l0.1,0.5
		c-0.3,0.2-0.5,0.3-0.4,0.4c0.1,0.1,0.2,0.3,0.3,0.6c-0.2,0-0.3,0-0.4,0c0,0-0.2-0.3-0.4-1L99.8,135z"/>
	<path d="M136.7,144.5c0,0-0.1-0.4-0.4-1c-0.3-0.6-0.6-1.3-1-2.2c-0.3-0.8-0.7-1.6-1-2.4c-0.3-0.8-0.4-1.3-0.5-1.7
		c0-0.5-0.1-0.9-0.2-1.5c-0.1-0.5-0.2-1-0.3-1.5c0-0.2,0-0.4,0-0.5c0-0.1,0-0.2,0-0.2c0,0,0-0.1,0.1-0.2c0-0.1,0.1-0.2,0.2-0.4
		c-0.3,0-0.4,0-0.3-0.1s0.1-0.4,0.1-1l0-1.1c-0.1-0.8-0.1-1.8,0-2.8c0.1-1,0.2-1.9,0.2-2.8c0-0.3,0-0.4,0-0.4c0,0,0-0.1,0.1-0.4
		l0.2-1.5c0.1-0.6,0.1-1.2,0.2-1.9c0-0.6,0.1-1.3,0.2-1.9l0.1-0.6l0.4-2.5l0-0.3c0,0,0-0.1,0-0.1c0,0,0,0,0-0.1
		c0.2-0.7,0.2-1.1,0.1-1.3c-0.1-0.1-0.3-0.1-0.5,0c-0.2,0.1-0.5,0.3-0.8,0.6c-0.3,0.3-0.5,0.5-0.7,0.6c-0.2,0.1-0.4,0.3-0.5,0.4
		c-0.1,0.1-0.3,0.2-0.4,0.4c-0.2,0.2-0.3,0.5-0.5,0.9c-0.2,0.4-0.5,1-0.9,1.7c-0.1,0.2-0.2,0.4-0.3,0.5c-0.1,0.1-0.1,0.3-0.2,0.5
		c0,0.2-0.1,0.3-0.1,0.4c0,0.1,0,0.2-0.1,0.4c-0.1,0.4-0.1,0.7-0.2,0.8c-0.1,0.2-0.2,0.3-0.3,0.5c-0.1,0.2-0.2,0.3-0.2,0.6
		c0,0.2-0.1,0.6-0.1,1.1l-0.2,1.9c-0.1,0.1-0.1,0.2-0.1,0.3c0,0.1,0,0.2,0,0.3c0,0.3,0,0.9,0,1.7c0,0.8,0.1,1.6,0.2,2.4
		c0.1,0.9,0.1,1.7,0.1,2.4c0,0.8,0,1.3-0.1,1.6c-0.4,0.1-0.6,0.1-0.8,0.1c-0.1,0-0.2-0.1-0.3-0.2c-0.1-0.1-0.2-0.1-0.4-0.1
		c-0.2,0-0.6,0.2-1.1,0.4c-0.6,0.3-1.1,0.4-1.6,0.4c-0.4,0-0.9-0.3-1.3-0.8c-0.1-0.1-0.2-0.2-0.2-0.2s-0.1-0.2-0.1-0.3
		c-0.2-0.3-0.3-0.4-0.4-0.5c0-0.1-0.1-0.3-0.3-0.6c-0.1-0.1-0.1-0.3-0.2-0.4c0-0.1-0.1-0.2-0.1-0.2c-0.1,0-0.1-0.1-0.1-0.2
		c0-0.1-0.1-0.2-0.1-0.4l-1.2-3.6c-0.1-0.3-0.1-0.7-0.2-1.4c-0.1-0.7-0.1-1.4-0.2-2.1c-0.1-0.7-0.1-1.4-0.2-2.1
		c0-0.6-0.1-1.1-0.2-1.4c0-0.3-0.1-0.5-0.1-0.6c0-0.1,0-0.3,0-0.6l-0.2-1.1c-0.1-0.5-0.1-1.2-0.2-1.9c0-0.8,0-1.4-0.1-1.9l-0.1-5.3
		c0-0.4,0-0.7,0-0.9c0-0.2,0-0.5,0-1l-0.1-2.4c0-1,0-2.1-0.1-3.2c-0.1-1.1,0-2.1,0.2-3.1c0.1-0.5,0.2-0.9,0.2-1.2
		c0.1-0.3,0.1-0.7-0.1-1.3c1.1-0.5,2-0.4,3,0.4l0.3,0.2c0.7,0.5,1.1,1,1.4,1.4c0.3,0.4,0.5,1,0.6,1.8l0,0.7c0,0,0,0.1,0,0.1l0.1,4.9
		c0.1,0.2,0.2,0.4,0.2,0.4c0,0.1,0,0.2,0,0.4l0,0.5c0,0.3,0.1,0.6,0.2,0.7s0.2,0.4,0.1,0.7l0.3,3.6c0,0.5,0.1,1.1,0.2,1.6
		c0.1,0.5,0.2,1,0.2,1.5c0,0.3,0,0.5,0.1,0.8c0.1,0.2,0.1,0.5,0,0.7c0,0.3,0,0.8,0,1.4c0.1,0.6,0.1,1.1,0.1,1.5l0,0.2l-0.1,0.2
		c-0.1,0.5-0.1,1.1,0.1,1.8c0.1-0.1,0.1-0.2,0.1-0.1c0,0,0,0,0-0.2c0.2-0.7,0.4-1.3,0.7-1.9c0.3-0.6,0.6-1.2,0.8-1.9
		c0.5-1.3,1.3-2.5,2.3-3.5l1.3-1.3c0.3-0.3,0.6-0.6,1-0.9c0.4-0.3,0.8-0.5,1.2-0.7c0.1,0,0.3-0.1,0.4-0.1c0.2-0.1,0.3-0.1,0.4-0.1
		l2.4-0.6c0.8,0,1.3,0,1.5,0.3c0.2,0.2,0.6,0.6,1,1c0.3,0.3,0.4,0.5,0.5,0.9c0,0.3,0.1,0.7,0,1c0,0.3,0,0.5,0.1,0.8
		c0.1,0.3,0.1,0.6,0,0.9c-0.1,0.7-0.1,1.3-0.1,2c0.1,0.7,0.1,1.4,0,2c0,0.4,0.1,0.7,0.1,1c0,0,0,0.1,0,0.2l0,0.2c0,0.1,0,0.2,0,0.1
		s0,0,0,0.2l-0.1,1.6c0.1,0.6,0.1,1.1,0.2,1.7c0,0.5,0.1,1.1,0,1.7c0,0.2,0,0.3,0,0.4c0,0.1,0,0.2,0,0.3c-0.1,0.6-0.1,0.9,0,1.1
		s0.1,0.5,0.1,0.8l-0.1,0.9l0.1,1.6c0,0.4,0,0.8,0,1.2c0,0.5,0.1,0.8,0.2,1.1l0.1,0.3l0.3,2.4c0.1,0.3,0.2,0.6,0.1,0.9s0,0.5,0,0.8
		l0.4,1.1c0.2,0.3,0.3,0.6,0.4,1s0.2,0.7,0.4,0.9c0.2,0.2,0.4,0.3,0.6,0.3c0.2,0,0.5-0.3,0.9-0.8c0.2-0.3,0.5-0.7,0.7-1
		c0.2-0.4,0.4-0.7,0.5-1.1l1.5-5.2c0.2-0.7,0.3-1.4,0.5-1.9c0.1-0.6,0.3-1.1,0.4-1.7c0.1-0.5,0.2-1,0.3-1.6c0.1-0.5,0.1-1.1,0.2-1.7
		c0-0.2,0.1-0.3,0-0.3s0-0.1,0.1-0.2l0.1-0.5c0-0.3,0.1-0.5,0.1-0.5c0,0,0.1-0.1,0.3-0.3l0.2,0.1c0.2,0.3,0.3,0.5,0.2,0.6
		s0,0.3,0.1,0.4c0.1,0.1,0.1,0.2,0,0.1c-0.1-0.1,0,0,0.1,0.2c0.1,0.3,0.1,0.8,0.1,1.7c0,0.9-0.1,1.8-0.2,2.8c-0.1,1-0.2,1.9-0.4,2.8
		c-0.1,0.9-0.3,1.5-0.3,1.8c-0.1,0.6-0.2,1.2-0.3,1.6c-0.1,0.5-0.2,0.9-0.3,1.4c-0.1,0.4-0.3,0.9-0.5,1.3c-0.2,0.4-0.4,1-0.7,1.5
		l0,0.1l0,0.1l-0.2,0.4l-0.2,0.5l-1,1.7c-0.2,0.4-0.5,0.6-0.8,0.8c-0.3,0.2-0.6,0.5-0.8,0.8l-0.4,0.4c-0.1,0.1-0.2,0.1-0.3,0.1
		c-0.1,0-0.2,0.1-0.3,0.2c-0.4,0.2-0.9,0.4-1.7,0.4c-0.7,0.1-1.3,0.1-1.6,0.1c-0.5,0.1-1,0-1.3-0.1l-0.1,0c-0.2,0-0.4-0.3-0.6-0.7
		C137,145.1,136.9,144.8,136.7,144.5z M137.4,145.5c0.1-0.2,0.1-0.3,0.1-0.2c0,0-0.1,0-0.3,0L137.4,145.5z M137.9,144.5
		c-0.1,0-0.2,0-0.3,0c-0.1,0-0.1-0.2,0-0.5c-0.3,0.2-0.5,0.3-0.4,0.3c0.1,0,0.1,0,0.2,0.2l0.1,0.4L137.9,144.5z M138,145.7
		c0.1-0.1,0.2-0.2,0.1-0.2c-0.1-0.1-0.2-0.1-0.3-0.1c-0.1,0-0.2,0-0.3,0.1c-0.1,0.1,0,0.2,0.3,0.4L138,145.7z M137.9,146.2
		c0.1-0.1,0.1-0.2,0-0.2c-0.1,0-0.1,0-0.3,0L137.9,146.2z M138.5,145.4l0-0.1c-0.1,0-0.2,0-0.2-0.1c-0.1,0.1-0.1,0.1-0.1,0.2
		c0,0,0.1,0.1,0.2,0.1L138.5,145.4z M139,144.4c-0.1-0.1-0.2-0.1-0.3-0.1c-0.1,0-0.1-0.2,0-0.5c-0.3,0.2-0.4,0.3-0.4,0.3
		c0.1,0,0.1,0,0.2,0.2l0.1,0.4L139,144.4z M139.1,146c-0.1,0-0.2,0-0.3,0c-0.1,0-0.1-0.2,0-0.5c-0.4,0.2-0.5,0.3-0.4,0.3
		c0.1,0,0.1,0,0.1,0.2l0.1,0.4L139.1,146z M139.5,145c-0.1,0.1-0.1,0.2-0.2,0.2l0-0.5c-0.2,0.1-0.3,0.2-0.3,0.2
		c-0.1,0-0.1,0.1-0.1,0.1c0,0,0,0,0.1,0.1c0,0,0.1,0.1,0.1,0.2l0.1,0.4L139.5,145z M140.2,145.9c-0.1,0-0.2,0-0.3,0
		c-0.1,0-0.1-0.2,0-0.6c-0.4,0.2-0.5,0.3-0.4,0.3s0.1,0,0.1,0.2l0.1,0.4L140.2,145.9z"/>
	<path d="M146.5,99.8c-0.1-0.3-0.1-0.5-0.1-0.6c0-0.1,0-0.2,0-0.4c0.3,0.1,0.4,0.1,0.4,0.1c0,0,0,0,0,0.3l-0.2,0.6L146.5,99.8z
		 M147.4,88.9c0.2-0.5,0.2-1.1,0.3-1.8c0-0.7,0-1.3-0.2-1.8c0.5,0.1,0.9,0.1,1.1,0.1c0.2,0,0.3,0,0.4,0c0.1,0,0.2,0.1,0.3,0.2
		c0.1,0.1,0.4,0.3,0.8,0.7c0.1,0.1,0.1,0.1,0.1,0.1c0,0,0,0,0.1,0.1c0.1,0.1,0.2,0.2,0.4,0.2c0.3,0.3,0.6,0.5,0.7,0.6
		c0.1,0.1,0.2,0.2,0.3,0.2c0,0,0.1,0.1,0.1,0.1c0,0.1,0.1,0.2,0.1,0.4c0.3,0.8,0.5,1.6,0.7,2.4c0.2,0.9,0.3,1.6,0.3,2.4
		c0,0.5,0.1,0.9,0.1,1.1c0.1,0.3,0.1,0.5,0.2,0.7c0.1,0.2,0.1,0.4,0.2,0.7c0.1,0.2,0.2,0.5,0.3,0.9l0.3,2.2c0,0.5,0.1,0.9,0.1,1.1
		c0,0.3,0,0.5,0,0.6c0,0.1,0,0.2-0.1,0.3c0,0.1,0,0.2,0,0.4c0.1,0.3,0.1,0.5,0.2,0.4c0,0.1,0,0.2,0,0.2c0,0.2-0.1,0.4-0.1,0.4
		c-0.1,0.1-0.1,0.2-0.1,0.4l0.3,2.1c0.1,0.8,0.2,1.3,0.4,1.6c0.1,0.2,0.2,0.4,0.2,0.4c0.1,0,0.1,0.1,0.1,0.2c0,0.1,0.1,0.3,0.1,0.8
		c0,0.4,0.1,0.7,0.2,0.9c0.1,0.2,0.2,0.5,0.2,0.8c0.1,0.4,0.1,0.7,0.2,0.8c0.1,0.2,0.1,0.4,0.2,0.7c0,0.1,0,0.2,0,0.3
		c0,0.1,0,0.3,0,0.5l0.1,0.3c0,0,0,0,0,0c0,0,0.1,0.1,0.1,0.3c0.1,0.4,0.2,0.7,0.2,0.9c0,0.2,0,0.5,0,0.8c0,0.3,0.1,0.6,0.2,0.9
		s0.2,0.6,0.2,0.8c0.2,0.6,0.2,1.2,0,1.9c-0.1,0.6-0.2,1-0.1,1.2l0.8,1.4l-1.6,0.6c-0.3,0.2-0.5,0.3-0.7,0.3
		c-0.2,0.1-0.6,0.1-1.1,0.1c-0.6,0-1.2-0.1-1.7-0.3c-0.6-0.2-1.1-0.6-1.4-1c-0.2-0.2-0.3-0.4-0.4-0.5c-0.1-0.1-0.1-0.2-0.1-0.3
		c0-0.1-0.1-0.2-0.1-0.3c-0.1-0.1-0.1-0.3-0.3-0.5c-0.2-0.2-0.2-0.3-0.2-0.3c0,0.1,0,0,0-0.4c-0.1-0.4-0.1-0.6-0.1-0.7
		c0-0.1,0-0.1-0.1-0.2c0,0-0.1-0.1-0.1-0.3c0-0.1-0.1-0.4-0.1-0.9l-1.2-4.1c0-0.6-0.1-1-0.1-1.2c0-0.2-0.1-0.4-0.1-0.4
		c0-0.1-0.1-0.1-0.1-0.2c0,0-0.1-0.2-0.1-0.4c-0.1-0.7-0.1-1.6-0.2-2.6c-0.1-1-0.2-1.9-0.3-2.7c-0.1-0.6-0.2-1-0.1-1.2
		c0-0.2,0.1-0.3,0.1-0.4c0-0.1,0-0.2,0-0.3c0-0.1-0.2-0.4-0.4-0.8c0.1-0.1,0.1-0.1,0.2-0.1c0.1,0,0.2,0,0.2-0.1l0.2-0.2
		c0.1-0.1,0.1-0.2,0-0.3c0-0.1,0-0.2,0.2-0.3l0.4-0.2c-0.1-0.4-0.2-0.6-0.3-0.6c-0.1,0,0-0.2,0.1-0.6c0.1-0.3,0.1-0.4,0.1-0.4
		c0,0,0-0.1,0-0.1c0,0,0-0.1-0.1-0.1c-0.1-0.1-0.1-0.3-0.2-0.6l0.5-0.1c-0.3-0.3-0.5-0.5-0.6-0.5c-0.1-0.1-0.2-0.1-0.1-0.2
		c0-0.1,0-0.1,0.1-0.2c0.1-0.1,0.1-0.3,0.1-0.6c0.4,0,0.6,0,0.6,0c0,0,0-0.2,0.1-0.6c-0.3,0-0.5,0-0.5,0c0,0,0,0,0,0.1
		c0,0,0,0.1,0,0.1s-0.2,0.1-0.5,0.3c0-0.3-0.1-0.5,0-0.6c0-0.1,0.1-0.2,0.1-0.2c0.1,0,0.2,0,0.3,0c0.1,0,0.3,0,0.5,0l-0.1-1.9
		c0.2-0.7,0.2-1.2,0.1-1.5c-0.1-0.3-0.2-0.5-0.3-0.7c0-0.2,0-0.4,0.1-0.5c0.1-0.1,0.1-0.3,0.1-0.5l0-0.4l0-0.2
		c-0.1-0.3-0.1-0.4-0.1-0.5c0,0,0-0.1,0-0.2L147.4,88.9z M146.8,109.6c0,0,0,0.1,0.1,0.2c0.1,0,0.1,0,0.1,0.1c0,0.1-0.1,0.1-0.1-0.1
		L146.8,109.6z M146.9,110c0,0,0,0.1,0.1,0.2c0.1,0,0.1,0.1,0.1,0.2c0,0.1-0.1,0-0.1-0.2L146.9,110z M147.5,112.5L147.5,112.5
		L147.5,112.5L147.5,112.5z M147.7,100.5c0,0.2,0.1,0.2,0.1,0.2c0,0,0-0.1,0-0.2c0.1-0.1,0.1-0.1,0-0.2
		C147.7,100.2,147.6,100.3,147.7,100.5z M147.7,113.5L147.7,113.5L147.7,113.5z M147.7,112.5l0.4-0.1c0.1,0.2,0.1,0.3,0.1,0.4
		c0,0.1,0,0.1,0,0.1c0,0,0,0.1-0.1,0.1c-0.1,0-0.1,0.1-0.2,0.2L147.7,112.5z M148.1,87.5l0.2,0.1l0.1,0.1c-0.1-0.2-0.1-0.3-0.1-0.5
		c-0.1,0-0.2,0-0.4,0L148.1,87.5z M148,114.6c0-0.2,0-0.2,0-0.2c0,0,0,0.1,0.1,0.2c0.1,0,0.1,0.1,0,0.2
		C148.1,114.8,148,114.8,148,114.6z M148.4,115.6c0,0,0,0.1,0.1,0.2c0.1,0,0.1,0,0.1,0.1c0,0.1-0.1,0.1-0.1-0.1L148.4,115.6z
		 M148.8,116.5C148.8,116.5,148.8,116.4,148.8,116.5L148.8,116.5z M149.1,116.6l0.2,0l0.1,0.5l-0.2,0L149.1,116.6z M156.3,131.2
		c-0.2,0-0.4,0-0.8-0.1c-0.4-0.1-0.8-0.2-1.2-0.4c-0.4-0.2-0.8-0.4-1.2-0.6c-0.4-0.2-0.7-0.4-1-0.7c-0.4-0.4-0.7-0.8-1-1.4
		c-0.3-0.6-0.4-1.2-0.3-1.7l0.4-1c0.4-0.7,1-1.3,1.8-1.9c0.8-0.6,1.5-0.8,2.1-0.7c0.6,0.1,1,0.4,1.3,0.7c0.3,0.3,0.6,0.7,1.1,1.1
		c0.5,0.6,0.8,1.3,0.9,2.3c0.1,1,0,1.7-0.3,2.3c-0.2,0.3-0.4,0.7-0.8,1.2C156.9,130.8,156.6,131.1,156.3,131.2z"/>
</g>
</svg>
