<svg id="normal" data-name="Layer 1" xmlns="http://www.w3.org/2000/svg" viewBox="0 0 19 19">
  <title>normal</title>
  <path fill="#60695c" d="M55.75,165.13a9.5,9.5,0,1,0,2.78,6.72A9.44,9.44,0,0,0,55.75,165.13ZM49,180.34a8.5,8.5,0,1,1,8.5-8.5A8.51,8.51,0,0,1,49,180.34Z" transform="translate(-39.53 -162.34)"/>
  <path fill="#60695c" d="M53.68,170L49,174.63,44.39,170a0.5,0.5,0,0,0-.85.35h0a0.5,0.5,0,0,0,.15.35l5,5a0.5,0.5,0,0,0,.71,0l5-5A0.5,0.5,0,1,0,53.68,170Z" transform="translate(-39.53 -162.34)"/>
</svg>
