<svg id="normal" data-name="Layer 1" xmlns="http://www.w3.org/2000/svg" viewBox="0 0 19 19">
  <path  fill="#000000" d="M487.44,133.06a9.5,9.5,0,1,0,2.78,6.72A9.44,9.44,0,0,0,487.44,133.06Zm-6.72,15.22a8.5,8.5,0,1,1,8.5-8.5A8.51,8.51,0,0,1,480.72,148.28Z" transform="translate(-471.22 -130.28)"/>
  <polygon fill="#000000" points="7.5 13.5 7.5 13.5 7.5 13.5 7.5 13.5"/>
  <path fill="#000000" d="M485.37,135.92l-6.65,6.65-2.65-2.65a0.5,0.5,0,0,0-.71.71l3,3a0.5,0.5,0,0,0,.71,0l7-7A0.5,0.5,0,0,0,485.37,135.92Z" transform="translate(-471.22 -130.28)"/>
</svg>
