<svg xmlns="http://www.w3.org/2000/svg"><defs><style>.cls-1{fill:#010101}</style><style>.cls-1{fill:#010101}</style><style>.cls-1{fill:#010101}</style><style>.cls-1{fill:#010101}</style></defs><symbol id="company-logo" viewBox="0 0 600 180"><path class="st0" d="M195.8 108.2c-.2.6-.3 1.3-.3 1.7 0 .2 0 .5.1.6.1.1.2.1.2.1 1.3 0 4.4-1.9 8.5-6.7.4-.4 1-.6 1.4-.6.6 0 1.4 0 1.4.6 0 .5-.2 1-1 2.1-4.8 5.5-9.2 9-12.2 9-1.9 0-3.2-.6-3.9-1.8-.4-.6-.6-1.2-.7-2-2 2.2-4.4 3.4-6.8 3.4-3.9 0-7.3-3.4-7.3-7.8 0-2 .5-3.8 1-5.6 3.8-11.8 16.9-16.1 20.6-10.6 3.8-7.4 8.1-17.8 6.8-27.8-.3-2.8 6.4-3.8 6.8-2.7 4.3 11.1-11.3 37-14.6 48.1zm-1.7-11.8c-.4-10.3-12.9-.4-12.9 9.5 0 2.4 1 4.8 3.2 4.8 1.8 0 4.6-2.6 6.2-6.3l.1-.3c.7-1.9 1.5-3.6 2.2-5 .4-1.1.9-2 1.2-2.7z"/><path class="st0" d="M232.4 103.9c0 .6-.4 1.4-1.2 2.5-.7 1-4.2 4.4-7.2 4.4-1 0-2-.2-2.9-.5-3.2 3.1-7 4.6-10.3 4.6-5.1 0-8.1-4-8.1-9 0-8.1 7.4-17.4 15.5-17.4h.6c1.4.1 4.5.5 4.6 2.6 0 1.6-1.4 2-2.7 2h-.4c-.3 0-.7-.1-1-.1-1.7 0-3.6.4-5.4 1.6-2.8 2-4.8 5.7-5.1 8.6-.1.4-.1.8-.1 1.1 0 3.8 2.3 6.7 5 6.7 1.4 0 3.1-.8 4.5-2.2-2.2-2-3.1-4.2-3.1-6.2 0-4.6 4.6-8.6 7.9-8.6 1.9 0 3.4 1.3 3.4 4.5 0 2.9-.6 5.4-2.6 8.3 2.7.8 4-.6 6.1-3.1.3-.5.8-.7 1.4-.7.7 0 1.1.2 1.1.9zm-10.8-3.1c0-1.4-.5-2-1-2-.7 0-1.5 1-1.5 2.5 0 1 .4 2.4 1.5 4 .6-2 1-3.4 1-4.5z"/><path class="st0" d="M260.4 104c0 .6-.2 1-.8 1.8l-.1.1c0 .1-.1.1-.2.2l-.1.1-.2.2c-4.6 5.5-9.4 8.3-12.3 8.3-3.1 0-4.6-1.8-4.6-4.7 0-.5 0-1 .1-1.5-3.3 3.8-6.4 6.2-9.4 6.2-.5 0-.9-.1-1.4-.2-2-.6-3-2.2-3-4.6 0-1 .2-2.1.6-3.1 1.4-5 3.4-9.8 4.8-13.6.3-.8.4-1.1.8-1.9 1-1.9 3.7-2.9 5.4-2.9h.5c.8.2 1 .4 1 .7 0 .3-.2.6-.3 1 0 .1-.1.2-.1.2l-2.5 6.5c-1.2 3.4-2.6 7.5-3.7 11-.2.6-.3 1.2-.3 1.7 0 .8.2 1.2.7 1.2 1.8 0 6.4-5.6 9.3-10.5 1-2.6 1.9-5 2.7-7.1.3-.8.3-1.1.7-1.9 1.1-1.9 3.8-2.9 5.4-2.9h.5c.8.2 1 .4 1 .8 0 .3-.2.7-.3 1.2l-2.5 6.5c-1.3 3.4-2.7 7.5-3.8 11-.2.6-.3 1.2-.3 1.7 0 .6.2 1.1.9 1.1 1.3 0 4.6-2.2 8.6-7 .4-.4 1-.6 1.4-.6 1 .2 1.5.4 1.5 1z"/><path class="st0" d="M287.9 105.7c-3.1 3.9-8.8 5.7-12.6 4.4-3.1 3-7 4.8-10.6 4.8-4.6 0-8.7-3.2-8.5-10.8.6-18.5 13.8-44.1 18.9-44.1.6 0 2 .6 3.4 1.7 1 .8 1.7 1.5 1 2.1-7.4 6.9-15.4 25.4-17.5 35.4-1 4.7-1 12.4 5.7 12.1 1.6-.1 3.3-.9 4.7-2.4-10.6-3.7-11.3-17.6-1.4-20.1.6-.2 1-.2 1.6-.2 4.1 0 8.3 3.7 8.3 8.9 0 2.7-.9 6.6-2.8 9.4 2.7 1.1 6.1-.8 7.9-3 .3-.4.9-.7 1.4-.7 1.4-.1 1.1 1.7.5 2.5zm-18.3-4.4c.8 2 3 3.3 4.9 4.2 5.2-13-8.9-14.4-4.9-4.2z"/><path class="st0" d="M309.4 63.6c0 .2-.1.3-.2.5-7.8 7.2-13.4 21.6-16.6 32.6l-2.1 7.5c-.5 1.8-1.1 5.8 1.4 5.8 1.2 0 2.6-.7 7-6 .5-.4 1-.6 1.5-.6s1 .2 1 1c0 .5-.4 1.3-1.3 2.2-4.5 5.3-6.9 8.3-10 8.3-4.4 0-6-4-5.8-7.9.5-10.2 13.3-46.6 20.6-46.6.6 0 2 .7 3.4 1.8.6.4 1.1 1 1.1 1.4z"/><path class="st0" d="M324 104.2c0 .6-.2 1.1-1 2.2-4.2 5.1-10.2 8.6-15.9 8.6-5.6 0-9.7-3.8-9.7-9.3 0-8.4 6.8-17 15.8-17 2.6 0 4.8 1.1 5.8 2.9.6.8.7 1.8.7 2.8 0 1.3-.3 2.6-.8 3.8-2.2 5.6-7 9.5-13.8 10.2 1 1.5 2.9 2.2 4.6 2.2 3.5 0 7.9-1.8 11.9-6.6.3-.5.9-.7 1.4-.7.6 0 1 .3 1 .9zm-20.6-.1c0 .5.1 1 .2 1.4.2 0 .2-.1.4-.1 3.1-.7 6.6-1.4 8.3-4.8.8-1.5 1.1-3.4 1.1-4.9 0-2.2-.7-3.9-2.3-3.9-.4 0-.9.2-1.4.4-3.2 1.7-6.3 7.7-6.3 11.9z"/><path class="st0" d="M355.8 104.7h.8c.3 0 .6 0 .8.2.3.3-.6 2-2 3.5-7.4 8.2-14.7 11.9-23.5 9.7-6.8-1.8-10.9-9.8-10.9-16.8-.1-13.7 7.3-31.7 21-39.6 3.1-1.8 5.3-2.7 8.2-2.7 18.7 0 7.5 34.2-5.9 35.1-6.6.5-9.8-7-8.4-6.1 3 2.2 8.2.8 10.8-1.8 10-9.8 10.8-24.5 3.8-24.4-16.9.2-35.1 52.6-11.2 51.5 8.2-.3 11.5-4 15.3-8.1.5-.4.6-.5 1.2-.5z"/><path class="st0" d="M385.9 104.1c0 .5-.3 1.4-1.3 2.3-4.6 5.6-9.2 8.5-12.2 8.5-2.3 0-3.9-1-4.4-3.3-1.9 2.2-4.2 3.3-6.6 3.3-3.8 0-7.2-3.4-7.2-7.8 0-2 .5-3.8 1-5.6 2.7-8.4 10.1-12.9 15.4-12.9 2.2 0 4.2.8 5.1 2.5 1.2-1 2.8-1.9 3.8-1.9 1.2 0 1.8.6 1.8 1.4 0 1-1 2.9-1.9 5-1.6 3.4-3.6 8-5 12.6-.2.6-.4 1.3-.4 1.7 0 .7.3 1.1.9 1.1 1.3 0 4.4-2.2 8.5-7 .6-.6 1.2-.6 1.6-.6.6-.1.9.1.9.7zm-13-8.1c-.2-2.5-1.4-3.4-2.8-3.4-3.8 0-9.8 6.9-9.8 13.8 0 2.4.9 4.8 3.1 4.8 1.4 0 3.4-1.5 5-4.2 1.3-4.5 3.4-8.6 4.3-10.6l.2-.4z"/><path class="st0" d="M391.7 93.3c2.7-2.8 5.4-4.2 8-4.2 4.5 0 6.6 4.2 6.6 7.8 0 3.4-1.4 7.6-3.2 10.3 1.8.2 5-1.6 5.9-3.4.4-.4.8-.6 1.3-.6 2.5 0 1.4 1.6.5 2.8-2 2.6-6.2 4.6-10.2 4.3-3.1 4.2-7.4 4.3-9.7 4.3-9.4 0-4.1-10.9 6.7-8.3 1.8-2.4 4.6-12.6-.8-12.6-2.6 0-5.8 3.4-8.2 7.6-4.6 12.5-8.5 26-6 38.7 0 .2.1.3-.1.4-.2.4-1 .6-1.9.6-1.8 0-3 0-3.5-.4-4.1-2.6-.8-17.1.5-21.5 2.8-10.2 8-26.7 9.7-29 1-1.4 6.9-3 6.2-1.4-.6 1.4-1.2 3-1.8 4.6zm3.5 16.7c-4.4-1-7.2 1.4-5 1.9 1.9.6 4-.2 5-1.9z"/><path class="st0" d="M417.5 93.3c2.7-2.8 5.4-4.2 8-4.2 4.5 0 6.6 4.2 6.6 7.8 0 3.4-1.4 7.6-3.2 10.3 1.8.2 5-1.6 5.9-3.4.4-.4.8-.6 1.3-.6 2.5 0 1.4 1.6.5 2.8-2 2.6-6.2 4.6-10.2 4.3-3.1 4.2-7.4 4.3-9.7 4.3-9.4 0-4.1-10.9 6.7-8.3 1.8-2.4 4.6-12.6-.8-12.6-2.6 0-5.8 3.4-8.2 7.6-4.6 12.5-8.5 26-6 38.7 0 .2.1.3-.1.4-.2.4-1 .6-1.9.6-1.8 0-3 0-3.5-.4-4.1-2.6-.8-17.1.5-21.5 2.8-10.2 8-26.7 9.7-29 1-1.4 6.9-3 6.2-1.4-.6 1.4-1.3 3-1.8 4.6zM421 110c-4.4-1-7.2 1.4-5 1.9 1.9.6 4-.2 5-1.9z"/><path class="st0" d="M465.2 104c0 .6-.2 1-.8 1.8l-.1.1c0 .1-.1.1-.2.2l-.1.1-.2.2c-4.6 5.5-9.4 8.3-12.3 8.3-3.1 0-4.6-1.8-4.6-4.7 0-.5 0-1 .1-1.5-3.3 3.8-6.4 6.2-9.4 6.2-.5 0-.9-.1-1.4-.2-2-.6-3-2.2-3-4.6 0-1 .2-2.1.6-3.1 1.4-5 3.4-9.8 4.8-13.6.3-.8.4-1.1.8-1.9 1-1.9 3.7-2.9 5.4-2.9h.5c.8.2 1 .4 1 .7 0 .3-.2.6-.3 1 0 .1-.1.2-.1.2l-2.5 6.5c-1.2 3.4-2.6 7.5-3.7 11-.2.6-.3 1.2-.3 1.7 0 .8.2 1.2.7 1.2 1.8 0 6.4-5.6 9.3-10.5 1-2.6 1.9-5 2.7-7.1.3-.8.3-1.1.7-1.9 1.1-1.9 3.8-2.9 5.4-2.9h.5c.8.2 1 .4 1 .8 0 .3-.2.7-.3 1.2l-2.5 6.5c-1.3 3.4-2.7 7.5-3.8 11-.2.6-.3 1.2-.3 1.7 0 .6.2 1.1.9 1.1 1.3 0 4.6-2.2 8.6-7 .4-.4 1-.6 1.4-.6 1 .2 1.5.4 1.5 1z"/><path class="st0" d="M487.6 104.2c0 .6-.1 1.1-1 2.2-4.2 5.1-10.2 8.6-15.9 8.6-5.6 0-9.7-3.8-9.7-9.3 0-8.4 6.8-17 15.8-17 3.8 0 6.6 2.2 6.6 5.4 0 5.1-4.3 6.9-7 6.9-1.3 0-2.2-.3-2.2-1 0-.2.1-.4.2-.6 1-1.1 2-4 2-5.8 0-1-.3-1.8-1-1.8-4.3 0-8.1 7.1-8.1 12.6 0 4 2.6 6.2 6.2 6.2 3.5 0 7.8-1.8 11.8-6.6.4-.5 1-.7 1.4-.7.5 0 .9.3.9.9z"/><path class="st0" d="M510.2 104.2c0 .6-.1 1.1-1 2.2-4.2 5.1-10.2 8.6-15.9 8.6-5.6 0-9.7-3.8-9.7-9.3 0-8.4 6.8-17 15.8-17 3.8 0 6.6 2.2 6.6 5.4 0 5.1-4.3 6.9-7 6.9-1.3 0-2.2-.3-2.2-1 0-.2.1-.4.2-.6 1-1.1 2-4 2-5.8 0-1-.3-1.8-1-1.8-4.3 0-8.1 7.1-8.1 12.6 0 4 2.6 6.2 6.2 6.2 3.5 0 7.8-1.8 11.8-6.6.4-.5 1-.7 1.4-.7.5 0 .9.3.9.9z"/><path class="st0" d="M510.1 114.9c-3.2 0-4.6-1.8-4.6-4.7 0-1 .2-2.1.6-3.1 1.4-5 3.4-9.8 4.8-13.6.3-.8.3-1.1.8-1.9 1-1.9 3.7-2.9 5.4-2.9h.5c.8.2 1 .3 1 .7 0 .3-.2.8-.4 1.3l-2.5 6.5c-1.3 3.4-2.6 7.5-3.7 11-.2.6-.3 1.2-.3 1.7 0 .6.2 1.1.8 1.1 1.3 0 4.6-2.2 8.6-7 .4-.4 1-.6 1.5-.6.6 0 1 .2 1 .9 0 .6-.4 1.2-1.3 2.3-4.5 5.5-9.2 8.3-12.2 8.3zm3.3-32.3c0-2.5 2.6-4.9 5.2-4.9 1.9 0 3.4 1.1 3.4 3.2 0 2.2-2.4 4.8-5.2 4.8-1.9 0-3.4-1.3-3.4-3.1z"/><path class="st0" d="M548.8 104.4c0 .5-.4 1.3-1.3 2.2-4.6 5.5-8.2 8.3-11.1 8.3-3 0-4.5-1.8-4.5-4.6 0-1 .2-2.1.5-3.2 1.8-6.3 4.6-10.2 4.6-11.4 0-.3-.2-.5-.4-.5-1.4 0-6.2 4.1-9.2 8.1l-.9 2.2c-.2.4-.4.8-.5 1.2l-1.4 3.9c-1 2.6-3.7 4.3-5.4 4.3-.9 0-1.4-.4-1.4-1.4 0-.3.1-.7.2-1.3 2.2-6.4 4.3-12.5 6.7-18.8.3-.8.3-1.1.8-1.9 1-1.9 3.7-2.9 5.4-2.9h.5c.8.2 1 .3 1 .7 0 .3-.2.8-.4 1.3l-2.1 5.4c4.1-3.9 9.1-6.6 12.1-6.6 1.4 0 2.5.7 2.5 2.2 0 .9-.4 2.3-1.2 3.9-1.6 3.4-3.8 8.2-5 12.6-.2.7-.7 2.4.6 2.4 1.4 0 3.3-1.8 7.4-6.6.4-.4 1-.6 1.4-.6.7.1 1.1.3 1.1 1.1z"/><path class="st0" d="M574.5 103.9c0 .6-.4 1.4-1.2 2.5-.7 1-4.2 4.4-7.2 4.4-1 0-2-.2-2.9-.5-3.2 3.1-7 4.6-10.3 4.6-5.1 0-8.1-4-8.1-9 0-8.1 7.4-17.4 15.5-17.4h.6c1.4.1 4.5.5 4.6 2.6 0 1.6-1.4 2-2.7 2h-.4c-.3 0-.7-.1-1-.1-1.7 0-3.6.4-5.4 1.6-2.8 2-4.8 5.7-5.1 8.6-.1.4-.1.8-.1 1.1 0 3.8 2.3 6.7 5 6.7 1.4 0 3.1-.8 4.5-2.2-2.2-2-3.1-4.2-3.1-6.2 0-4.6 4.6-8.6 7.9-8.6 1.9 0 3.4 1.3 3.4 4.5 0 2.9-.6 5.4-2.6 8.3 2.7.8 4-.6 6.1-3.1.3-.5.8-.7 1.4-.7.6 0 1.1.2 1.1.9zm-10.9-3.1c0-1.4-.5-2-1-2-.7 0-1.5 1-1.5 2.5 0 1 .4 2.4 1.5 4 .7-2 1-3.4 1-4.5z"/><g><path class="st1" d="M57.9 70.6s-4.8 60.9 52.8 64.5c0 0-9.1 8.5-30.7 10s-43.8-12.6-49.4-72.4l27.3-2.1z"/><path class="st0" d="M151.4 71.3c-6.8-3.3-13.2-1.7-18 1.1 0-1.4-.1-2.3-.1-2.6-.1-2.2-2-4-4.2-4h-1.4c.3-2.9.3-5.7-.2-8.6-3-17.8-20.4-29.5-21.1-30-1.9-1.3-4.4-.8-5.7 1-5.4 7.5-15.4 8.4-25.9 9.4-8.9.9-18.2 1.7-25.6 6.7-8 5.3-12.8 11.8-14.1 19.3-.1.7-.2 1.5-.3 2.2H31c-2.2 0-4.1 1.8-4.2 4-.1 2.5-2.6 61.9 36.8 79.3.5.2 1.1.4 1.7.4h29.5c.6 0 1.2-.1 1.7-.4 12.4-5.5 20.6-15.1 26.1-25.8 23.1-2 34-17.6 36.4-30.4 1.9-10-1.1-18.4-7.6-21.6zM43.3 65.1c.9-5.1 4.4-9.8 10.5-13.8 5.7-3.8 13.5-4.5 21.7-5.3 10.1-1 21.3-2 29.1-9.6 4.5 3.7 12.8 11.9 14.6 22.2.4 2.4.4 4.8 0 7.2h-76c0-.2.1-.4.1-.7zm50.6 76H66.2c-27.9-13.1-30.8-53.8-31-66.8h89.7c-.2 12.9-3 53.7-31 66.8zm56.9-49.7c-1.7 9-9 19.8-24.2 22.9 4-11 5.7-22.3 6.4-30.7 0-.1.1-.1.2-.1.3-.3 7-8.2 14.6-4.5 2.8 1.3 4 6.5 3 12.4z"/></g></symbol><symbol id="danger" viewBox="0 0 19 19"><path d="M10.25 9.5l4.08-3.63a.5.5 0 1 0-.66-.75L9.5 8.83 5.33 5.12a.5.5 0 1 0-.66.75L8.75 9.5l-4.08 3.63a.5.5 0 0 0 .66.75l4.17-3.71 4.17 3.71a.5.5 0 1 0 .66-.75z"/><path d="M16.22 2.78A9.5 9.5 0 1 0 19 9.5a9.44 9.44 0 0 0-2.78-6.72zM9.5 18A8.5 8.5 0 1 1 18 9.5 8.51 8.51 0 0 1 9.5 18z"/></symbol><symbol id="list" viewBox="0 0 20 20"><title>list</title><path class="cls-1" d="M317.66 258a.5.5 0 0 0-.38-.18h-.51c-5 0-9 0-12 .7a8.74 8.74 0 0 0-3.72 1.74 6.69 6.69 0 0 0-2.09 3.43 8.46 8.46 0 0 0 .14 4.44 6 6 0 0 0 .91 1.8 13.72 13.72 0 0 0-2.27 7.4.5.5 0 0 0 1 0 14 14 0 0 1 4.35-9.65 16 16 0 0 1 3.82-2.85 7.69 7.69 0 0 1 3.33-1 .5.5 0 0 0 0-1 8.53 8.53 0 0 0-3.79 1.12 17 17 0 0 0-4.06 3 17.93 17.93 0 0 0-1.77 2.07 5 5 0 0 1-.56-1.21 7.51 7.51 0 0 1-.13-3.87c1.43-5.12 6.86-5.14 16.72-5.14-1.17 6.29-3.37 10.36-6.52 12.1a8.1 8.1 0 0 1-6.93.28 5.37 5.37 0 0 1-.7-.35.5.5 0 0 0-.51.86 6.34 6.34 0 0 0 .83.42 9.92 9.92 0 0 0 2.86.69h.81a8.39 8.39 0 0 0 4.11-1.05 11.13 11.13 0 0 0 4.14-4.3 27.77 27.77 0 0 0 3-9.09.5.5 0 0 0-.11-.41z" transform="translate(-297.78 -257.81)"/></symbol><symbol id="logo-2" viewBox="0 0 72.21 61.2"><title>logo-2</title><path d="M.6 18.9a.7.7 0 0 1-.46-.12.54.54 0 0 1-.13-.42 3.94 3.94 0 0 1 .06-.45l.15-.72q.36-1.92.63-2.88a7 7 0 0 0 .24-1.23.67.67 0 0 0-.15-.47 4.14 4.14 0 0 0-.63-.49 8.64 8.64 0 0 0 1-.59 1.19 1.19 0 0 0 .41-.51 12.59 12.59 0 0 0 .4-1.27q.75-2.49 2.31-7.47l.2-.52a2.46 2.46 0 0 1 .52-.85 1.26 1.26 0 0 1 1-.54.6.6 0 0 1 .6.57 5 5 0 0 1 .06.6 9.15 9.15 0 0 1-.26 1.64q-.18.69-.48 2.07l-.62 2.61q-.41 1.65-.71 2.82a2.7 2.7 0 0 1-.09.41 1.26 1.26 0 0 0-.06.38.35.35 0 0 0 .21.36 2.85 2.85 0 0 0 .84.12 2.35 2.35 0 0 1 .78.18l.34.09a1.59 1.59 0 0 0 .41.06.76.76 0 0 0 .51-.18 1.5 1.5 0 0 0 .51-.65 9.52 9.52 0 0 0 .36-1.07l.15-.63.63-2q.51-1.65.85-2.7a15.29 15.29 0 0 1 .85-2.07 4 4 0 0 1 .45-.84 1.4 1.4 0 0 1 1.35-.6.46.46 0 0 1 .48.51 1.29 1.29 0 0 1-.09.45q-.39 1.47-.72 3.12-.12.45-.51 2.16t-.87 3.21a43.48 43.48 0 0 0-1.29 5.19 3 3 0 0 1-.65 1.37 2.74 2.74 0 0 1-1.28.71 2 2 0 0 1-.57.09.69.69 0 0 1-.78-.77 1.87 1.87 0 0 1 0-.36q.39-2 .69-3.18a2.63 2.63 0 0 0 .08-.34.43.43 0 0 0-.54-.42 4.28 4.28 0 0 1-.69-.14l-.66-.17a4 4 0 0 0-.75-.09.61.61 0 0 0-.52.23 3.48 3.48 0 0 0-.37.94 11.48 11.48 0 0 0-.3 1.29q-.27 1.11-.42 1.59a3.34 3.34 0 0 1-.78 1.36 2.44 2.44 0 0 1-1.29.62 2.05 2.05 0 0 1-.4-.01zM13.04 16.83a2.08 2.08 0 0 1-.67-1.68 6.12 6.12 0 0 1 .12-1 15.84 15.84 0 0 1 1.18-3.45 10.73 10.73 0 0 1 2.11-3 12.21 12.21 0 0 1 3.6-2.46A2.38 2.38 0 0 1 20.46 5a2.49 2.49 0 0 1 1.41.33 1.07 1.07 0 0 1 .48.93 3.23 3.23 0 0 1-.57 1.62 5.18 5.18 0 0 1-1.11 1.38 19.61 19.61 0 0 1-4.65 3.44 1.91 1.91 0 0 0-.58.45 1.53 1.53 0 0 0-.29.6q-.06.21-.18.72a3.92 3.92 0 0 0-.12.87 1 1 0 0 0 .36.87q.48.21 2.1-.73a26.18 26.18 0 0 0 3.43-2.44 21.11 21.11 0 0 0 2.81-2.72l1.35-1.74a2.07 2.07 0 0 1 .39-.36.26.26 0 0 1 .33 0 .26.26 0 0 1 .09.18 1.44 1.44 0 0 1-.27.57 46.18 46.18 0 0 1-3.6 4.08 34.66 34.66 0 0 1-3.54 3.21A6.52 6.52 0 0 1 15 17.4a3 3 0 0 1-1.96-.57zm5.79-6.9a9.66 9.66 0 0 0 2.06-2.13 2.5 2.5 0 0 0 .57-1.17 1.14 1.14 0 0 0-.15-.73.59.59 0 0 0-.51-.25 1.52 1.52 0 0 0-.78.33 10.36 10.36 0 0 0-4.11 5.88 29.79 29.79 0 0 0 2.92-1.93z"/><path d="M21.33 16.53a12.33 12.33 0 0 1 2.4-7 5.88 5.88 0 0 1 2.23-1.71 6.3 6.3 0 0 1 2.69-.78h.33a2.14 2.14 0 0 1 1.71 1.32 7.8 7.8 0 0 1 .39.9 4.67 4.67 0 0 0 .47-.56 3.65 3.65 0 0 1 1-.81 1.39 1.39 0 0 1 .6-.19.44.44 0 0 1 .48.51 1.65 1.65 0 0 1-.06.33 47.36 47.36 0 0 0-1.11 5.22 13.56 13.56 0 0 0-.21 2.19 5.51 5.51 0 0 0 0 .69q.18.15.54-.15a17.23 17.23 0 0 0 1.48-1.63q1.13-1.33 3.73-4.58l1.35-1.74a2.07 2.07 0 0 1 .39-.36.26.26 0 0 1 .42.18 1.44 1.44 0 0 1-.27.57l-1.25 1.77q-2.55 3.36-4.17 5.35a10.46 10.46 0 0 1-2.22 2.25 4.17 4.17 0 0 1-.81.09q-1.71 0-1.71-2 0-.75.09-2l-.87.93q-1.38 1.53-1.74 2a4.13 4.13 0 0 1-1.5 1.17 4.22 4.22 0 0 1-1.8.42 2.84 2.84 0 0 1-1.56-.42 2.22 2.22 0 0 1-1.02-1.96zm8.61-4.08a2.76 2.76 0 0 0 .6-1.44.8.8 0 0 0 0-.24l-.18-.72q0-.09-.17-.67a2.79 2.79 0 0 0-.43-1 1.16 1.16 0 0 0-1-.72 2.39 2.39 0 0 0-1.23.51 4.83 4.83 0 0 0-1.5 1.65 27 27 0 0 0-2 4.62 7.09 7.09 0 0 0-.33 2.07q0 1.26.54 1.26a1.81 1.81 0 0 0 .93-.45 21.41 21.41 0 0 0 4.77-4.87z"/><path d="M42.74 15.32q1.69-2.17 3.17-4.46.15-.24.24-.36l.12-.18 1.35-1.74a2.07 2.07 0 0 1 .39-.36.26.26 0 0 1 .42.18 1.44 1.44 0 0 1-.27.57q-.63.81-1.3 1.88l-.92 1.43q-1.11 1.83-2 3a16.68 16.68 0 0 1-2 2.3 4.49 4.49 0 0 1-1.33 1 3.21 3.21 0 0 1-1.37.33 2.17 2.17 0 0 1-1.45-.52 2.23 2.23 0 0 1-.74-1.48q-.06-.6-.06-.9a8.39 8.39 0 0 1 .39-2.31l.17-.65q1.05-3.84 1.86-6.15.15-.33 1.05-2.73.78-2.19 1-2.7A1.94 1.94 0 0 1 43.23 0a.69.69 0 0 1 .75.81 10.77 10.77 0 0 1-.43 2.06q-.51 1.67-.63 2l-.29.83-.75 2.58q-.3 1-.78 2.64t-.84 2.78a12 12 0 0 0-.71 3.16 1.08 1.08 0 0 0 .39 1 7.27 7.27 0 0 0 2.8-2.54z"/><path d="M56.61 8.4a1.45 1.45 0 0 1-.27.57q-.63.81-1.3 1.88l-.92 1.43q-1.11 1.83-2 3a16.67 16.67 0 0 1-2 2.3 4.51 4.51 0 0 1-1.33 1 3.21 3.21 0 0 1-1.37.33 2.17 2.17 0 0 1-1.46-.52 2.23 2.23 0 0 1-.74-1.48q-.06-.6-.06-.9a8.39 8.39 0 0 1 .39-2.31l.18-.66q1.05-3.84 1.86-6.15.3-.66.84-2.25l.54-1.41h-.93c-.42 0-.49-.12-.49-.2a.61.61 0 0 1 .63-.18h.93a12.24 12.24 0 0 1 .54-1.38A1.94 1.94 0 0 1 51.45 0a.69.69 0 0 1 .75.81 2.67 2.67 0 0 1-.09.63 12.68 12.68 0 0 1-.42 1.44h.93c.38 0 .56.07.54.21a.35.35 0 0 1-.32.13h-1.29l-.73 2.48-.75 2.58q-.3 1-.78 2.64t-.84 2.78a12 12 0 0 0-.72 3.18 1.08 1.08 0 0 0 .39 1 7.28 7.28 0 0 0 2.8-2.52q1.69-2.16 3.17-4.47.15-.24.24-.36l.12-.18 1.35-1.74a2.07 2.07 0 0 1 .39-.36.26.26 0 0 1 .42.15z"/><path d="M60.66 20.1a1.36 1.36 0 0 1-.36-1.11 16.53 16.53 0 0 1 .87-4.53l.38-1.05q.09-.27.48-1.35t.78-2q.39-.93.78-1.68l.06-.12c.06-.16.15-.38.27-.66a1.86 1.86 0 0 0 .18-.69.5.5 0 0 0-.3-.48.54.54 0 0 0-.25-.07 2.88 2.88 0 0 0-1.53 1 33.27 33.27 0 0 0-4 4.58 18.75 18.75 0 0 0-2.54 4.88 7.31 7.31 0 0 1-.66 1.41 1.9 1.9 0 0 1-1.2.84l-.45.06a.46.46 0 0 1-.54-.51 2.61 2.61 0 0 1 .06-.39q.48-2 1.23-4.92l2.46-8.43a17.75 17.75 0 0 1 1.32-3.3 3.84 3.84 0 0 1 .48-.75 1.29 1.29 0 0 1 1.08-.57 1.07 1.07 0 0 1 .3 0 .55.55 0 0 1 .51.6v.24a4.81 4.81 0 0 1-.27 1.2l-2 7.2q0 .15-.17.57a1.55 1.55 0 0 0-.08.75h.12a.48.48 0 0 0 .42-.23 2.16 2.16 0 0 1 .24-.31Q59.46 9 60.55 7.77a7.33 7.33 0 0 1 3.12-2 3.39 3.39 0 0 1 .88-.16 1.31 1.31 0 0 1 .95.33 1.27 1.27 0 0 1 .34 1 2.76 2.76 0 0 1-.09.66 55.2 55.2 0 0 1-1.71 5.76 24.8 24.8 0 0 0-.83 2.73 11 11 0 0 0-.41 2.34.42.42 0 0 0 .15.42q1.32-.48 4.17-4.41t3-4.08l1.35-1.74a2.07 2.07 0 0 1 .39-.36.26.26 0 0 1 .33 0 .26.26 0 0 1 .09.18 1.43 1.43 0 0 1-.27.57q-1.23 1.62-2.58 3.54-3.45 4.77-5.16 6.72a3.66 3.66 0 0 1-2.46 1.14 1.27 1.27 0 0 1-1.15-.31zM6.38 61.2a1.66 1.66 0 0 1-1.41-.69 1.72 1.72 0 0 1-.36-1.05 3.25 3.25 0 0 1 .66-1.71 12.62 12.62 0 0 1 1.6-1.92 22.89 22.89 0 0 1 2.17-1.86l.35-.27.44-.29a3.63 3.63 0 0 0 1.56-1.46 5.08 5.08 0 0 0 .54-2.21l-.51.54-.52.58c-.21.23-.37.42-.5.58a5.25 5.25 0 0 1-1.48 1.28 7 7 0 0 1-1.85.7 3.7 3.7 0 0 1-.78.09 1.74 1.74 0 0 1-1.22-.42 1.34 1.34 0 0 1-.44-1.11 20.53 20.53 0 0 1 .6-4.28 13.48 13.48 0 0 1 1.71-3.88 1.09 1.09 0 0 1 .15-.24 1.36 1.36 0 0 1 1.14-.87.64.64 0 0 1 .75.69 1.61 1.61 0 0 1-.09.51 35.48 35.48 0 0 0-.78 3.69l-.26 1.51a8.61 8.61 0 0 0-.3 1.92 2.73 2.73 0 0 0 0 .48q.09.57.36.57a1.17 1.17 0 0 0 .75-.38 18.51 18.51 0 0 0 3.18-3.51q.93-1.41 1.47-2.36a12.58 12.58 0 0 0 .9-1.93 4.64 4.64 0 0 1 .45-.78.8.8 0 0 1 .36-.33 1.73 1.73 0 0 1 .53-.09.56.56 0 0 1 .63.63q-.15.81-.63 3-.54 2.4-.69 3.3a5.46 5.46 0 0 0 1.85-1.16 16.56 16.56 0 0 0 2-2.08l1.35-1.74a2.1 2.1 0 0 1 .39-.36.26.26 0 0 1 .42.18 1.44 1.44 0 0 1-.27.57l-.69.93a32 32 0 0 1-2.27 2.73 11.08 11.08 0 0 1-2.33 2 5.82 5.82 0 0 0-1 .81 1.91 1.91 0 0 0-.45.9 13.67 13.67 0 0 1-.78 2.29q-.53 1.21-1.37 2.8a7.09 7.09 0 0 1-4.11 3.42 4 4 0 0 1-1.22.28zm.81-1a1.73 1.73 0 0 0 .94-.3 2.5 2.5 0 0 0 .79-.87 13 13 0 0 0 .87-1.86q.36-1 .81-2.4l.54-1.62a23.9 23.9 0 0 0-2.59 1.87 10.69 10.69 0 0 0-1.92 2 5.73 5.73 0 0 0-.72 1.14 1.63 1.63 0 0 0-.12.66 1.38 1.38 0 0 0 .27.83 1.42 1.42 0 0 0 .75.53 1.17 1.17 0 0 0 .38.06z"/><path d="M17.55 52.83a2.07 2.07 0 0 1-.67-1.68 6.14 6.14 0 0 1 .12-1 15.84 15.84 0 0 1 1.18-3.45 10.73 10.73 0 0 1 2.12-3 12.22 12.22 0 0 1 3.6-2.46 2.38 2.38 0 0 1 1.08-.24 2.49 2.49 0 0 1 1.41.33 1.07 1.07 0 0 1 .48.93 3.23 3.23 0 0 1-.57 1.62 5.18 5.18 0 0 1-1.11 1.38 19.61 19.61 0 0 1-4.64 3.44 1.9 1.9 0 0 0-.58.45 1.52 1.52 0 0 0-.29.6c0 .14-.1.38-.18.72a3.93 3.93 0 0 0-.12.87 1 1 0 0 0 .36.87q.48.21 2.1-.73a26.28 26.28 0 0 0 3.43-2.45 21.14 21.14 0 0 0 2.81-2.7l1.35-1.74a2.09 2.09 0 0 1 .39-.36.26.26 0 0 1 .33 0 .26.26 0 0 1 .09.18 1.44 1.44 0 0 1-.27.57 46.26 46.26 0 0 1-3.6 4.08 34.66 34.66 0 0 1-3.54 3.21 6.52 6.52 0 0 1-3.28 1.13 3 3 0 0 1-2-.57zm5.79-6.9a9.69 9.69 0 0 0 2.06-2.13 2.5 2.5 0 0 0 .57-1.17 1.14 1.14 0 0 0-.15-.73.59.59 0 0 0-.51-.25 1.52 1.52 0 0 0-.78.33 10.37 10.37 0 0 0-4.11 5.88 29.88 29.88 0 0 0 2.92-1.93z"/><path d="M25.85 52.53a12.33 12.33 0 0 1 2.4-7 5.87 5.87 0 0 1 2.23-1.71 6.29 6.29 0 0 1 2.69-.78h.33a2.14 2.14 0 0 1 1.71 1.32 7.86 7.86 0 0 1 .39.9 4.71 4.71 0 0 0 .51-.56 3.65 3.65 0 0 1 .93-.81 1.38 1.38 0 0 1 .63-.19.44.44 0 0 1 .48.51 1.64 1.64 0 0 1-.06.33 47.27 47.27 0 0 0-1.11 5.22 13.61 13.61 0 0 0-.21 2.19 5.4 5.4 0 0 0 0 .69q.18.15.54-.15a17.32 17.32 0 0 0 1.48-1.63q1.16-1.3 3.76-4.54l1.35-1.74a2.09 2.09 0 0 1 .39-.36.26.26 0 0 1 .33 0 .26.26 0 0 1 .09.18 1.43 1.43 0 0 1-.27.57l-1.28 1.73q-2.55 3.36-4.17 5.36a10.49 10.49 0 0 1-2.22 2.29 4.2 4.2 0 0 1-.81.09q-1.71 0-1.71-2 0-.75.09-2l-.87.93q-1.38 1.53-1.74 2a4.13 4.13 0 0 1-1.5 1.17 4.22 4.22 0 0 1-1.8.42 2.84 2.84 0 0 1-1.56-.42 2.22 2.22 0 0 1-1.02-2.01zm8.61-4.08a2.76 2.76 0 0 0 .6-1.44.79.79 0 0 0 0-.24l-.18-.72c0-.06-.07-.29-.17-.68a2.79 2.79 0 0 0-.43-1 1.16 1.16 0 0 0-1-.72 2.39 2.39 0 0 0-1.23.51 4.82 4.82 0 0 0-1.5 1.65 26.94 26.94 0 0 0-2 4.62 7.09 7.09 0 0 0-.33 2.07q0 1.26.54 1.26a1.81 1.81 0 0 0 .93-.45 21.4 21.4 0 0 0 4.77-4.86z"/><path d="M48.77 56.1a1.36 1.36 0 0 1-.36-1.11 16.53 16.53 0 0 1 .87-4.53l.36-1q.09-.27.48-1.35t.78-2q.39-.93.78-1.68l.06-.12c.06-.16.15-.38.27-.66a1.86 1.86 0 0 0 .18-.69.5.5 0 0 0-.3-.48.54.54 0 0 0-.24-.06 2.88 2.88 0 0 0-1.53 1 33.27 33.27 0 0 0-4 4.58 18.74 18.74 0 0 0-2.57 4.77 7.3 7.3 0 0 1-.66 1.41 1.9 1.9 0 0 1-1.2.84l-.45.06a.46.46 0 0 1-.54-.51 2.61 2.61 0 0 1 .06-.39q.48-2 1.23-4.92l2.46-8.43a17.75 17.75 0 0 1 1.32-3.3 3.84 3.84 0 0 1 .48-.75 1.29 1.29 0 0 1 1.08-.57 1.07 1.07 0 0 1 .3 0 .55.55 0 0 1 .51.6v.24a4.82 4.82 0 0 1-.27 1.2l-2 7.2q0 .15-.17.57a1.55 1.55 0 0 0-.08.75h.12a.48.48 0 0 0 .42-.23 2.15 2.15 0 0 1 .24-.31q1.15-1.23 2.25-2.46a7.33 7.33 0 0 1 3.12-2 3.39 3.39 0 0 1 .84-.15 1.31 1.31 0 0 1 .95.33 1.27 1.27 0 0 1 .34 1 2.76 2.76 0 0 1-.09.66 55.2 55.2 0 0 1-1.71 5.76 24.82 24.82 0 0 0-.83 2.73 11 11 0 0 0-.41 2.34.42.42 0 0 0 .15.42q1.32-.48 4.17-4.41t3-4.08l1.37-1.79a2.08 2.08 0 0 1 .39-.36.26.26 0 0 1 .33 0 .26.26 0 0 1 .09.18 1.43 1.43 0 0 1-.27.57q-1.23 1.62-2.58 3.54-3.45 4.77-5.16 6.72a3.66 3.66 0 0 1-2.46 1.14 1.27 1.27 0 0 1-1.12-.27zM58.28 54.18a2.58 2.58 0 0 1 .6-1.65 1.68 1.68 0 0 1 1.29-.75.84.84 0 0 1 .64.24 1 1 0 0 1 .23.69 2.15 2.15 0 0 1-.6 1.52 1.84 1.84 0 0 1-1.38.64.65.65 0 0 1-.78-.69zm2.27-5.82a.62.62 0 0 1-.63-.72v-.33a1.88 1.88 0 0 1 .09-.6q.45-1.59.93-3.81.6-2.46 1-3.9a24.88 24.88 0 0 1 1-3 7.44 7.44 0 0 1 .72-1.53 1.37 1.37 0 0 1 1.17-.66.51.51 0 0 1 .48.21 1.23 1.23 0 0 1 .12.6 24.9 24.9 0 0 1-1 6.6 10.75 10.75 0 0 1-.4 1.5q-.29.84-.62 1.65-.63 1.62-.9 2.58a1.85 1.85 0 0 1-1.38 1.29 2.17 2.17 0 0 1-.58.12z"/></symbol><symbol id="logo" viewBox="0 0 220.17 43.78"><title>logo</title><path d="M.96 33.7a1.12 1.12 0 0 1-.74-.19.87.87 0 0 1-.22-.67 6.4 6.4 0 0 1 .1-.72l.27-1.17q.58-3.07 1-4.61a11.08 11.08 0 0 0 .38-2 1.07 1.07 0 0 0-.24-.74 6.67 6.67 0 0 0-1-.79 13.9 13.9 0 0 0 1.65-.86 1.91 1.91 0 0 0 .65-.82 20.16 20.16 0 0 0 .65-2q1.2-4 3.7-12 0-.1.31-.84a4 4 0 0 1 .83-1.34 2 2 0 0 1 1.54-.86 1 1 0 0 1 1 .91 7.82 7.82 0 0 1 .1 1 14.6 14.6 0 0 1-.38 2.64q-.29 1.1-.77 3.31-.38 1.54-1 4.18t-1.21 4.42a4.33 4.33 0 0 1-.14.65 2 2 0 0 0-.1.6.56.56 0 0 0 .34.58 4.59 4.59 0 0 0 1.34.19 3.78 3.78 0 0 1 1.25.29l.55.09a2.52 2.52 0 0 0 .65.1 1.21 1.21 0 0 0 .82-.29 2.4 2.4 0 0 0 .82-1 15.1 15.1 0 0 0 .53-1.7l.24-1 1-3.17q.82-2.64 1.37-4.32a24.38 24.38 0 0 1 1.37-3.31 6.49 6.49 0 0 1 .75-1.31 2.24 2.24 0 0 1 2.16-1 .73.73 0 0 1 .77.82 2.05 2.05 0 0 1-.14.72q-.62 2.35-1.15 5-.19.72-.82 3.46t-1.39 5.14a69.53 69.53 0 0 0-2.06 8.3 4.72 4.72 0 0 1-1 2.18 4.37 4.37 0 0 1-2 1.13 3.19 3.19 0 0 1-.91.14 1.1 1.1 0 0 1-1.25-1.25 3 3 0 0 1 0-.58q.62-3.26 1.1-5.09a4.22 4.22 0 0 0 .1-.62.69.69 0 0 0-.86-.67 6.87 6.87 0 0 1-1.1-.22l-1.06-.26a6.29 6.29 0 0 0-1.2-.14 1 1 0 0 0-.84.36 5.55 5.55 0 0 0-.6 1.51 18.33 18.33 0 0 0-.55 2.07q-.43 1.78-.67 2.54a5.34 5.34 0 0 1-1.25 2.18 3.91 3.91 0 0 1-2.06 1 3.27 3.27 0 0 1-.63.03zM20.86 30.39a3.32 3.32 0 0 1-1.08-2.69 9.78 9.78 0 0 1 .19-1.54 25.37 25.37 0 0 1 1.9-5.66 17.19 17.19 0 0 1 3.38-4.7 19.54 19.54 0 0 1 5.76-3.94 3.81 3.81 0 0 1 1.73-.38 4 4 0 0 1 2.26.53 1.7 1.7 0 0 1 .77 1.49 5.17 5.17 0 0 1-.91 2.59 8.26 8.26 0 0 1-1.78 2.21 31.34 31.34 0 0 1-7.44 5.47 3.08 3.08 0 0 0-.94.72 2.44 2.44 0 0 0-.46 1q-.1.34-.29 1.15a6.27 6.27 0 0 0-.19 1.31 1.62 1.62 0 0 0 .61 1.43q.77.34 3.36-1.18a41.84 41.84 0 0 0 5.5-3.91 33.74 33.74 0 0 0 4.45-4.34l2.16-2.78a3.31 3.31 0 0 1 .62-.58.41.41 0 0 1 .67.29 2.31 2.31 0 0 1-.43.91 74 74 0 0 1-5.76 6.53 55.47 55.47 0 0 1-5.66 5.14A10.43 10.43 0 0 1 24 31.28a4.75 4.75 0 0 1-3.14-.89zm9.26-11a15.46 15.46 0 0 0 3.25-3.44 4 4 0 0 0 .91-1.87 1.83 1.83 0 0 0-.24-1.18.94.94 0 0 0-.82-.41 2.43 2.43 0 0 0-1.25.53 16.58 16.58 0 0 0-6.58 9.41 47.77 47.77 0 0 0 4.73-3.08z"/><path d="M34.13 29.95a19.72 19.72 0 0 1 3.84-11.32 9.41 9.41 0 0 1 3.58-2.74 10.09 10.09 0 0 1 4.3-1.25h.53a3.42 3.42 0 0 1 2.74 2.11 12.41 12.41 0 0 1 .62 1.44 7.49 7.49 0 0 0 .82-.86 5.88 5.88 0 0 1 1.49-1.3 2.22 2.22 0 0 1 1-.24.7.7 0 0 1 .77.82 2.64 2.64 0 0 1-.1.53 75.94 75.94 0 0 0-1.78 8.35 21.7 21.7 0 0 0-.34 3.5 8.78 8.78 0 0 0 0 1.1q.29.24.86-.24a27.63 27.63 0 0 0 2.38-2.62q1.8-2.14 6-7.32L63 17.13a3.31 3.31 0 0 1 .62-.58.41.41 0 0 1 .67.29 2.3 2.3 0 0 1-.43.91l-2.06 2.69q-4.08 5.38-6.67 8.57a16.74 16.74 0 0 1-3.55 3.67 6.69 6.69 0 0 1-1.3.14q-2.74 0-2.74-3.12 0-1.2.14-3.22l-1.39 1.49q-2.21 2.45-2.78 3.12a6.61 6.61 0 0 1-2.4 1.87 6.76 6.76 0 0 1-2.88.67 4.55 4.55 0 0 1-2.5-.67 3.55 3.55 0 0 1-1.6-3.01zm13.78-6.53a4.42 4.42 0 0 0 1-2.3 1.25 1.25 0 0 0 0-.38l-.29-1.15q0-.14-.26-1.08a4.48 4.48 0 0 0-.7-1.61 1.85 1.85 0 0 0-1.63-1.15 3.83 3.83 0 0 0-2 .82 7.72 7.72 0 0 0-2.4 2.64 43.17 43.17 0 0 0-3.12 7.39 11.33 11.33 0 0 0-.53 3.31q0 2 .86 2a2.9 2.9 0 0 0 1.49-.72 34.24 34.24 0 0 0 7.57-7.81z"/><path d="M68.37 27.95q2.71-3.48 5.06-7.13.24-.38.38-.58a2.11 2.11 0 0 0 .19-.29l2.16-2.78a3.31 3.31 0 0 1 .62-.58.41.41 0 0 1 .67.29 2.3 2.3 0 0 1-.43.91q-1 1.3-2.09 3t-1.46 2.28q-1.76 2.95-3.1 4.88a26.61 26.61 0 0 1-3.17 3.67 7.18 7.18 0 0 1-2.14 1.58 5.13 5.13 0 0 1-2.18.53 3.47 3.47 0 0 1-2.33-.84 3.57 3.57 0 0 1-1.18-2.41q-.1-1-.1-1.44a13.43 13.43 0 0 1 .53-3.65l.29-1.06q1.68-6.14 3-9.84.24-.53 1.68-4.37 1.25-3.5 1.63-4.32 1-2.35 2.83-2.35a1.11 1.11 0 0 1 1.2 1.3 17.17 17.17 0 0 1-.82 3.29l-1 3.24-.38 1.25-1.2 4.13q-.48 1.58-1.25 4.22t-1.41 4.47a19.27 19.27 0 0 0-1.15 5.09 1.72 1.72 0 0 0 .62 1.58q1.82-.58 4.53-4.07z"/><path d="M90.57 16.95a2.3 2.3 0 0 1-.43.91q-1 1.3-2.09 3t-1.46 2.28q-1.78 2.93-3.12 4.82a26.64 26.64 0 0 1-3.17 3.67 7.18 7.18 0 0 1-2.14 1.58 5.13 5.13 0 0 1-2.18.53 3.47 3.47 0 0 1-2.33-.84 3.57 3.57 0 0 1-1.18-2.38q-.1-1-.1-1.44a13.43 13.43 0 0 1 .53-3.65l.29-1.06q1.68-6.14 3-9.84.48-1.05 1.34-3.6l.84-2.29h-1.49q-.82-.1-.77-.29t1-.29h1.49a19.3 19.3 0 0 1 .86-2.21q1-2.35 2.83-2.35a1.11 1.11 0 0 1 1.2 1.3 4.22 4.22 0 0 1-.14 1 20.11 20.11 0 0 1-.67 2.3h1.49q.91 0 .86.34a.56.56 0 0 1-.5.22h-2.04l-1.2 3.84-1.2 4.13q-.48 1.58-1.25 4.22t-1.34 4.46a19.25 19.25 0 0 0-1.13 5.13 1.72 1.72 0 0 0 .62 1.58q1.78-.58 4.49-4t5.06-7.15q.24-.38.38-.58a2.15 2.15 0 0 0 .19-.29l2.16-2.78a3.28 3.28 0 0 1 .62-.58.41.41 0 0 1 .68.31z"/><path d="M97.05 35.62a2.18 2.18 0 0 1-.58-1.78 26.5 26.5 0 0 1 1.39-7.25l.59-1.64q.14-.43.77-2.16t1.25-3.22q.62-1.49 1.25-2.69l.1-.19q.14-.38.43-1.06a3 3 0 0 0 .29-1.1.8.8 0 0 0-.48-.77.85.85 0 0 0-.38-.1q-.82 0-2.45 1.54a53.14 53.14 0 0 0-6.41 7.32 30 30 0 0 0-4.06 7.8 11.69 11.69 0 0 1-1.06 2.26 3 3 0 0 1-1.92 1.34 6.26 6.26 0 0 1-.72.1.74.74 0 0 1-.86-.82 4.24 4.24 0 0 1 .1-.62q.77-3.17 2-7.87l3.94-13.49a28.39 28.39 0 0 1 2.06-5.27 6.11 6.11 0 0 1 .77-1.2 2.06 2.06 0 0 1 1.73-.91 1.7 1.7 0 0 1 .48 0 .88.88 0 0 1 .82 1v.38a7.67 7.67 0 0 1-.43 1.92q-1.54 5.76-3.17 11.52 0 .24-.26.91a2.48 2.48 0 0 0-.12 1.2h.19a.76.76 0 0 0 .67-.36 3.57 3.57 0 0 1 .38-.5q1.82-2 3.55-4a11.72 11.72 0 0 1 5-3.22 5.43 5.43 0 0 1 1.34-.24 2.1 2.1 0 0 1 1.51.53 2 2 0 0 1 .55 1.54 4.37 4.37 0 0 1-.14 1.06 88.13 88.13 0 0 1-2.8 9.19 39.87 39.87 0 0 0-1.32 4.37 17.71 17.71 0 0 0-.65 3.74.67.67 0 0 0 .24.67q2.11-.77 6.67-7.06t4.77-6.54s.75-1 2.16-2.78a3.3 3.3 0 0 1 .62-.58.41.41 0 0 1 .67.29 2.3 2.3 0 0 1-.43.91q-2 2.59-4.13 5.66-5.52 7.63-8.26 10.75a5.85 5.85 0 0 1-3.94 1.82 2 2 0 0 1-1.72-.4zM125.71 43.78a2.65 2.65 0 0 1-2.26-1.1 2.74 2.74 0 0 1-.58-1.68 5.2 5.2 0 0 1 1.06-2.74 20.21 20.21 0 0 1 2.57-3.07 36.55 36.55 0 0 1 3.48-3q.24-.19.55-.41l.7-.46a5.81 5.81 0 0 0 2.5-2.33 8.14 8.14 0 0 0 .86-3.53l-.82.86-.84.94q-.51.55-.79.94a8.37 8.37 0 0 1-2.38 2 11.13 11.13 0 0 1-3 1.13 5.94 5.94 0 0 1-1.25.14 2.79 2.79 0 0 1-1.94-.67 2.15 2.15 0 0 1-.7-1.78 32.92 32.92 0 0 1 1-6.84 21.57 21.57 0 0 1 2.74-6.22 1.71 1.71 0 0 1 .24-.38 2.18 2.18 0 0 1 1.82-1.39 1 1 0 0 1 1.2 1.1 2.59 2.59 0 0 1-.14.82 56.62 56.62 0 0 0-1.25 5.9l-.43 2.35a13.75 13.75 0 0 0-.43 3.07 4.34 4.34 0 0 0 0 .77q.15.91.58.91a1.87 1.87 0 0 0 1.1-.62 29.61 29.61 0 0 0 5.15-5.54q1.49-2.26 2.35-3.77a20 20 0 0 0 1.44-3.1 7.46 7.46 0 0 1 .72-1.25 1.29 1.29 0 0 1 .58-.53 2.8 2.8 0 0 1 .82-.19.89.89 0 0 1 1 1q-.24 1.3-1 4.75-.86 3.84-1.1 5.28a8.73 8.73 0 0 0 3-1.85 26.42 26.42 0 0 0 3.11-3.34s.75-1 2.16-2.78a3.33 3.33 0 0 1 .62-.58.41.41 0 0 1 .67.29 2.3 2.3 0 0 1-.43.91l-1.1 1.49a51.31 51.31 0 0 1-3.53 4.42 17.76 17.76 0 0 1-3.72 3.12 9.33 9.33 0 0 0-1.58 1.3 3.06 3.06 0 0 0-.72 1.44 21.83 21.83 0 0 1-1.27 3.86q-.84 1.95-2.18 4.49a11.34 11.34 0 0 1-6.58 5.47 6.4 6.4 0 0 1-2 .4zm1.3-1.54a2.77 2.77 0 0 0 1.51-.48 4 4 0 0 0 1.27-1.39 20.91 20.91 0 0 0 1.39-3q.58-1.54 1.3-3.84l.89-2.58a38.39 38.39 0 0 0-4.22 2.93 17.12 17.12 0 0 0-3.07 3.22 9.1 9.1 0 0 0-1.19 1.85 2.6 2.6 0 0 0-.19 1.06 2.21 2.21 0 0 0 .43 1.32 2.27 2.27 0 0 0 1.2.84 1.88 1.88 0 0 0 .67.07z"/><path d="M143.59 30.39a3.32 3.32 0 0 1-1.08-2.69 9.74 9.74 0 0 1 .19-1.54 25.36 25.36 0 0 1 1.9-5.66 17.2 17.2 0 0 1 3.38-4.7 19.54 19.54 0 0 1 5.76-3.94 3.8 3.8 0 0 1 1.73-.38 4 4 0 0 1 2.26.53 1.7 1.7 0 0 1 .77 1.49 5.17 5.17 0 0 1-.91 2.59 8.26 8.26 0 0 1-1.78 2.21 31.35 31.35 0 0 1-7.44 5.46 3.08 3.08 0 0 0-.94.72 2.43 2.43 0 0 0-.46 1q-.1.34-.29 1.15a6.3 6.3 0 0 0-.19 1.39 1.63 1.63 0 0 0 .58 1.39q.77.34 3.36-1.18a41.8 41.8 0 0 0 5.5-3.91 33.81 33.81 0 0 0 4.44-4.37l2.16-2.78a3.27 3.27 0 0 1 .62-.58.41.41 0 0 1 .53 0 .42.42 0 0 1 .14.29 2.31 2.31 0 0 1-.43.91 73.91 73.91 0 0 1-5.76 6.53 55.52 55.52 0 0 1-5.66 5.14 10.43 10.43 0 0 1-5.28 1.82 4.75 4.75 0 0 1-3.1-.89zm9.26-11a15.48 15.48 0 0 0 3.29-3.44 4 4 0 0 0 .91-1.87 1.83 1.83 0 0 0-.24-1.18.94.94 0 0 0-.82-.41 2.43 2.43 0 0 0-1.25.53 16.58 16.58 0 0 0-6.58 9.41 47.75 47.75 0 0 0 4.69-3.08z"/><path d="M156.86 29.95a19.72 19.72 0 0 1 3.84-11.28 9.41 9.41 0 0 1 3.58-2.74 10.09 10.09 0 0 1 4.3-1.25h.53a3.42 3.42 0 0 1 2.74 2.11 12.41 12.41 0 0 1 .62 1.44 7.53 7.53 0 0 0 .82-.86 5.88 5.88 0 0 1 1.49-1.3 2.23 2.23 0 0 1 1-.24.7.7 0 0 1 .77.82 2.67 2.67 0 0 1-.1.53 75.85 75.85 0 0 0-1.78 8.35 21.64 21.64 0 0 0-.34 3.5 8.78 8.78 0 0 0 0 1.1q.29.24.86-.24a27.63 27.63 0 0 0 2.38-2.62q1.8-2.14 6-7.32s.75-1 2.16-2.78a3.33 3.33 0 0 1 .62-.58.41.41 0 0 1 .67.29 2.3 2.3 0 0 1-.43.91l-2.06 2.69q-4.08 5.38-6.67 8.57a16.73 16.73 0 0 1-3.49 3.69 6.69 6.69 0 0 1-1.3.14q-2.74 0-2.74-3.12 0-1.2.14-3.22l-1.39 1.49q-2.21 2.45-2.78 3.12a6.61 6.61 0 0 1-2.4 1.87 6.76 6.76 0 0 1-2.88.67 4.55 4.55 0 0 1-2.5-.67 3.55 3.55 0 0 1-1.66-3.07zm13.78-6.53a4.42 4.42 0 0 0 1-2.3 1.27 1.27 0 0 0 0-.38l-.29-1.15q0-.14-.26-1.08a4.47 4.47 0 0 0-.7-1.61 1.85 1.85 0 0 0-1.63-1.15 3.83 3.83 0 0 0-2 .82 7.73 7.73 0 0 0-2.4 2.64 43.25 43.25 0 0 0-3.12 7.39 11.34 11.34 0 0 0-.53 3.31q0 2 .86 2a2.9 2.9 0 0 0 1.49-.72 34.22 34.22 0 0 0 7.58-7.81z"/><path d="M193.53 35.62a2.18 2.18 0 0 1-.58-1.78 26.5 26.5 0 0 1 1.42-7.24l.55-1.65q.14-.43.77-2.16t1.25-3.22q.62-1.49 1.25-2.69l.1-.19q.15-.38.43-1.06a3 3 0 0 0 .29-1.1.8.8 0 0 0-.48-.77.85.85 0 0 0-.38-.1q-.82 0-2.45 1.54a53.17 53.17 0 0 0-6.41 7.32 30.06 30.06 0 0 0-4.06 7.8 11.66 11.66 0 0 1-1.06 2.26 3 3 0 0 1-1.92 1.34 6.26 6.26 0 0 1-.72.1.74.74 0 0 1-.86-.82 4.29 4.29 0 0 1 .1-.62q.77-3.17 2-7.87l3.94-13.49a28.42 28.42 0 0 1 2.07-5.27 6.14 6.14 0 0 1 .77-1.2 2.06 2.06 0 0 1 1.73-.91 1.7 1.7 0 0 1 .48 0 .88.88 0 0 1 .82 1v.38a7.65 7.65 0 0 1-.43 1.92q-1.54 5.76-3.17 11.52 0 .24-.26.91a2.47 2.47 0 0 0-.12 1.2h.19a.76.76 0 0 0 .67-.36 3.52 3.52 0 0 1 .38-.5q1.82-2 3.55-4a11.73 11.73 0 0 1 5-3.22 5.42 5.42 0 0 1 1.34-.24 2.1 2.1 0 0 1 1.51.53 2 2 0 0 1 .55 1.54 4.39 4.39 0 0 1-.14 1.06 88 88 0 0 1-2.74 9.22 39.89 39.89 0 0 0-1.32 4.37 17.66 17.66 0 0 0-.65 3.74.66.66 0 0 0 .24.67q2.11-.77 6.67-7.06t4.71-6.57l2.16-2.78a3.3 3.3 0 0 1 .62-.58.41.41 0 0 1 .67.29 2.31 2.31 0 0 1-.43.91q-2 2.59-4.13 5.66-5.52 7.63-8.26 10.75a5.85 5.85 0 0 1-3.94 1.82 2 2 0 0 1-1.72-.4zM208.75 32.55a4.13 4.13 0 0 1 1-2.64 2.68 2.68 0 0 1 2.06-1.2 1.35 1.35 0 0 1 1 .38 1.56 1.56 0 0 1 .36 1.1 3.44 3.44 0 0 1-1 2.42 2.94 2.94 0 0 1-2.21 1 1 1 0 0 1-1.21-1.06zm3.62-9.31a1 1 0 0 1-1-1.15v-.53a3 3 0 0 1 .14-1q.72-2.54 1.49-6.1 1-3.94 1.58-6.24a39.74 39.74 0 0 1 1.63-4.75 11.81 11.81 0 0 1 1.16-2.41A2.18 2.18 0 0 1 219.24 0a.81.81 0 0 1 .77.34 2 2 0 0 1 .19 1 39.93 39.93 0 0 1-1.63 10.56 17.27 17.27 0 0 1-.65 2.4q-.46 1.34-1 2.64-1 2.59-1.44 4.13a3 3 0 0 1-2.21 2.06 3.46 3.46 0 0 1-.9.11z"/></symbol><symbol id="medium" viewBox="0 0 19 19"><path d="M16.22 2.79A9.5 9.5 0 1 0 19 9.51a9.44 9.44 0 0 0-2.78-6.72zM9.5 18.01a8.5 8.5 0 1 1 8.5-8.5A8.51 8.51 0 0 1 9.5 18z"/><path d="M15.5 9h-12a.5.5 0 0 0 0 1h12a.5.5 0 0 0 0-1z"/></symbol><symbol id="normal" viewBox="0 0 19 19"><title>normal</title><path d="M16.22 2.79A9.5 9.5 0 1 0 19 9.51a9.44 9.44 0 0 0-2.78-6.72zM9.47 18a8.5 8.5 0 1 1 8.5-8.5 8.51 8.51 0 0 1-8.5 8.5z"/><path d="M14.15 7.66l-4.68 4.63-4.61-4.63a.5.5 0 0 0-.85.35.5.5 0 0 0 .15.35l5 5a.5.5 0 0 0 .71 0l5-5a.502.502 0 1 0-.72-.7z"/></symbol><symbol id="search" viewBox="0 0 19 20"><title>search</title><path class="cls-1" d="M114.26 307.26l-5.94-6.48a7.48 7.48 0 1 0-.74.68l5.94 6.48a.5.5 0 0 0 .74-.67zM96.39 295.6a6.5 6.5 0 1 1 6.5 6.5 6.51 6.51 0 0 1-6.5-6.5z" transform="translate(-95.39 -288.1)"/></symbol><symbol id="to-left" viewBox="0 0 10 19"><title>to-left</title><path class="cls-1" d="M82.2 181.34a.5.5 0 0 0 .35-.85l-8.65-8.65 8.65-8.65a.5.5 0 0 0-.71-.71l-9 9a.5.5 0 0 0 0 .71l9 9a.5.5 0 0 0 .35.15z" transform="translate(-72.7 -162.34)"/></symbol><symbol id="to-right" viewBox="0 0 10 19"><title>to-right</title><path class="cls-1" d="M130.54 181.34a.5.5 0 0 1-.35-.85l8.65-8.65-8.65-8.65a.5.5 0 1 1 .71-.71l9 9a.5.5 0 0 1 0 .71l-9 9a.5.5 0 0 1-.35.15z" transform="translate(-130.04 -162.34)"/></symbol></svg>