<?xml version="1.0" encoding="UTF-8"?><!DOCTYPE svg PUBLIC "-//W3C//DTD SVG 1.1//EN" "http://www.w3.org/Graphics/SVG/1.1/DTD/svg11.dtd"><svg xmlns="http://www.w3.org/2000/svg"><defs><style>.cls-1{fill:#010101}</style><style>.cls-1{fill:#010101}</style><style>.cls-1{fill:#010101}</style><style>.cls-1{fill:#010101}</style></defs><symbol id="company-logo" viewBox="0 0 600 180"><path class="st0" d="M195.8 108.2c-.2.6-.3 1.3-.3 1.7 0 .2 0 .5.1.6.1.1.2.1.2.1 1.3 0 4.4-1.9 8.5-6.7.4-.4 1-.6 1.4-.6.6 0 1.4 0 1.4.6 0 .5-.2 1-1 2.1-4.8 5.5-9.2 9-12.2 9-1.9 0-3.2-.6-3.9-1.8-.4-.6-.6-1.2-.7-2-2 2.2-4.4 3.4-6.8 3.4-3.9 0-7.3-3.4-7.3-7.8 0-2 .5-3.8 1-5.6 3.8-11.8 16.9-16.1 20.6-10.6 3.8-7.4 8.1-17.8 6.8-27.8-.3-2.8 6.4-3.8 6.8-2.7 4.3 11.1-11.3 37-14.6 48.1zm-1.7-11.8c-.4-10.3-12.9-.4-12.9 9.5 0 2.4 1 4.8 3.2 4.8 1.8 0 4.6-2.6 6.2-6.3l.1-.3c.7-1.9 1.5-3.6 2.2-5 .4-1.1.9-2 1.2-2.7z"/><path class="st0" d="M232.4 103.9c0 .6-.4 1.4-1.2 2.5-.7 1-4.2 4.4-7.2 4.4-1 0-2-.2-2.9-.5-3.2 3.1-7 4.6-10.3 4.6-5.1 0-8.1-4-8.1-9 0-8.1 7.4-17.4 15.5-17.4h.6c1.4.1 4.5.5 4.6 2.6 0 1.6-1.4 2-2.7 2h-.4c-.3 0-.7-.1-1-.1-1.7 0-3.6.4-5.4 1.6-2.8 2-4.8 5.7-5.1 8.6-.1.4-.1.8-.1 1.1 0 3.8 2.3 6.7 5 6.7 1.4 0 3.1-.8 4.5-2.2-2.2-2-3.1-4.2-3.1-6.2 0-4.6 4.6-8.6 7.9-8.6 1.9 0 3.4 1.3 3.4 4.5 0 2.9-.6 5.4-2.6 8.3 2.7.8 4-.6 6.1-3.1.3-.5.8-.7 1.4-.7.7 0 1.1.2 1.1.9zm-10.8-3.1c0-1.4-.5-2-1-2-.7 0-1.5 1-1.5 2.5 0 1 .4 2.4 1.5 4 .6-2 1-3.4 1-4.5z"/><path class="st0" d="M260.4 104c0 .6-.2 1-.8 1.8l-.1.1c0 .1-.1.1-.2.2l-.1.1-.2.2c-4.6 5.5-9.4 8.3-12.3 8.3-3.1 0-4.6-1.8-4.6-4.7 0-.5 0-1 .1-1.5-3.3 3.8-6.4 6.2-9.4 6.2-.5 0-.9-.1-1.4-.2-2-.6-3-2.2-3-4.6 0-1 .2-2.1.6-3.1 1.4-5 3.4-9.8 4.8-13.6.3-.8.4-1.1.8-1.9 1-1.9 3.7-2.9 5.4-2.9h.5c.8.2 1 .4 1 .7 0 .3-.2.6-.3 1 0 .1-.1.2-.1.2l-2.5 6.5c-1.2 3.4-2.6 7.5-3.7 11-.2.6-.3 1.2-.3 1.7 0 .8.2 1.2.7 1.2 1.8 0 6.4-5.6 9.3-10.5 1-2.6 1.9-5 2.7-7.1.3-.8.3-1.1.7-1.9 1.1-1.9 3.8-2.9 5.4-2.9h.5c.8.2 1 .4 1 .8 0 .3-.2.7-.3 1.2l-2.5 6.5c-1.3 3.4-2.7 7.5-3.8 11-.2.6-.3 1.2-.3 1.7 0 .6.2 1.1.9 1.1 1.3 0 4.6-2.2 8.6-7 .4-.4 1-.6 1.4-.6 1 .2 1.5.4 1.5 1z"/><path class="st0" d="M287.9 105.7c-3.1 3.9-8.8 5.7-12.6 4.4-3.1 3-7 4.8-10.6 4.8-4.6 0-8.7-3.2-8.5-10.8.6-18.5 13.8-44.1 18.9-44.1.6 0 2 .6 3.4 1.7 1 .8 1.7 1.5 1 2.1-7.4 6.9-15.4 25.4-17.5 35.4-1 4.7-1 12.4 5.7 12.1 1.6-.1 3.3-.9 4.7-2.4-10.6-3.7-11.3-17.6-1.4-20.1.6-.2 1-.2 1.6-.2 4.1 0 8.3 3.7 8.3 8.9 0 2.7-.9 6.6-2.8 9.4 2.7 1.1 6.1-.8 7.9-3 .3-.4.9-.7 1.4-.7 1.4-.1 1.1 1.7.5 2.5zm-18.3-4.4c.8 2 3 3.3 4.9 4.2 5.2-13-8.9-14.4-4.9-4.2z"/><path class="st0" d="M309.4 63.6c0 .2-.1.3-.2.5-7.8 7.2-13.4 21.6-16.6 32.6l-2.1 7.5c-.5 1.8-1.1 5.8 1.4 5.8 1.2 0 2.6-.7 7-6 .5-.4 1-.6 1.5-.6s1 .2 1 1c0 .5-.4 1.3-1.3 2.2-4.5 5.3-6.9 8.3-10 8.3-4.4 0-6-4-5.8-7.9.5-10.2 13.3-46.6 20.6-46.6.6 0 2 .7 3.4 1.8.6.4 1.1 1 1.1 1.4z"/><path class="st0" d="M324 104.2c0 .6-.2 1.1-1 2.2-4.2 5.1-10.2 8.6-15.9 8.6-5.6 0-9.7-3.8-9.7-9.3 0-8.4 6.8-17 15.8-17 2.6 0 4.8 1.1 5.8 2.9.6.8.7 1.8.7 2.8 0 1.3-.3 2.6-.8 3.8-2.2 5.6-7 9.5-13.8 10.2 1 1.5 2.9 2.2 4.6 2.2 3.5 0 7.9-1.8 11.9-6.6.3-.5.9-.7 1.4-.7.6 0 1 .3 1 .9zm-20.6-.1c0 .5.1 1 .2 1.4.2 0 .2-.1.4-.1 3.1-.7 6.6-1.4 8.3-4.8.8-1.5 1.1-3.4 1.1-4.9 0-2.2-.7-3.9-2.3-3.9-.4 0-.9.2-1.4.4-3.2 1.7-6.3 7.7-6.3 11.9z"/><path class="st0" d="M355.8 104.7h.8c.3 0 .6 0 .8.2.3.3-.6 2-2 3.5-7.4 8.2-14.7 11.9-23.5 9.7-6.8-1.8-10.9-9.8-10.9-16.8-.1-13.7 7.3-31.7 21-39.6 3.1-1.8 5.3-2.7 8.2-2.7 18.7 0 7.5 34.2-5.9 35.1-6.6.5-9.8-7-8.4-6.1 3 2.2 8.2.8 10.8-1.8 10-9.8 10.8-24.5 3.8-24.4-16.9.2-35.1 52.6-11.2 51.5 8.2-.3 11.5-4 15.3-8.1.5-.4.6-.5 1.2-.5z"/><path class="st0" d="M385.9 104.1c0 .5-.3 1.4-1.3 2.3-4.6 5.6-9.2 8.5-12.2 8.5-2.3 0-3.9-1-4.4-3.3-1.9 2.2-4.2 3.3-6.6 3.3-3.8 0-7.2-3.4-7.2-7.8 0-2 .5-3.8 1-5.6 2.7-8.4 10.1-12.9 15.4-12.9 2.2 0 4.2.8 5.1 2.5 1.2-1 2.8-1.9 3.8-1.9 1.2 0 1.8.6 1.8 1.4 0 1-1 2.9-1.9 5-1.6 3.4-3.6 8-5 12.6-.2.6-.4 1.3-.4 1.7 0 .7.3 1.1.9 1.1 1.3 0 4.4-2.2 8.5-7 .6-.6 1.2-.6 1.6-.6.6-.1.9.1.9.7zm-13-8.1c-.2-2.5-1.4-3.4-2.8-3.4-3.8 0-9.8 6.9-9.8 13.8 0 2.4.9 4.8 3.1 4.8 1.4 0 3.4-1.5 5-4.2 1.3-4.5 3.4-8.6 4.3-10.6l.2-.4z"/><path class="st0" d="M391.7 93.3c2.7-2.8 5.4-4.2 8-4.2 4.5 0 6.6 4.2 6.6 7.8 0 3.4-1.4 7.6-3.2 10.3 1.8.2 5-1.6 5.9-3.4.4-.4.8-.6 1.3-.6 2.5 0 1.4 1.6.5 2.8-2 2.6-6.2 4.6-10.2 4.3-3.1 4.2-7.4 4.3-9.7 4.3-9.4 0-4.1-10.9 6.7-8.3 1.8-2.4 4.6-12.6-.8-12.6-2.6 0-5.8 3.4-8.2 7.6-4.6 12.5-8.5 26-6 38.7 0 .2.1.3-.1.4-.2.4-1 .6-1.9.6-1.8 0-3 0-3.5-.4-4.1-2.6-.8-17.1.5-21.5 2.8-10.2 8-26.7 9.7-29 1-1.4 6.9-3 6.2-1.4-.6 1.4-1.2 3-1.8 4.6zm3.5 16.7c-4.4-1-7.2 1.4-5 1.9 1.9.6 4-.2 5-1.9z"/><path class="st0" d="M417.5 93.3c2.7-2.8 5.4-4.2 8-4.2 4.5 0 6.6 4.2 6.6 7.8 0 3.4-1.4 7.6-3.2 10.3 1.8.2 5-1.6 5.9-3.4.4-.4.8-.6 1.3-.6 2.5 0 1.4 1.6.5 2.8-2 2.6-6.2 4.6-10.2 4.3-3.1 4.2-7.4 4.3-9.7 4.3-9.4 0-4.1-10.9 6.7-8.3 1.8-2.4 4.6-12.6-.8-12.6-2.6 0-5.8 3.4-8.2 7.6-4.6 12.5-8.5 26-6 38.7 0 .2.1.3-.1.4-.2.4-1 .6-1.9.6-1.8 0-3 0-3.5-.4-4.1-2.6-.8-17.1.5-21.5 2.8-10.2 8-26.7 9.7-29 1-1.4 6.9-3 6.2-1.4-.6 1.4-1.3 3-1.8 4.6zM421 110c-4.4-1-7.2 1.4-5 1.9 1.9.6 4-.2 5-1.9z"/><path class="st0" d="M465.2 104c0 .6-.2 1-.8 1.8l-.1.1c0 .1-.1.1-.2.2l-.1.1-.2.2c-4.6 5.5-9.4 8.3-12.3 8.3-3.1 0-4.6-1.8-4.6-4.7 0-.5 0-1 .1-1.5-3.3 3.8-6.4 6.2-9.4 6.2-.5 0-.9-.1-1.4-.2-2-.6-3-2.2-3-4.6 0-1 .2-2.1.6-3.1 1.4-5 3.4-9.8 4.8-13.6.3-.8.4-1.1.8-1.9 1-1.9 3.7-2.9 5.4-2.9h.5c.8.2 1 .4 1 .7 0 .3-.2.6-.3 1 0 .1-.1.2-.1.2l-2.5 6.5c-1.2 3.4-2.6 7.5-3.7 11-.2.6-.3 1.2-.3 1.7 0 .8.2 1.2.7 1.2 1.8 0 6.4-5.6 9.3-10.5 1-2.6 1.9-5 2.7-7.1.3-.8.3-1.1.7-1.9 1.1-1.9 3.8-2.9 5.4-2.9h.5c.8.2 1 .4 1 .8 0 .3-.2.7-.3 1.2l-2.5 6.5c-1.3 3.4-2.7 7.5-3.8 11-.2.6-.3 1.2-.3 1.7 0 .6.2 1.1.9 1.1 1.3 0 4.6-2.2 8.6-7 .4-.4 1-.6 1.4-.6 1 .2 1.5.4 1.5 1z"/><path class="st0" d="M487.6 104.2c0 .6-.1 1.1-1 2.2-4.2 5.1-10.2 8.6-15.9 8.6-5.6 0-9.7-3.8-9.7-9.3 0-8.4 6.8-17 15.8-17 3.8 0 6.6 2.2 6.6 5.4 0 5.1-4.3 6.9-7 6.9-1.3 0-2.2-.3-2.2-1 0-.2.1-.4.2-.6 1-1.1 2-4 2-5.8 0-1-.3-1.8-1-1.8-4.3 0-8.1 7.1-8.1 12.6 0 4 2.6 6.2 6.2 6.2 3.5 0 7.8-1.8 11.8-6.6.4-.5 1-.7 1.4-.7.5 0 .9.3.9.9z"/><path class="st0" d="M510.2 104.2c0 .6-.1 1.1-1 2.2-4.2 5.1-10.2 8.6-15.9 8.6-5.6 0-9.7-3.8-9.7-9.3 0-8.4 6.8-17 15.8-17 3.8 0 6.6 2.2 6.6 5.4 0 5.1-4.3 6.9-7 6.9-1.3 0-2.2-.3-2.2-1 0-.2.1-.4.2-.6 1-1.1 2-4 2-5.8 0-1-.3-1.8-1-1.8-4.3 0-8.1 7.1-8.1 12.6 0 4 2.6 6.2 6.2 6.2 3.5 0 7.8-1.8 11.8-6.6.4-.5 1-.7 1.4-.7.5 0 .9.3.9.9z"/><path class="st0" d="M510.1 114.9c-3.2 0-4.6-1.8-4.6-4.7 0-1 .2-2.1.6-3.1 1.4-5 3.4-9.8 4.8-13.6.3-.8.3-1.1.8-1.9 1-1.9 3.7-2.9 5.4-2.9h.5c.8.2 1 .3 1 .7 0 .3-.2.8-.4 1.3l-2.5 6.5c-1.3 3.4-2.6 7.5-3.7 11-.2.6-.3 1.2-.3 1.7 0 .6.2 1.1.8 1.1 1.3 0 4.6-2.2 8.6-7 .4-.4 1-.6 1.5-.6.6 0 1 .2 1 .9 0 .6-.4 1.2-1.3 2.3-4.5 5.5-9.2 8.3-12.2 8.3zm3.3-32.3c0-2.5 2.6-4.9 5.2-4.9 1.9 0 3.4 1.1 3.4 3.2 0 2.2-2.4 4.8-5.2 4.8-1.9 0-3.4-1.3-3.4-3.1z"/><path class="st0" d="M548.8 104.4c0 .5-.4 1.3-1.3 2.2-4.6 5.5-8.2 8.3-11.1 8.3-3 0-4.5-1.8-4.5-4.6 0-1 .2-2.1.5-3.2 1.8-6.3 4.6-10.2 4.6-11.4 0-.3-.2-.5-.4-.5-1.4 0-6.2 4.1-9.2 8.1l-.9 2.2c-.2.4-.4.8-.5 1.2l-1.4 3.9c-1 2.6-3.7 4.3-5.4 4.3-.9 0-1.4-.4-1.4-1.4 0-.3.1-.7.2-1.3 2.2-6.4 4.3-12.5 6.7-18.8.3-.8.3-1.1.8-1.9 1-1.9 3.7-2.9 5.4-2.9h.5c.8.2 1 .3 1 .7 0 .3-.2.8-.4 1.3l-2.1 5.4c4.1-3.9 9.1-6.6 12.1-6.6 1.4 0 2.5.7 2.5 2.2 0 .9-.4 2.3-1.2 3.9-1.6 3.4-3.8 8.2-5 12.6-.2.7-.7 2.4.6 2.4 1.4 0 3.3-1.8 7.4-6.6.4-.4 1-.6 1.4-.6.7.1 1.1.3 1.1 1.1z"/><path class="st0" d="M574.5 103.9c0 .6-.4 1.4-1.2 2.5-.7 1-4.2 4.4-7.2 4.4-1 0-2-.2-2.9-.5-3.2 3.1-7 4.6-10.3 4.6-5.1 0-8.1-4-8.1-9 0-8.1 7.4-17.4 15.5-17.4h.6c1.4.1 4.5.5 4.6 2.6 0 1.6-1.4 2-2.7 2h-.4c-.3 0-.7-.1-1-.1-1.7 0-3.6.4-5.4 1.6-2.8 2-4.8 5.7-5.1 8.6-.1.4-.1.8-.1 1.1 0 3.8 2.3 6.7 5 6.7 1.4 0 3.1-.8 4.5-2.2-2.2-2-3.1-4.2-3.1-6.2 0-4.6 4.6-8.6 7.9-8.6 1.9 0 3.4 1.3 3.4 4.5 0 2.9-.6 5.4-2.6 8.3 2.7.8 4-.6 6.1-3.1.3-.5.8-.7 1.4-.7.6 0 1.1.2 1.1.9zm-10.9-3.1c0-1.4-.5-2-1-2-.7 0-1.5 1-1.5 2.5 0 1 .4 2.4 1.5 4 .7-2 1-3.4 1-4.5z"/><g><path class="st1" d="M57.9 70.6s-4.8 60.9 52.8 64.5c0 0-9.1 8.5-30.7 10s-43.8-12.6-49.4-72.4l27.3-2.1z"/><path class="st0" d="M151.4 71.3c-6.8-3.3-13.2-1.7-18 1.1 0-1.4-.1-2.3-.1-2.6-.1-2.2-2-4-4.2-4h-1.4c.3-2.9.3-5.7-.2-8.6-3-17.8-20.4-29.5-21.1-30-1.9-1.3-4.4-.8-5.7 1-5.4 7.5-15.4 8.4-25.9 9.4-8.9.9-18.2 1.7-25.6 6.7-8 5.3-12.8 11.8-14.1 19.3-.1.7-.2 1.5-.3 2.2H31c-2.2 0-4.1 1.8-4.2 4-.1 2.5-2.6 61.9 36.8 79.3.5.2 1.1.4 1.7.4h29.5c.6 0 1.2-.1 1.7-.4 12.4-5.5 20.6-15.1 26.1-25.8 23.1-2 34-17.6 36.4-30.4 1.9-10-1.1-18.4-7.6-21.6zM43.3 65.1c.9-5.1 4.4-9.8 10.5-13.8 5.7-3.8 13.5-4.5 21.7-5.3 10.1-1 21.3-2 29.1-9.6 4.5 3.7 12.8 11.9 14.6 22.2.4 2.4.4 4.8 0 7.2h-76c0-.2.1-.4.1-.7zm50.6 76H66.2c-27.9-13.1-30.8-53.8-31-66.8h89.7c-.2 12.9-3 53.7-31 66.8zm56.9-49.7c-1.7 9-9 19.8-24.2 22.9 4-11 5.7-22.3 6.4-30.7 0-.1.1-.1.2-.1.3-.3 7-8.2 14.6-4.5 2.8 1.3 4 6.5 3 12.4z"/></g></symbol><symbol id="danger" viewBox="0 0 19 19"><path d="M10.25 9.5l4.08-3.63a.5.5 0 1 0-.66-.75L9.5 8.83 5.33 5.12a.5.5 0 1 0-.66.75L8.75 9.5l-4.08 3.63a.5.5 0 0 0 .66.75l4.17-3.71 4.17 3.71a.5.5 0 1 0 .66-.75z"/><path d="M16.22 2.78A9.5 9.5 0 1 0 19 9.5a9.44 9.44 0 0 0-2.78-6.72zM9.5 18A8.5 8.5 0 1 1 18 9.5 8.51 8.51 0 0 1 9.5 18z"/></symbol><symbol id="list" viewBox="0 0 20 20"><title>list</title><path class="cls-1" d="M317.66 258a.5.5 0 0 0-.38-.18h-.51c-5 0-9 0-12 .7a8.74 8.74 0 0 0-3.72 1.74 6.69 6.69 0 0 0-2.09 3.43 8.46 8.46 0 0 0 .14 4.44 6 6 0 0 0 .91 1.8 13.72 13.72 0 0 0-2.27 7.4.5.5 0 0 0 1 0 14 14 0 0 1 4.35-9.65 16 16 0 0 1 3.82-2.85 7.69 7.69 0 0 1 3.33-1 .5.5 0 0 0 0-1 8.53 8.53 0 0 0-3.79 1.12 17 17 0 0 0-4.06 3 17.93 17.93 0 0 0-1.77 2.07 5 5 0 0 1-.56-1.21 7.51 7.51 0 0 1-.13-3.87c1.43-5.12 6.86-5.14 16.72-5.14-1.17 6.29-3.37 10.36-6.52 12.1a8.1 8.1 0 0 1-6.93.28 5.37 5.37 0 0 1-.7-.35.5.5 0 0 0-.51.86 6.34 6.34 0 0 0 .83.42 9.92 9.92 0 0 0 2.86.69h.81a8.39 8.39 0 0 0 4.11-1.05 11.13 11.13 0 0 0 4.14-4.3 27.77 27.77 0 0 0 3-9.09.5.5 0 0 0-.11-.41z" transform="translate(-297.78 -257.81)"/></symbol><symbol id="logo-2" viewBox="0 0 72.21 61.2"><title>logo-2</title><path d="M.6 18.9a.7.7 0 0 1-.46-.12.54.54 0 0 1-.13-.42 3.94 3.94 0 0 1 .06-.45l.15-.72q.36-1.92.63-2.88a7 7 0 0 0 .24-1.23.67.67 0 0 0-.15-.47 4.14 4.14 0 0 0-.63-.49 8.64 8.64 0 0 0 1-.59 1.19 1.19 0 0 0 .41-.51 12.59 12.59 0 0 0 .4-1.27q.75-2.49 2.31-7.47l.2-.52a2.46 2.46 0 0 1 .52-.85 1.26 1.26 0 0 1 1-.54.6.6 0 0 1 .6.57 5 5 0 0 1 .06.6 9.15 9.15 0 0 1-.26 1.64q-.18.69-.48 2.07l-.62 2.61q-.41 1.65-.71 2.82a2.7 2.7 0 0 1-.09.41 1.26 1.26 0 0 0-.06.38.35.35 0 0 0 .21.36 2.85 2.85 0 0 0 .84.12 2.35 2.35 0 0 1 .78.18l.34.09a1.59 1.59 0 0 0 .41.06.76.76 0 0 0 .51-.18 1.5 1.5 0 0 0 .51-.65 9.52 9.52 0 0 0 .36-1.07l.15-.63.63-2q.51-1.65.85-2.7a15.29 15.29 0 0 1 .85-2.07 4 4 0 0 1 .45-.84 1.4 1.4 0 0 1 1.35-.6.46.46 0 0 1 .48.51 1.29 1.29 0 0 1-.09.45q-.39 1.47-.72 3.12-.12.45-.51 2.16t-.87 3.21a43.48 43.48 0 0 0-1.29 5.19 3 3 0 0 1-.65 1.37 2.74 2.74 0 0 1-1.28.71 2 2 0 0 1-.57.09.69.69 0 0 1-.78-.77 1.87 1.87 0 0 1 0-.36q.39-2 .69-3.18a2.63 2.63 0 0 0 .08-.34.43.43 0 0 0-.54-.42 4.28 4.28 0 0 1-.69-.14l-.66-.17a4 4 0 0 0-.75-.09.61.61 0 0 0-.52.23 3.48 3.48 0 0 0-.37.94 11.48 11.48 0 0 0-.3 1.29q-.27 1.11-.42 1.59a3.34 3.34 0 0 1-.78 1.36 2.44 2.44 0 0 1-1.29.62 2.05 2.05 0 0 1-.4-.01zM13.04 16.83a2.08 2.08 0 0 1-.67-1.68 6.12 6.12 0 0 1 .12-1 15.84 15.84 0 0 1 1.18-3.45 10.73 10.73 0 0 1 2.11-3 12.21 12.21 0 0 1 3.6-2.46A2.38 2.38 0 0 1 20.46 5a2.49 2.49 0 0 1 1.41.33 1.07 1.07 0 0 1 .48.93 3.23 3.23 0 0 1-.57 1.62 5.18 5.18 0 0 1-1.11 1.38 19.61 19.61 0 0 1-4.65 3.44 1.91 1.91 0 0 0-.58.45 1.53 1.53 0 0 0-.29.6q-.06.21-.18.72a3.92 3.92 0 0 0-.12.87 1 1 0 0 0 .36.87q.48.21 2.1-.73a26.18 26.18 0 0 0 3.43-2.44 21.11 21.11 0 0 0 2.81-2.72l1.35-1.74a2.07 2.07 0 0 1 .39-.36.26.26 0 0 1 .33 0 .26.26 0 0 1 .09.18 1.44 1.44 0 0 1-.27.57 46.18 46.18 0 0 1-3.6 4.08 34.66 34.66 0 0 1-3.54 3.21A6.52 6.52 0 0 1 15 17.4a3 3 0 0 1-1.96-.57zm5.79-6.9a9.66 9.66 0 0 0 2.06-2.13 2.5 2.5 0 0 0 .57-1.17 1.14 1.14 0 0 0-.15-.73.59.59 0 0 0-.51-.25 1.52 1.52 0 0 0-.78.33 10.36 10.36 0 0 0-4.11 5.88 29.79 29.79 0 0 0 2.92-1.93z"/><path d="M21.33 16.53a12.33 12.33 0 0 1 2.4-7 5.88 5.88 0 0 1 2.23-1.71 6.3 6.3 0 0 1 2.69-.78h.33a2.14 2.14 0 0 1 1.71 1.32 7.8 7.8 0 0 1 .39.9 4.67 4.67 0 0 0 .47-.56 3.65 3.65 0 0 1 1-.81 1.39 1.39 0 0 1 .6-.19.44.44 0 0 1 .48.51 1.65 1.65 0 0 1-.06.33 47.36 47.36 0 0 0-1.11 5.22 13.56 13.56 0 0 0-.21 2.19 5.51 5.51 0 0 0 0 .69q.18.15.54-.15a17.23 17.23 0 0 0 1.48-1.63q1.13-1.33 3.73-4.58l1.35-1.74a2.07 2.07 0 0 1 .39-.36.26.26 0 0 1 .42.18 1.44 1.44 0 0 1-.27.57l-1.25 1.77q-2.55 3.36-4.17 5.35a10.46 10.46 0 0 1-2.22 2.25 4.17 4.17 0 0 1-.81.09q-1.71 0-1.71-2 0-.75.09-2l-.87.93q-1.38 1.53-1.74 2a4.13 4.13 0 0 1-1.5 1.17 4.22 4.22 0 0 1-1.8.42 2.84 2.84 0 0 1-1.56-.42 2.22 2.22 0 0 1-1.02-1.96zm8.61-4.08a2.76 2.76 0 0 0 .6-1.44.8.8 0 0 0 0-.24l-.18-.72q0-.09-.17-.67a2.79 2.79 0 0 0-.43-1 1.16 1.16 0 0 0-1-.72 2.39 2.39 0 0 0-1.23.51 4.83 4.83 0 0 0-1.5 1.65 27 27 0 0 0-2 4.62 7.09 7.09 0 0 0-.33 2.07q0 1.26.54 1.26a1.81 1.81 0 0 0 .93-.45 21.41 21.41 0 0 0 4.77-4.87z"/><path d="M42.74 15.32q1.69-2.17 3.17-4.46.15-.24.24-.36l.12-.18 1.35-1.74a2.07 2.07 0 0 1 .39-.36.26.26 0 0 1 .42.18 1.44 1.44 0 0 1-.27.57q-.63.81-1.3 1.88l-.92 1.43q-1.11 1.83-2 3a16.68 16.68 0 0 1-2 2.3 4.49 4.49 0 0 1-1.33 1 3.21 3.21 0 0 1-1.37.33 2.17 2.17 0 0 1-1.45-.52 2.23 2.23 0 0 1-.74-1.48q-.06-.6-.06-.9a8.39 8.39 0 0 1 .39-2.31l.17-.65q1.05-3.84 1.86-6.15.15-.33 1.05-2.73.78-2.19 1-2.7A1.94 1.94 0 0 1 43.23 0a.69.69 0 0 1 .75.81 10.77 10.77 0 0 1-.43 2.06q-.51 1.67-.63 2l-.29.83-.75 2.58q-.3 1-.78 2.64t-.84 2.78a12 12 0 0 0-.71 3.16 1.08 1.08 0 0 0 .39 1 7.27 7.27 0 0 0 2.8-2.54z"/><path d="M56.61 8.4a1.45 1.45 0 0 1-.27.57q-.63.81-1.3 1.88l-.92 1.43q-1.11 1.83-2 3a16.67 16.67 0 0 1-2 2.3 4.51 4.51 0 0 1-1.33 1 3.21 3.21 0 0 1-1.37.33 2.17 2.17 0 0 1-1.46-.52 2.23 2.23 0 0 1-.74-1.48q-.06-.6-.06-.9a8.39 8.39 0 0 1 .39-2.31l.18-.66q1.05-3.84 1.86-6.15.3-.66.84-2.25l.54-1.41h-.93c-.42 0-.49-.12-.49-.2a.61.61 0 0 1 .63-.18h.93a12.24 12.24 0 0 1 .54-1.38A1.94 1.94 0 0 1 51.45 0a.69.69 0 0 1 .75.81 2.67 2.67 0 0 1-.09.63 12.68 12.68 0 0 1-.42 1.44h.93c.38 0 .56.07.54.21a.35.35 0 0 1-.32.13h-1.29l-.73 2.48-.75 2.58q-.3 1-.78 2.64t-.84 2.78a12 12 0 0 0-.72 3.18 1.08 1.08 0 0 0 .39 1 7.28 7.28 0 0 0 2.8-2.52q1.69-2.16 3.17-4.47.15-.24.24-.36l.12-.18 1.35-1.74a2.07 2.07 0 0 1 .39-.36.26.26 0 0 1 .42.15z"/><path d="M60.66 20.1a1.36 1.36 0 0 1-.36-1.11 16.53 16.53 0 0 1 .87-4.53l.38-1.05q.09-.27.48-1.35t.78-2q.39-.93.78-1.68l.06-.12c.06-.16.15-.38.27-.66a1.86 1.86 0 0 0 .18-.69.5.5 0 0 0-.3-.48.54.54 0 0 0-.25-.07 2.88 2.88 0 0 0-1.53 1 33.27 33.27 0 0 0-4 4.58 18.75 18.75 0 0 0-2.54 4.88 7.31 7.31 0 0 1-.66 1.41 1.9 1.9 0 0 1-1.2.84l-.45.06a.46.46 0 0 1-.54-.51 2.61 2.61 0 0 1 .06-.39q.48-2 1.23-4.92l2.46-8.43a17.75 17.75 0 0 1 1.32-3.3 3.84 3.84 0 0 1 .48-.75 1.29 1.29 0 0 1 1.08-.57 1.07 1.07 0 0 1 .3 0 .55.55 0 0 1 .51.6v.24a4.81 4.81 0 0 1-.27 1.2l-2 7.2q0 .15-.17.57a1.55 1.55 0 0 0-.08.75h.12a.48.48 0 0 0 .42-.23 2.16 2.16 0 0 1 .24-.31Q59.46 9 60.55 7.77a7.33 7.33 0 0 1 3.12-2 3.39 3.39 0 0 1 .88-.16 1.31 1.31 0 0 1 .95.33 1.27 1.27 0 0 1 .34 1 2.76 2.76 0 0 1-.09.66 55.2 55.2 0 0 1-1.71 5.76 24.8 24.8 0 0 0-.83 2.73 11 11 0 0 0-.41 2.34.42.42 0 0 0 .15.42q1.32-.48 4.17-4.41t3-4.08l1.35-1.74a2.07 2.07 0 0 1 .39-.36.26.26 0 0 1 .33 0 .26.26 0 0 1 .09.18 1.43 1.43 0 0 1-.27.57q-1.23 1.62-2.58 3.54-3.45 4.77-5.16 6.72a3.66 3.66 0 0 1-2.46 1.14 1.27 1.27 0 0 1-1.15-.31zM6.38 61.2a1.66 1.66 0 0 1-1.41-.69 1.72 1.72 0 0 1-.36-1.05 3.25 3.25 0 0 1 .66-1.71 12.62 12.62 0 0 1 1.6-1.92 22.89 22.89 0 0 1 2.17-1.86l.35-.27.44-.29a3.63 3.63 0 0 0 1.56-1.46 5.08 5.08 0 0 0 .54-2.21l-.51.54-.52.58c-.21.23-.37.42-.5.58a5.25 5.25 0 0 1-1.48 1.28 7 7 0 0 1-1.85.7 3.7 3.7 0 0 1-.78.09 1.74 1.74 0 0 1-1.22-.42 1.34 1.34 0 0 1-.44-1.11 20.53 20.53 0 0 1 .6-4.28 13.48 13.48 0 0 1 1.71-3.88 1.09 1.09 0 0 1 .15-.24 1.36 1.36 0 0 1 1.14-.87.64.64 0 0 1 .75.69 1.61 1.61 0 0 1-.09.51 35.48 35.48 0 0 0-.78 3.69l-.26 1.51a8.61 8.61 0 0 0-.3 1.92 2.73 2.73 0 0 0 0 .48q.09.57.36.57a1.17 1.17 0 0 0 .75-.38 18.51 18.51 0 0 0 3.18-3.51q.93-1.41 1.47-2.36a12.58 12.58 0 0 0 .9-1.93 4.64 4.64 0 0 1 .45-.78.8.8 0 0 1 .36-.33 1.73 1.73 0 0 1 .53-.09.56.56 0 0 1 .63.63q-.15.81-.63 3-.54 2.4-.69 3.3a5.46 5.46 0 0 0 1.85-1.16 16.56 16.56 0 0 0 2-2.08l1.35-1.74a2.1 2.1 0 0 1 .39-.36.26.26 0 0 1 .42.18 1.44 1.44 0 0 1-.27.57l-.69.93a32 32 0 0 1-2.27 2.73 11.08 11.08 0 0 1-2.33 2 5.82 5.82 0 0 0-1 .81 1.91 1.91 0 0 0-.45.9 13.67 13.67 0 0 1-.78 2.29q-.53 1.21-1.37 2.8a7.09 7.09 0 0 1-4.11 3.42 4 4 0 0 1-1.22.28zm.81-1a1.73 1.73 0 0 0 .94-.3 2.5 2.5 0 0 0 .79-.87 13 13 0 0 0 .87-1.86q.36-1 .81-2.4l.54-1.62a23.9 23.9 0 0 0-2.59 1.87 10.69 10.69 0 0 0-1.92 2 5.73 5.73 0 0 0-.72 1.14 1.63 1.63 0 0 0-.12.66 1.38 1.38 0 0 0 .27.83 1.42 1.42 0 0 0 .75.53 1.17 1.17 0 0 0 .38.06z"/><path d="M17.55 52.83a2.07 2.07 0 0 1-.67-1.68 6.14 6.14 0 0 1 .12-1 15.84 15.84 0 0 1 1.18-3.45 10.73 10.73 0 0 1 2.12-3 12.22 12.22 0 0 1 3.6-2.46 2.38 2.38 0 0 1 1.08-.24 2.49 2.49 0 0 1 1.41.33 1.07 1.07 0 0 1 .48.93 3.23 3.23 0 0 1-.57 1.62 5.18 5.18 0 0 1-1.11 1.38 19.61 19.61 0 0 1-4.64 3.44 1.9 1.9 0 0 0-.58.45 1.52 1.52 0 0 0-.29.6c0 .14-.1.38-.18.72a3.93 3.93 0 0 0-.12.87 1 1 0 0 0 .36.87q.48.21 2.1-.73a26.28 26.28 0 0 0 3.43-2.45 21.14 21.14 0 0 0 2.81-2.7l1.35-1.74a2.09 2.09 0 0 1 .39-.36.26.26 0 0 1 .33 0 .26.26 0 0 1 .09.18 1.44 1.44 0 0 1-.27.57 46.26 46.26 0 0 1-3.6 4.08 34.66 34.66 0 0 1-3.54 3.21 6.52 6.52 0 0 1-3.28 1.13 3 3 0 0 1-2-.57zm5.79-6.9a9.69 9.69 0 0 0 2.06-2.13 2.5 2.5 0 0 0 .57-1.17 1.14 1.14 0 0 0-.15-.73.59.59 0 0 0-.51-.25 1.52 1.52 0 0 0-.78.33 10.37 10.37 0 0 0-4.11 5.88 29.88 29.88 0 0 0 2.92-1.93z"/><path d="M25.85 52.53a12.33 12.33 0 0 1 2.4-7 5.87 5.87 0 0 1 2.23-1.71 6.29 6.29 0 0 1 2.69-.78h.33a2.14 2.14 0 0 1 1.71 1.32 7.86 7.86 0 0 1 .39.9 4.71 4.71 0 0 0 .51-.56 3.65 3.65 0 0 1 .93-.81 1.38 1.38 0 0 1 .63-.19.44.44 0 0 1 .48.51 1.64 1.64 0 0 1-.06.33 47.27 47.27 0 0 0-1.11 5.22 13.61 13.61 0 0 0-.21 2.19 5.4 5.4 0 0 0 0 .69q.18.15.54-.15a17.32 17.32 0 0 0 1.48-1.63q1.16-1.3 3.76-4.54l1.35-1.74a2.09 2.09 0 0 1 .39-.36.26.26 0 0 1 .33 0 .26.26 0 0 1 .09.18 1.43 1.43 0 0 1-.27.57l-1.28 1.73q-2.55 3.36-4.17 5.36a10.49 10.49 0 0 1-2.22 2.29 4.2 4.2 0 0 1-.81.09q-1.71 0-1.71-2 0-.75.09-2l-.87.93q-1.38 1.53-1.74 2a4.13 4.13 0 0 1-1.5 1.17 4.22 4.22 0 0 1-1.8.42 2.84 2.84 0 0 1-1.56-.42 2.22 2.22 0 0 1-1.02-2.01zm8.61-4.08a2.76 2.76 0 0 0 .6-1.44.79.79 0 0 0 0-.24l-.18-.72c0-.06-.07-.29-.17-.68a2.79 2.79 0 0 0-.43-1 1.16 1.16 0 0 0-1-.72 2.39 2.39 0 0 0-1.23.51 4.82 4.82 0 0 0-1.5 1.65 26.94 26.94 0 0 0-2 4.62 7.09 7.09 0 0 0-.33 2.07q0 1.26.54 1.26a1.81 1.81 0 0 0 .93-.45 21.4 21.4 0 0 0 4.77-4.86z"/><path d="M48.77 56.1a1.36 1.36 0 0 1-.36-1.11 16.53 16.53 0 0 1 .87-4.53l.36-1q.09-.27.48-1.35t.78-2q.39-.93.78-1.68l.06-.12c.06-.16.15-.38.27-.66a1.86 1.86 0 0 0 .18-.69.5.5 0 0 0-.3-.48.54.54 0 0 0-.24-.06 2.88 2.88 0 0 0-1.53 1 33.27 33.27 0 0 0-4 4.58 18.74 18.74 0 0 0-2.57 4.77 7.3 7.3 0 0 1-.66 1.41 1.9 1.9 0 0 1-1.2.84l-.45.06a.46.46 0 0 1-.54-.51 2.61 2.61 0 0 1 .06-.39q.48-2 1.23-4.92l2.46-8.43a17.75 17.75 0 0 1 1.32-3.3 3.84 3.84 0 0 1 .48-.75 1.29 1.29 0 0 1 1.08-.57 1.07 1.07 0 0 1 .3 0 .55.55 0 0 1 .51.6v.24a4.82 4.82 0 0 1-.27 1.2l-2 7.2q0 .15-.17.57a1.55 1.55 0 0 0-.08.75h.12a.48.48 0 0 0 .42-.23 2.15 2.15 0 0 1 .24-.31q1.15-1.23 2.25-2.46a7.33 7.33 0 0 1 3.12-2 3.39 3.39 0 0 1 .84-.15 1.31 1.31 0 0 1 .95.33 1.27 1.27 0 0 1 .34 1 2.76 2.76 0 0 1-.09.66 55.2 55.2 0 0 1-1.71 5.76 24.82 24.82 0 0 0-.83 2.73 11 11 0 0 0-.41 2.34.42.42 0 0 0 .15.42q1.32-.48 4.17-4.41t3-4.08l1.37-1.79a2.08 2.08 0 0 1 .39-.36.26.26 0 0 1 .33 0 .26.26 0 0 1 .09.18 1.43 1.43 0 0 1-.27.57q-1.23 1.62-2.58 3.54-3.45 4.77-5.16 6.72a3.66 3.66 0 0 1-2.46 1.14 1.27 1.27 0 0 1-1.12-.27zM58.28 54.18a2.58 2.58 0 0 1 .6-1.65 1.68 1.68 0 0 1 1.29-.75.84.84 0 0 1 .64.24 1 1 0 0 1 .23.69 2.15 2.15 0 0 1-.6 1.52 1.84 1.84 0 0 1-1.38.64.65.65 0 0 1-.78-.69zm2.27-5.82a.62.62 0 0 1-.63-.72v-.33a1.88 1.88 0 0 1 .09-.6q.45-1.59.93-3.81.6-2.46 1-3.9a24.88 24.88 0 0 1 1-3 7.44 7.44 0 0 1 .72-1.53 1.37 1.37 0 0 1 1.17-.66.51.51 0 0 1 .48.21 1.23 1.23 0 0 1 .12.6 24.9 24.9 0 0 1-1 6.6 10.75 10.75 0 0 1-.4 1.5q-.29.84-.62 1.65-.63 1.62-.9 2.58a1.85 1.85 0 0 1-1.38 1.29 2.17 2.17 0 0 1-.58.12z"/></symbol><symbol id="logo" viewBox="0 0 200 180"><path d="M23.8 60.7c0-.4-.1-.8-.1-.9V59c0-.3.1-.4.2-.4s.4-.2.7-.4c-.1-.1-.2-.2-.2-.3 0-.1-.1-.2-.2-.4-.1.1-.2.1-.2.2 0 0-.1.1-.3.2v-.5-.5c.1-.2.1-.4.2-.4.1-.1.1-.2.2-.4v-.5c0-.2.1-.6.2-1.1.1-.4.1-.8.1-1v-.4l.1-.4v-.5s-.1-.1-.2-.3c-.1-.2-.1-.3-.1-.2.1.1.1 0 .1-.3v-.1h-.1v-.2c-.1-.2-.1-.4-.1-.8s.1-.7.2-1.1c.1-.4.2-.7.3-1.1.1-.4.2-.6.2-.9l.2-.7v-.6V45.3s-.1-.1-.1-.2l.2-.1c.2-.1.3-.2.4-.2l.3-.3.2-.2s.1-.1.3-.2c.2-.1.3-.1.4-.1h.8c.4.1.8.3 1.2.7.2.3.4.7.6 1.2.2.5.3 1 .5 1.5.1.5.3 1.1.3 1.6.1.5.1.9.2 1.2l.1 2.2c0 .4 0 .6.1.8V54.9c0 .3.1.4.1.4s.1.1.1.3l.1 5.2v.8l.2.4c.1.2.1.4 0 .4s0 .2.1.6c.1.3.2.5.2.6v.8c0 .2.1.6.2 1.1.3-.2.5-.5.6-.8.2-.3.3-.6.5-.9l.9-1.6c.2-.3.5-.6.8-1 .3-.4.7-.8 1-1.1.3-.4.7-.7 1-1.1.3-.3.5-.6.6-.8.1-.3.2-.6.2-.9v-1c0-.3-.1-.6-.1-1v-1c.1-.4.1-.7.1-1.2 0-.4 0-.9.1-1.3V51c0-.3-.1-.6-.1-.8V50v-.1-.1l.1-1.2c.2-.7.2-1.3.2-2s0-1.3.2-1.9c0-.1.1-.3.1-.4 0-.1 0-.2.1-.4v-.4-.4l.1-.3v-.2-.2c.4-.1.6-.1.7-.1.1.1.2.1.5.1V42v-.4l1.8-.4h.6s.1.1.3.2c.4.1.6.3.7.4.1.1.2.4.4.8.2.3.3.4.3.4 0-.1.1 0 .2.4.1.3.1.6 0 .8-.1.2-.2.5-.2.8l-.2.7-.1.4-.2.4c-.2.9-.3 1.7-.2 2.5.1.8.2 1.6.3 2.5l.1 1c0 .3.1.4.1.4s.1.1.1.3l.1.9c0 .2 0 .4.1.4 0 .1.1.2 0 .5l.1 1.8c0 .3 0 .6.1.8 0 .2.1.4 0 .8s-.1.7 0 .9c0 .2.1.5.1.9v.8c0 .2 0 .5.1.9l.4 5.3c.1.5.2 1 .2 1.7s0 1.3.1 1.7c0 .3.1.6.1 1 0 .3.1.6.1.8.1.2.1.3.1.4 0 .1.1.2.1.6l1.5 7.1c.2.5.3.9.5 1.3s.3.8.5 1.2c.3.7.6 1.5 1 2.2.3.7.7 1.4 1.2 2l1.5 1.5h.1l1 .9c.2.1.5.3.7.4.2.1.4.3.6.5h-.1c-.3.2-.5.4-.6.5-.1.1-.2.2-.2.3 0 .1-.1.1-.2.2l-.4.4-.2.2c-.2.1-.3.2-.3.2s-.1.1-.3.1c-.3.1-.7.2-1.1.4-.4.1-.8.2-1.3.3H48.4c-.7.1-1.2 0-1.5-.1-.3-.1-.7-.3-1.3-.5-.3-.1-.4-.1-.3-.1l-.2-.2-.9-.8-.7-.4c-.2-.3-.4-.6-.6-.8-.2-.2-.4-.5-.6-.8l-.9-1.9c-.1-.4-.3-.7-.4-.9l-.3-.6c-.1-.2-.2-.3-.2-.5-.1-.2-.1-.4-.2-.7-.1-.3-.1-.5-.2-.6-.1-.2-.1-.3-.2-.5-.1-.1-.1-.3-.2-.5s-.2-.5-.2-1c-.1-.7-.3-1.3-.6-2-.3-.6-.4-1.3-.4-2 0-.6-.1-1.3-.3-1.9-.2-.7-.3-1.3-.3-2v-.4l-.2-.6c-.1-.1-.1-.2-.1-.3v-.6c0-.3 0-.7-.1-1-.1-.3-.1-.7 0-1 0-.2 0-.6-.1-1.4-.1-.8-.1-1.5-.1-2.2 0-.3 0-.4.1-.4v-.3c-.1-.4-.2-.8-.2-1-.2-.1-.2-.5-.2-1v-1.2c0-.3 0-.7-.1-1-.1-.3-.3-.3-.6.1-.1.1-.2.2-.2.3 0 .1-.1.2-.1.3-.4.7-.9 1.4-1.3 2.1-.5.7-.8 1.4-1 2.3-.1.5-.2.9-.3 1.1-.1.2-.1.5-.2.7-.1.2-.1.4-.1.7 0 .3 0 .7-.1 1.3-.1.8-.1 1.6 0 2.2 0 .7.2 1.4.4 2.3.1.3.1.6.1.8v.7c.1.6.1 1.1.2 1.6s.2 1 .4 1.6c.1.4.2.7.2.9 0 .2 0 .4.1.5 0 .2.1.3.2.6.1.2.2.6.4 1.1 0 0-.1 0-.1.1s0 0-.1.1l-.1.1-.1.2c-.1.1-.1.2-.1.2s-.1.1-.3.2c-.2-.4-.5-.6-.8-.4-.3.2-.5.4-.6.8v.3s.1 0 .1.1c-.7 0-1.1.2-1.5.5-.3.3-.7.5-1 .5H30.1c-.6 0-1-.3-1.2-.7-.2-.4-.4-.8-.8-1.2-.3-.4-.5-.8-.7-1.2-.2-.4-.3-.8-.5-1.2-.2-.3-.3-.6-.4-.8-.1-.2-.2-.5-.3-.9l-.2-.9v-.4l.3-.2c-.2-.2-.3-.2-.4-.2 0 0-.1 0-.1-.1-.1-.4-.2-.6-.2-.8v-.3c0-.1 0-.2.1-.3V76l-.3-1.4v-.1l-.2-.3v-.4-.2-.2c0-.1 0-.3-.1-.6-.3.2-.4.2-.3.2.1 0 .1-.1 0-.1v-.7c0-.3-.1-.7-.1-1-.1-.4-.1-.7-.2-1-.1-.3-.1-.6-.2-.8.2 0 .3.1.3 0h.3c-.1-.3-.1-.6-.1-.7v-.6c-.1-.1-.1-.2-.1-.2l-.1-.1c.1-.4.1-.6.1-.7 0-.1-.1-.3-.2-.7-.1-.6-.1-.9 0-1 .1-.1 0-.2-.4-.3l-.1-.2c.3-.1.4-.2.4-.1-.1 0 0-.1.1-.3l-.4.1c-.1-.4-.2-.7-.1-1 0-.2.1-.4.1-.5.1-.1.1-.2.2-.3s.1-.2.2-.4c-.1 0-.2-.1-.1-.1s0 0-.1.1c0 0-.1 0-.1.1s-.1.1-.1.1c-.1-.3-.1-.6-.1-.8s-.2-.7-.2-1.1zm.1-.7c.1.1.2.2.1.2 0 0 0 .1.1.3l.2-.6-.4.1zm.8-.7c-.4-.3-.6-.3-.6 0s.1.4.4.3c0-.2 0-.2-.1-.2 0 .1.1 0 .3-.1zm1.5 12.9l-.2.1-.1.1c-.1.2-.1.4 0 .5s.3.1.5.1l-.2-.8zm0 3c.2-.1.3-.3.3-.3 0-.1 0-.1-.1-.2 0 0-.1-.1 0-.1l.4-.2c-.1-.2-.1-.3-.1-.3l-.2-.2c-.2.2-.3.4-.3.5-.1.3 0 .5 0 .8zm12.5.7c-.3.1-.4.2-.4.2s.1.3.3.6c.2-.1.4-.2.4-.3.1 0 0-.2-.3-.5z"/><path d="M64.1 63.2c0 .2 0 .3-.2.4-.2.1-.3.3-.3.5-.1.5-.4 1-.9 1.5s-.9 1-1.2 1.4c-.2.3-.3.5-.5.7-.1.2-.3.5-.5.7l-.4.5c-.1.1-.1.3-.1.3 0 .1 0 .2-.1.3-.1.2-.2.4-.4.5-.1.1-.3.3-.4.5l-.1.2c0-.1 0 0 .1.4 0-.1-.1 0-.1 0s-.1.1-.1.3c-.1.1-.1.3-.3.5-.1.2-.3.5-.6.8-.3.4-.5.7-.6.9-.1.2-.1.5.3 1 .3.5.6.9.9 1.2.3.4.6.7 1.1.9.5.3 1 .3 1.6.1.6-.2 1.2-.4 1.7-.7.3-.2.5-.3.6-.3.1-.1.3-.2.5-.3.8-.5 1.4-1 1.9-1.4.5-.4.9-.9 1.3-1.3.4-.5.7-1 1.1-1.6.4-.6.8-1.3 1.3-2.1l.1-.2v-.1l3.1-5.4.3-.4c.1-.4.3-.7.5-1 .2-.3.3-.6.5-.9l1.7-2.7c.2-.2.3-.3.3-.4.1-.1.2-.2.4-.3.2.3.2.4.3.4 0 0 0 .1-.1.5l-1.4 3.9v.2l-.4 1c-.3.5-.5 1-.7 1.5-.2.4-.4.9-.7 1.4l-.7 1.4-.2.4-.2.4c-.1.2-.2.4-.1.4 0 0-.1.1-.4.2 0 .3 0 .6-.1.7s-.2.4-.4.6l-2.2 3.4c-.2.2-.3.4-.4.5-.1.2-.3.3-.4.6-.2.2-.3.4-.5.5-.2.1-.3.3-.5.4-.2.2-.6.5-1.1 1-.5.4-.9.7-1.2.8l.1.3.8-.5c-.1.2-.2.4-.4.5s-.7-.2-1.1-.1c-.3.1-.5.2-.7.3-.1.1-.3.2-.6.3-.5.3-.9.4-1.2.6s-.7.2-1 .4l-.9.3c-.3.1-.7.2-1 .3-.7.2-1.6.3-2.6.3s-1.9-.2-2.5-.5c-.6-.3-1.2-.6-1.6-1L51 77.9l-.7-.7c-.1-.2-.2-.3-.4-.5-.1-.2-.2-.4-.4-.5-.3-.3-.5-.5-.6-.7-.1-.2-.2-.5-.3-.8-.2-.6-.4-1.1-.5-1.6l-.3-1.5c-.1-.2-.1-.3-.2-.3l-.2-.4c0-.1 0-.2.1-.3.1-.1.1-.3.1-.5l-.1-.7c0-.9.1-1.5.3-2 .2-.4.4-1 .6-1.7l1.6-3.5c.4-.8.9-1.5 1.4-2.1.5-.6 1.1-1.2 1.8-1.7.2-.2.5-.4.9-.7.4-.3.9-.6 1.3-.8.4-.3.9-.5 1.3-.8.4-.2.8-.3 1-.4.4-.1.7-.1.7-.2s.3-.1.7-.2c.4-.1 1-.2 1.7-.2s1.3.2 1.6.5l1.1 1.2c.1.2.3.4.4.7.2.3.3.6.3.8 0 .1.1.3.1.6s.1.6.1.8V61c-.2.3-.4.6-.6 1-.2.3-.3.7-.2 1 .4.3.5.3.5.2zm-6.8 6.9c.2-.3.3-.5.4-.7.1-.1.2-.3.4-.6l.9-1.2c.1-.2.3-.4.4-.6.2-.1.3-.3.4-.6.2-.3.3-.6.5-.7.1-.2.2-.3.3-.4.1-.1.1-.2.2-.3.1-.1.1-.2.2-.5l.3-.6c.3-.5.5-1 .5-1.3 0-.4-.3-.8-.9-1.3-.4.2-.7.3-1 .6-.2.1-.3.2-.4.3s-.3.1-.5.2l.1.4c-.4.2-.7.4-.9.6-.2.3-.4.5-.6.7l-.4.4s-.1.1-.1.5c-.1.5-.2.8-.3 1-.1.2-.2.4-.3.5-.1.1-.2.3-.2.5-.1.2-.1.4-.1.8 0 .5 0 .8-.1.9-.1.1-.1.1-.2.1 0 0-.1 0-.1.1s.1.3.2.8c.1.2 0 .3 0 .4-.1.1-.1.2 0 .5 0 .1.1.2.1.3.1.1.1.3.2.5l1-1.3z"/><path d="M78 52.4c0-.2.1-.3.1-.3.1 0 .3-.2.8-.5.1-.1.1-.2.1-.1h.2c.4-.1.6-.3.8-.4.1-.1.4-.3.9-.4l.3.3c.2.2.3.2.3.2.1 0 .1-.1.2-.2l.3-.3c.1-.1.3-.1.6 0l-.8-.7.8-.2c.3.6.5.9.6 1 .1.1.1.1.1-.1 0-.1-.1-.3-.1-.5-.1-.2-.1-.4-.1-.4.1-.1.2-.1.3 0 .1 0 .1.1.2.1s.1.1 0 0c0 0 0-.1-.1-.3.2 0 .5 0 .8-.1.3 0 .5-.1.8-.1.3-.1.5-.1.7-.1.2 0 .4.1.6.2.1-.2.2-.4.3-.5.1-.2.2-.3.4-.4h.4c.7-.1 1.3-.2 1.7-.3.4-.1.8-.1 1 .1.3.1.5.3.6.7.2.3.3.8.5 1.5.1.3.2.6.2.9v.7c0 .2-.1.5-.1.8 0 .3-.1.7-.1 1.2l-.1.5-.2 2.4c0 .6-.1 1.2 0 1.9 0 .7.1 1.4.1 2.1 0 .1 0 .3.1.5s.1.4.1.6c0 .6.1 1.3.2 2s.4 1.4.7 1.9c.3.5.6 1.1.9 1.6s.8 1 1.2 1.3c.5.3 1 .4 1.4.4.4 0 .8-.3 1.3-.7l.9-.9.1-.1 4.6-7.6c.1-.2.2-.3.3-.4.1-.1.2-.2.3-.4.2-.2.3-.4.3-.6 0-.2.1-.4.2-.7h.2l.2.4.2-.5h.2V59c-.2.3-.3.7-.4 1-.1.6-.3 1.2-.5 1.7s-.5 1-.8 1.6c-.1.2-.1.3-.2.4 0 .1-.1.2-.2.4-.3.8-.6 1.4-1.1 2-.5.6-.9 1.2-1.3 1.9v.2c-.5.9-1.1 1.6-1.8 2.2-.3.3-.6.4-.8.5-.2.1-.4.1-.7.2-.5.1-.8.2-.9.3-.1.1-.3.3-.7.4-.2 0-.3.1-.3.1h-.1-.2c-.1 0-.2.1-.3.2-.2.1-.3.2-.4.2 0 0-.2 0-.3.1-.3.1-.6.2-.9.2h-.9c-.9 0-1.7-.1-2.2-.4-.6-.2-1.2-.6-1.9-1.1h-.1l-.5-.5c-.1-.2-.3-.4-.5-.7-.2-.3-.4-.5-.6-.7-.5.1-.7.2-.7.2s-.1.2-.4.5c-.4.4-.8.9-1.3 1.3s-1 .8-1.6 1.1c-.6.3-1.1.5-1.7.7-.6.1-1.2.2-1.9.2-.6-.1-1-.1-1.4-.2-.4 0-.7-.1-1-.2l-.9-.3c-.3-.1-.7-.3-1.1-.6l-.3-.2-.9-.9c-.6-.5-1-1.1-1.3-1.8-.3-.7-.4-1.5-.4-2.2 0-.5 0-1 .1-1.5s.1-.8.1-1.2c0-.4.1-.7.2-1.2.1-.4.2-.9.3-1.4v-.1l2-3.6c.2-.4.5-.8.9-1.2.4-.4.7-.7 1.1-1-.2 0-.2-.2-.2-.4l.3-.6c.1-.2.3-.4.5-.7.2-.2.4-.4.5-.4.2-.2.3-.4.4-.6s.4-.4.8-.5zm0 13.9v1c0 .4.2.6.5.7.2.1.4.2.5.3.1.1.1.2.2.4 0 .1.1.3.2.4.1.1.3.3.5.4.4.2.9.3 1.5.3s1-.1 1.4-.4c.2-.1.3-.2.3-.2l.2-.1 1.1-1.2c.2-.3.4-.6.7-.8-.3-.6-.5-1.1-.6-1.5-.1-.4-.1-.8-.1-1 0-.1-.1-.4-.2-1-.2-.6-.2-1.2-.2-1.9v-.2l.3-3.7c.1-.3.1-.6.2-1.1.1-.4.2-.9.3-1.3l.3-1.2c.1-.4.1-.6 0-.8-.3.3-.5.5-.8.7-.3.2-.6.4-.9.7-.6.7-1.2 1.2-1.6 1.6l-1 1c-.3.3-.5.5-.6.7-.1.2-.2.4-.3.7l-.7 1.9.6.1-.5.3-.1.1V61.8s-.1.1-.2.4c.4 0 .5-.1.5-.1-.1-.1 0 0 .1.2-.3.1-.5.1-.6.2-.1 0-.1 0-.1.1v.1c0 .1 0 .2-.1.3l-.1.1s0 .1-.2.2c-.3.2-.4.3-.3.2.1-.1.1-.1 0-.2l-.6.6c-.1.1-.1.1-.1.2h.1c.1 0 .1 0 .1.1.1 0 .2 0 .3.1 0 0-.1.1-.4.2-.2.1-.4.1-.5.1s-.1.1.1.4c.1-.1.2-.1.4-.2s.3-.1.4-.1c.3-.1.4-.1.5-.1.1 0 .2.1.3.3-.4.1-.5.1-.5.1.1 0 .1.1 0 .3-.2.1-.3.2-.3.1s.1.1.2.4c.2-.1.3-.2.3-.2V65.9s.2 0 .5-.2l.1.5c-.3.2-.5.3-.4.4.1.1.2.3.3.6h-.4s-.2-.3-.4-1l-.2.1z"/><path d="M99.1 29.8c.1-.2.1-.4.1-.5 0-.1.1-.3.1-.4 0-.2.1-.3.1-.6.1-.2.2-.5.3-1 .1-.4.3-.8.5-1.2.2-.4.5-.9.7-1.3.3-.4.6-.8.9-1.1.3-.3.7-.5 1.1-.6.3-.1.8-.1 1.5 0 .6.1 1.1.2 1.4.4.6.4 1.1.8 1.4 1.3.3.4.5.9.6 1.3.1.4.2.9.2 1.3v2c0 .1 0 .4.2.9v.2s-.1.2-.1.4v1.5c-.1.5-.1.9-.1 1.1 0 .2 0 .6.1 1.1.1.6 0 1.3-.2 2s-.4 1.3-.5 1.9c0 .3-.1.7-.1 1l-.3.9c-.3.6-.5 1.2-.6 1.7-.1.6-.3 1.2-.7 1.9-.2.4-.3.7-.3.9 0 .2 0 .5.1 1l1.7 9.2c.3 1 .5 1.8.7 2.4.2.6.4 1.3.7 2.1l1.5 3.2c.2.4.5.6.7.7.2.1.5 0 .8-.1.3-.1.5-.3.8-.6.3-.3.5-.5.7-.8l.2-.3c.6-.7 1.1-1.6 1.5-2.4.4-.9.7-1.8 1.1-2.8.1-.1.2-.5.4-.9s.4-.9.6-1.4c.2-.5.5-1 .7-1.4.2-.4.4-.7.6-.8.1.5.1 1 0 1.4-.1.4-.2 1-.3 1.6v.3c0-.1 0 0-.1.2 0 .2-.1.2 0 .2l-.1.1-.2.8c-.3 1.3-.6 2.5-1 3.6-.4 1-.8 2-1.4 2.8-.6.8-1.4 1.6-2.3 2.3-.9.7-2 1.2-3.4 1.7l-1-.1h-.5c-.3 0-.6-.1-.9-.2l-.9-.3c-.6-.2-1.1-.5-1.5-.7s-.7-.6-1-.9c-.3-.3-.5-.7-.7-1.1-.2-.4-.4-.9-.7-1.5-.4-.8-.8-1.8-1.1-3-.4-1.1-.7-2.3-1-3.6-.3-1.2-.5-2.4-.7-3.6-.2-1.2-.3-2.3-.4-3.2-.1-1.2-.2-2.3-.3-3.4-.1-1.1-.2-2.3-.2-3.4-.1-1.6-.1-3.2 0-4.8 0-1.6.2-3.2.4-4.9l.3-1.3.7-.6.1-.8c.1-.3.2-.5.3-.6.1 0-.1-.1-.5-.2.1.6 0 1-.1 1-.4-.2-.6-.1-.6 0zm.9-1.5l.4-.1.1-.8c.1-.4.2-.5.3-.6.1 0-.1-.1-.5-.2l-.3 1.7zm.9-.2c-.4.3-.5.7-.3 1.1l.3-1.1zm.4-1.8l.1-.8c.1-.4.2-.6.3-.6.1 0-.1-.1-.4-.3.1.6 0 .9-.1 1l-.3.3.4.4zm.4-.1c-.4.3-.5.7-.3 1.1l.3-1.1zm1-1.9c-.3.3-.4.7-.3 1.1l.3-1.1zm2.1 16.2c.1-.1.2-.5.3-.9s.2-1 .3-1.5c.1-.5.2-1.1.3-1.6.1-.5.1-.8.1-1.1v-.2-.2c.1-.7.1-1.3.1-2 0-.6-.1-1.3-.1-1.9-.1-.4-.1-.6-.1-.8v-.6c0-.2 0-.5-.1-.8 0-.3-.1-.7-.2-1.3-.1.1-.2.4-.3.8-.1.4-.2.9-.2 1.4-.1.5-.1 1-.1 1.4 0 .5-.1.8-.1.9l-.1 1.6v3.2c0 .5 0 1 .1 1.8s0 1.4.1 1.8z"/><path d="M143.3 55.9c-.3 0-.4 0-.3-.1s.1-.4.1-1v-1.1c-.1-.8-.1-1.8 0-2.8.1-1 .2-1.9.2-2.8v-.4s0-.1.1-.4l.2-1.5c.1-.6.1-1.2.2-1.9 0-.6.1-1.3.2-1.9l.2-.6.4-2.5v-.3-.1-.1c.2-.7.2-1.1.1-1.3-.1-.1-.3-.1-.5 0s-.5.3-.8.6c-.3.3-.5.5-.7.6-.2.1-.4.3-.5.4-.1.1-.3.2-.4.4-.2.2-.3.5-.5.9s-.5 1-.9 1.7c-.1.2-.2.4-.3.5-.1.1-.1.3-.2.5 0 .2-.1.3-.1.4s0 .2-.1.4c-.1.4-.1.7-.2.8s-.2.3-.3.5c-.1.2-.2.3-.2.6 0 .2-.1.6-.1 1.1l-.2 1.9c-.1.1-.1.2-.1.3v2c0 .8.1 1.6.2 2.4.1.9.1 1.7.1 2.4 0 .8 0 1.3-.1 1.6-.4.1-.6.1-.8.1s-.2-.1-.3-.2-.2-.1-.4-.1-.6.2-1.1.4c-.6.3-1.1.4-1.6.4-.4 0-.9-.3-1.3-.8l-.2-.2s-.1-.2-.1-.3c-.1-.2-.2-.3-.3-.4s-.1-.2-.2-.4l-.4 1.2c-.1.4-.3.7-.4.9-.1.2-.3.5-.5.8-.4.5-.8 1-1.1 1.3-.3.3-.8.7-1.4 1.1l-.9.6h-.1c-.3.2-.6.3-1.1.4-.4.1-.8.2-1.1.2h-.8c-.3 0-.6 0-.8-.1-.3-.1-.5-.2-.8-.3l-.1-.1c-.4-.2-.7-.3-.8-.3-.1 0-.2-.1-.3-.4l-.2.2-.1-.3c-.2 0-.4-.1-.8-.4 0-.3-.1-.5-.4-.6l.1.4.3.2c0 .1 0 .2-.1.3l-.2-.5c-.3-.3-.6-.6-.8-1-.2-.4-.4-.7-.6-.9-.1-.3-.2-.5-.3-.7l-.3-.6v-.2c.1 0 0-.1-.3-.4-.1-.1-.2-.4-.3-.8-.1-.4-.1-.6-.1-.6v-.3c0 .1 0 0-.2-.2-.1-.2-.2-.3-.3-.3-.1 0-.1-.2-.1-.7l-.4-1.3-.3-2.2v-.1l-.2-5.4c0-.2 0-.3.1-.3l.1-.3v-.3-.1c-.1-.5 0-1 .1-1.6.2-.5.2-1 .1-1.4v-1.2c0-.5.1-1.1.1-1.8 0-.5 0-.9-.1-1.3s-.1-.7-.1-.8c-.2 0-.2-.2-.1-.7.1-.5.2-1 .3-1.4-.2 0-.5-.2-1-.4s-.8-.4-1-.4c-.2.1-.3.1-.4 0-.1 0 .1-.1.5-.4l-.8-.2h-.1c-.1.1-.1.1-.2 0-.6.1-1.1.1-1.8 0-.6-.1-1.2-.2-1.7-.3h-.3s-.1.1-.3.1c-.2.1-.3.1-.3.1s-.1 0-.4-.1c-.5-.1-.9-.1-1.1-.1h-.7c-.2 0-.3 0-.3.1-.1.1-.2.1-.5.1h-1c-.1 0-.1 0-.3-.2h-.2c-.1.3-.1.4-.1.3 0-.1-.1-.1-.4-.1l-2.1.4c-.3 0-.5 0-.7.1-.1.1-.4.1-.8.1s-.8.1-1.3.3c-.3.1-.7.2-1 .3-.3.1-.7.3-.9.5-.5.3-.9.5-1.2.6-.4.1-.5.4-.5.8v.4c0 .3.2.5.6.7s.8.3 1.4.4c.1.3.1.4 0 .5-.1 0-.2.2-.5.3 0 0-.1 0-.2.1-.2.1-.4 0-.7-.1-.2-.1-.4-.2-.6-.1l-.1.1c-.1 0-.2 0-.3-.1-.1-.1-.2-.1-.3-.2-.3-.1-.5-.2-.6-.3 0-.1-.2-.2-.5-.4-.1-.1-.1-.1-.2-.1 0 0-.1 0-.1-.1l-2.2-1h-.1s0-.1-.1-.1v-.1h-.1l-.4-1s0-.1-.1-.1l-.1-.1v-.3-.2c-.1-.4-.1-.8 0-1.1.1-.3.2-.7.5-1.1.3-.6.8-1.1 1.4-1.5l.6-.3c.2-.1.4-.2.7-.4.2-.1.4-.1.5-.2.1 0 .1-.1.2-.1l.1-.1c.1 0 .2-.1.4-.1l.1.5h.2c.3-.5.9-.9 1.6-1.2.8-.3 1.6-.5 2.5-.6.3-.1.9-.2 1.6-.3.7-.1 1.3-.1 1.7.1h.2c.3-.1.6-.2.7-.2.1 0 .2-.1.2 0 0 0 .1 0 .2.1s.3.1.7.2h.3s.1-.1.3-.1c0 0 0 .1.1 0l2.4-.1c.5 0 .9 0 1.1.1.2.1.5.1.7.2h.9c.3 0 .5 0 .6.1.1.1.2.2.3.2.1.1.2.1.3.2H112.9l.5.1c.6.1 1.3.3 2 .5.7.3 1.2.4 1.5.5l.3-2.5v-.1l.2-1.6c.1-.3.1-.5.1-.7V23c0-.2 0-.4.1-.5.1-.2.3-.3.6-.5l1.1.6c.1.1.2.1.3.1s.2.1.3.2c.2.1.3.3.5.4.1.2.3.3.4.5.2.2.5.4.7.7.2.2.4.5.4.8.1.4.1.6.2.8.1.1.1.3.1.7V27.1l-.2 1.3c-.1.4-.1.7-.1.8 0 .1.1.3.1.5.3.1.6.2.9.2h.8c.1.1.2.1.4.1h.6c.8.1 1.2.1 1.3.1.1 0 .1.1 0 .2h.2c.2-.1.4-.1.5-.1h.1v.1h.3l2.2.2-.1-2.3c0-1 0-2.1-.1-3.2s0-2.1.2-3.1c.1-.5.2-.9.2-1.2.1-.3 0-.7-.1-1.3 1.1-.5 2-.4 3 .4l.3.2c.7.5 1.1 1 1.4 1.4.3.4.5 1 .6 1.8v.2c0-.1 0 0-.1.1v.4l.1 4.9.2.4v.8l1.3-.1c.3 0 .6-.1.9-.2l.9-.3c.2 0 .4-.1.7-.2.3-.1.6-.1.9-.2.3-.1.6-.2.8-.3.2-.1.3-.2.3-.4l.1-.2c0-.2-.1-.3-.4-.4-.3-.1-.6-.2-1-.3l-1.2-.3c-.4-.1-.7-.2-.9-.2.2-.2.4-.4.5-.4.1 0 .4-.1.9-.2l.4-.1c.4 0 .8 0 1.2.1.4.1.7.2.9.3l.8.4.2.2c.1 0 .1.1.2.2.2.2.4.3.6.5.2.1.3.3.4.5v.1l-.1 1.5v.2h-.1l-.6.8c-.2 0-.2.1-.2.2-.2.1-.3.2-.3.3 0 0-.1.1-.3.2-.5.3-.9.6-1.3.8-.4.2-.9.5-1.6.7-.6.2-1.1.4-1.7.5-.6.2-1.1.3-1.7.3h-.1l.1 1.1c0 .5.1 1.1.2 1.6s.2 1 .2 1.5c0 .3 0 .6.1.8.1.2.1.5 0 .7v1.4c.1.6.1 1.1.1 1.5v.2l-.1.2c-.1.5-.1 1.1.1 1.8.1-.1.1-.2.1-.1v-.2c.2-.7.4-1.3.7-1.9.3-.6.6-1.2.8-1.9.5-1.3 1.3-2.5 2.3-3.5l1.3-1.3c.3-.3.6-.6 1-.9.4-.3.8-.5 1.2-.7.1 0 .3-.1.4-.1.2-.1.3-.1.4-.1l2.4-.6c.8 0 1.3 0 1.5.3l1 1c.3.3.4.5.5.9 0 .3.1.7 0 1 0 .3 0 .5.1.8.1.3.1.6 0 .9-.1.7-.1 1.3-.1 2 .1.7.1 1.4 0 2 0 .4.1.7.1 1v.7l-.1 1.6c.1.6.1 1.1.2 1.7 0 .5.1 1.1 0 1.7v.7c-.1.6-.1.9 0 1.1.1.2.1.5.1.8l-.1.9.1 1.6v1.2c0 .5.1.8.2 1.1l.1.3.7 2.2c.1.3.2.6.1.9v.8l.4 1.1c.2.3.3.6.4 1 .1.4.2.7.4.9.2.2.4.3.6.3.2 0 .5-.3.9-.8.2-.3.5-.7.7-1 .2-.4.4-.7.5-1.1l1.5-5.2c.2-.7.3-1.3.4-1.7.1-.4.1-.7.1-1.1v-1c0-.4 0-.8.1-1.4 0-.2.1-.3 0-.3 0 0 0-.1.1-.2l.1-.5c0-.3.1-.5.1-.5l.3-.3.2.1c.2.3.3.5.2.6v.4c.1.1.1.2 0 .1s0 0 .1.2c.1.3.2.7.2 1.4v2.2c0 .8-.1 1.5-.2 2.2-.1.7-.2 1.2-.2 1.5-.1.6-.2 1.2-.3 1.6-.1.5-.2.9-.3 1.4-.1.4-.3.9-.5 1.3s-.4 1-.7 1.5v.2l-.2.4-.2.5-1 1.7c-.2.4-.5.6-.8.8-.3.2-.6.5-.8.8l-.4.4c-.1.1-.2.1-.3.1-.1 0-.2.1-.3.2-.4.2-.9.4-1.7.4-.7.1-1.3.1-1.6.1-.5.1-1 0-1.3-.1h-.1c-.2 0-.4-.3-.6-.7l-.5-1c0-.1-.1-.2-.2-.2h.1v.1c0 .1 0 .1.1.1l-.2-.2c-.1-.2-.3-.7-.6-1.4s-.6-1.4-.9-2.2c-.3-.8-.6-1.5-.8-2.2-.2-.7-.3-1.1-.3-1.3 0-.5-.1-.9-.2-1.5s-.2-1-.3-1.5v-.5-.2s0-.1.1-.2c0 .2 0 .1.1-.1zm-37.2-28.7c-.3-.1-.4-.2-.4-.2s-.1.1-.3.1c.1 0 .2.1.2.1h.2c.1.1.2 0 .3 0zm.9 0c.1.1.2.1.3.1s.2 0 .3-.1c-.1 0-.2 0-.2-.1-.1 0-.2 0-.4.1zm.7-.4h.3s0 .1.1.2l-.4-.2zm.3.3c.2.1.3.2.3.2-.1 0 .1 0 .4-.1l-.3-.1h-.4zm1.2.1l-.2.1h.2c.1 0 .1 0 .2-.1h-.2zm3.7.7c-.1.1-.2.1-.1.1.1-.1.2-.1.1-.1.2.2.3.2.3.1s-.1-.2-.3-.1zm.8 0h-.1l.2.2c.2.1.3 0 .2 0-.1-.1-.2-.2-.3-.2zm4.8 29.1c.3.2.4.5.2.9l-.2-.9zm.9-.3c-.2-.3-.3-.4-.4-.5 0-.1.1-.2.3-.5l.1 1zm0 1.7c.4.1.5.4.2.9l-.2-.9zm.9-.6c-.1-.1-.2-.1-.4-.2-.1 0-.1-.4 0-1l-.4.4-.1.1.1.1s.1.1.1.3l.1.8.6-.5zm1 1.4h-.1l-.1-.5c0 .1-.1.1-.1.2-.1 0-.1.1-.1.1v-.9c-.2.2-.3.3-.4.3 0 .1-.1.1-.1.1s0 .1.1.1c0 .1.1.2.1.3l.2.8.2-.2c-.1-.2-.2-.3-.2-.3s0-.1.1-.2c0 .2.1.2.3.2v.2l.1-.2zm-.4.3l.2.1v-.3l-.2.2zm1.1 1.2c-.1-.1-.2-.1-.3-.1-.1 0-.1-.4 0-1l-.4.4c-.1.1-.1.1-.1.2 0 0 0 .1.1.1s.1.1.1.3v.5h.2v.1l.4-.5zm8.2-4.7c.2-.3.4-.6.6-1.2l.6-1.5-.9-2.8c-.1-.3-.1-.7-.2-1.4s-.1-1.4-.2-2.1c-.1-.7-.1-1.4-.2-2.1 0-.6-.1-1.1-.2-1.4 0-.3-.1-.5-.1-.6v-.6l-.2-1.1c-.1-.5-.1-1.2-.1-1.9 0-.8 0-1.4-.1-1.9l-.1-2.8s-.2 0-.5-.1l-2.1-.1.2-.3h-.5c-.1 0-.1 0-.1.1 0 0 0 .1-.1.1s-.2.1-.4.1h-.3-.3v-.1h.1v-.1h.1l-.2-.1c-.1 0-.2 0-.2.1v.1h-.2c-.1 0-.4-.2-.7-.4-.2.1-.3.1-.3.1s-.1 0-.2.2c-.1-.1-.2-.1-.3-.2-.1 0-.2 0-.2-.1l-.5.1v2.4c0 .1-.1.2-.1.2-.1.1-.1.1-.1.2s0 .3.1.5.1.4.1.5v2.1l-.1 1.2c0 .3 0 .5-.2.5-.1 0-.2.2-.2.6l.3 2.2c.1.4.1.6.2.6 0 0 .1.3.1.7 0 .3 0 .5-.1.6 0 .1-.1.2-.2.4.2 0 .3.1.3.2V47.5c0 .3 0 .6.1.8.1.3.1.5 0 .8h.2c.1.1.1.1.1 0l.1.1c.1.1.2.2.1.3v.3c-.2.1-.4.1-.4 0 0 0-.1-.1-.4-.1.2.3.3.4.3.3.1 0 .1.1.2.5l1.1 4.1c.1.3.2.5.2.6.1.1.2.3.4.6.1.2.2.4.2.6.1.2.2.4.4.6.6.6 1 1 1.4 1.2.4.3.7.3 1.1.3.3-.1.7-.3 1-.7.4-.4.8-.9 1.3-1.5l.3-.3zm-4.5-21.7c.2.1.3.1.3 0s-.1-.1-.2-.1h-.2c-.1 0 0 .1.1.1zM147 68.4c.1-.2.1-.3.1-.2h-.3l.2.2zm.5-1h-.3c-.1 0-.1-.2 0-.5-.3.2-.4.3-.4.3.1 0 .1 0 .2.2l.1.4.4-.4zm.3 1.1l-.1-.3-.1.1s-.1 0-.1.1v-.5c-.4.2-.5.3-.4.3.1 0 .2.1.2.3l.1.4.2-.2.1.1.1-.3zm-.3.6c.1-.1.1-.2 0-.2h-.3l.3.2zm.6-.9v-.1c-.1 0-.2 0-.2-.1-.1.1-.1.1-.1.2 0 0 .1.1.2.1l.1-.1zm.5-.9c-.1-.1-.2-.1-.3-.1-.1 0-.1-.2 0-.5-.3.2-.4.3-.4.3.1 0 .1 0 .2.2l.1.4.4-.3zm.1 1.6h-.3c-.1 0-.1-.2 0-.5-.4.2-.5.3-.4.3.1 0 .1 0 .1.2l.1.4.5-.4zm.4-.7l-.1-.3c-.1.1-.1.2-.2.2v-.5c-.2.1-.3.2-.3.2-.1 0-.1.1-.1.1l.1.1s.1.1.1.2l.1.4.1-.2.1.1.2-.3zm.7.6h-.3c-.1 0-.1-.2 0-.6-.4.2-.5.3-.4.3.1 0 .1 0 .1.2l.1.4.5-.3zM44.2 131.5c.3-.1.5-.2.7-.3.2-.1.3-.2.4-.2.1-.1.2-.1.4-.1h.7l1 .3s0 .1.1 0l.4.3c.1.2.3.4.4.7l.7 1.8c.2.5.3.8.3 1 0 .2 0 .6.1 1l1.4 3.4c.2.5.5 1 .8 1.5s.5 1 .8 1.4l.2.4c.1.2.2.3.3.4l.1.1.1.1s.1.1.3.2c.9.7 1.7 1.1 2.5 1.2.8.1 1.7-.3 2.8-1.2-.1-.4-.1-.6-.2-.7-.1-.1-.1-.3-.2-.6l-.5-5c0-1.1.1-2.1.2-3.1.1-.9.4-2 .8-3.2.2-.4.3-.7.5-1 .1-.2.3-.5.6-.9.2-.3.3-.5.4-.6.1-.1.1-.2.2-.2s.1-.1.3-.2c.1-.1.4-.3.7-.6.2-.1.2-.2.1-.1-.1 0 0 0 .2-.1.6-.2 1.1-.4 1.6-.4s.9 0 1.2.1c.3.1.6.3.8.5l.6.6.3.3c.3.4.5.7.6.9.1.3.1.5 0 .7 0 .2-.1.4-.2.6l-.3.6c-.1.4-.1.5 0 .5s0 .1-.2.3c-.3.3-.6.4-1 .4s-.7-.1-1.1-.1v-.7s-.1 0-.4.1c0 .3-.1.6-.1.8 0 .2-.1.4-.1.6v.7c0 .2.1.6.1 1 .1.7.1 1.3 0 1.8s-.1 1 .1 1.6c.2.6.4 1.2.4 1.8.1.5.3 1.1.5 1.6.2.3.3.5.4.7.1.2.3.4.4.7l3 8.7c0 .3.1.5.2.6.1.1.2.3.2.6l.9 6.1c-.1.3-.1.7-.1 1.1s0 .7-.1 1.1c0 .2-.1.3-.1.3s-.1 0-.1.2l-.5 1.6c0 .2-.1.3-.1.3s-.1.1-.4.2c.1.5.1.9.1 1.1 0 .2-.1.5-.3.8-.2.2-.3.3-.2.3 0 0 0 .1-.1.4l-.8 1.5-.6.9c-.2.3-.4.4-.5.3-.1 0-.3.1-.6.4-.2.2-.3.4-.4.5l-.3.3c-.1.1-.2.2-.3.2-.1.1-.3.2-.5.3-.4.3-.8.6-1.2 1-.4.4-.9.6-1.3.8-.5.2-1 .4-1.5.7-.5.2-1 .3-1.5.2-.4-.1-.7-.1-1-.1h-1.1l-2.4-.2H53.5c-.7 0-1.1-.1-1.4-.3-.3-.2-.7-.4-1.2-.6l-1.2-.7v-.1c-.7-.4-1.3-1-1.7-1.6-.4-.7-.8-1.4-1.1-2.2l-.9-3.5v-.5s.1-.1.1-.4v-.1c0-.9.2-1.9.6-2.9.4-1 .9-1.9 1.4-2.6.3-.5.6-.8.8-1s.4-.5.6-.6c.2-.2.4-.4.7-.5.2-.2.5-.4.9-.8l.7-.6c.5-.4.8-.6 1-.8.2-.2.4-.3.6-.3.2-.1.4-.1.6-.1.3 0 .7-.1 1.3-.2 0 .3.1.5.1.6 0 .1-.1.2-.4.5-.2.1-.3.2-.3.2l-.2.2-.5.4c-.3.2-.6.5-.9.9-.3.4-.7.9-1 1.3-.3.5-.6.9-.9 1.3-.3.4-.4.8-.5 1.1-.1.3-.2.7-.2 1.2-.1.5-.1 1-.1 1.4v1.4c0 .5 0 .8.1 1.1.1.4.3.9.7 1.4.4.5.8 1 1.3 1.5s1 .9 1.5 1.2c.5.4 1 .5 1.3.6.7.1 1.3.1 1.8 0 .4-.2 1-.3 1.8-.5.1-.3.1-.3.1-.2 0 .1 0 0 .1-.2.1-.1.1-.3.2-.4.3.1.4.2.4.2-.1 0 0-.1.3-.2l.2-.1c-.1 0-.2.1-.2.1l.1-.1c.3-.2.6-.4.8-.5s.4-.3.5-.5c.2-.2.3-.4.4-.6.1-.2.3-.5.5-.8l.3-.5.2-.2h-.3v-.4c.3-.1.5-.2.5-.2s0-.2.1-.5v-.8-1.2-1.2-.8c.1-.3.1-.4 0-.3-.1.1-.1.1 0-.1l.1-.7c0-.5-.1-.9-.3-1.2-.2-.3-.3-.6-.4-.9-.1-.3-.1-.6-.1-.8v-.5-.3c0-.1-.1-.2-.1-.4l-.7-2c-.2-.4-.4-.9-.5-1.5-.1-.6-.3-1.1-.5-1.6-.1-.3-.2-.5-.1-.5 0 0 0-.2-.1-.4-.1-.4-.2-.8-.5-1.2-.3-.3-.4-.6-.3-.7l-4.2 1.6c-.2.1-.3.2-.4.2h-.7l-3.8-.3h-1.6c-.4 0-.8-.2-1.3-.7l-.3-.3c-.4-.4-.7-.8-1-1.4-.2-.5-.5-1-.7-1.5-.2-.4-.3-.7-.3-.9 0-.2-.1-.5-.2-.9l-.2-1.2v-.2-.1c-.2-.6-.2-1-.3-1.1v-.4c0-.1 0-.1.1-.1v-.4c0-.2-.1-.3-.1-.4-.1 0-.2-.1-.2-.1-.1-.1-.2-.2-.3-.2-.1-.1-.1-.2-.1-.3v-3.1c.1-.6.2-1.1.4-1.5-.2-.4-.1-.9-.2-1.5zm15.3 36.9c.1.2.1.3.1.3l.3.1-.2-.2c0-.1-.1-.2-.2-.2zm2.4-1.1zM86 131.9c0 .2 0 .3-.2.4-.2.1-.3.3-.3.5-.1.5-.4 1-.9 1.5s-.9 1-1.2 1.4c-.2.3-.3.5-.5.7-.1.2-.3.5-.5.7l-.4.5c-.1.1-.1.3-.1.3 0 .1 0 .2-.1.3-.1.2-.2.4-.4.5-.1.1-.3.3-.4.5l-.1.2c0-.1 0 0 .1.4-.1.1-.2.1-.3.2 0 .1-.1.1-.1.3-.1.1-.1.3-.3.5-.1.2-.3.5-.6.8-.3.4-.5.7-.6.9-.1.2-.1.5.3 1 .3.5.6.9.9 1.2.3.4.6.7 1.1.9.5.3 1 .3 1.6.1.6-.2 1.2-.4 1.7-.7.3-.2.5-.3.6-.3.1-.1.3-.2.5-.3.8-.5 1.4-1 1.9-1.4.5-.4.9-.9 1.3-1.3.4-.5.7-1 1.1-1.6.4-.6.8-1.3 1.3-2.1l.1-.2v-.1l3.1-5.4.3-.4c.1-.4.3-.7.5-1 .2-.3.3-.6.5-.9l1.7-2.7c.2-.2.3-.3.3-.4.1-.1.2-.2.4-.3.2.3.2.4.3.4 0 0 0 .1-.1.5l-1.4 3.9v.2l-.4 1c-.3.5-.5 1-.7 1.5-.2.4-.4.9-.7 1.4l-.7 1.4-.2.4-.2.4c-.1.2-.2.4-.1.4 0 0-.1.1-.4.2 0 .3 0 .6-.1.7-.1.2-.2.4-.4.6L91 143c-.2.2-.3.4-.4.5-.1.2-.3.3-.4.6-.2.2-.3.4-.5.5-.2.1-.3.3-.5.4-.2.2-.6.5-1.1 1s-.9.7-1.2.8l.1.3.8-.5c-.1.2-.2.4-.4.5-.1.1-.4.2-.7.3-.3.1-.5.2-.7.3-.1.1-.3.2-.6.3-.5.3-.9.4-1.2.6-.3.1-.7.2-1 .4l-.9.3c-.3.1-.7.2-1 .3-.7.2-1.6.3-2.6.3s-1.9-.2-2.5-.5c-.6-.3-1.2-.6-1.6-1l-1.5-1.2-.7-.7c-.1-.2-.2-.3-.4-.5-.1-.2-.2-.4-.4-.5-.3-.3-.5-.5-.6-.7-.1-.2-.2-.5-.3-.8-.2-.6-.4-1.1-.5-1.6l-.3-1.5c-.1-.2-.1-.3-.2-.3s-.1-.2-.2-.4c0-.1 0-.2.1-.3.1-.1.1-.3.1-.5l-.1-.7c0-.9.1-1.5.3-2s.4-1 .6-1.7l1.6-3.5c.4-.8.9-1.5 1.4-2.1.5-.6 1.1-1.2 1.8-1.7.2-.2.5-.4.9-.7.4-.3.9-.6 1.3-.8.4-.3.9-.5 1.3-.8.4-.2.8-.3 1-.4.4-.1.7-.1.7-.2s.3-.1.7-.2c.4-.1 1-.2 1.7-.2s1.3.2 1.6.5l1.1 1.2c.1.2.3.4.4.7.2.3.3.6.3.8 0 .1.1.3.1.6s.1.6.1.9v1.3c-.2.3-.4.6-.6 1-.2.3-.3.7-.2 1 .2-.5.2-.4.3-.5zm-6.8 6.9c.2-.3.3-.5.4-.7.1-.1.2-.3.4-.6l.9-1.2c.1-.2.3-.4.4-.6.2-.1.3-.3.4-.6.2-.3.3-.6.5-.7.1-.2.2-.3.3-.4.1-.1.1-.2.2-.3.1-.1.1-.2.2-.5l.3-.6c.3-.5.5-1 .5-1.3 0-.4-.3-.8-.9-1.3-.4.2-.7.3-1 .6-.2.1-.3.2-.4.3-.1.1-.3.1-.5.2l.1.4c-.4.2-.7.4-.9.6-.2.3-.4.5-.6.7l-.4.4s-.1.1-.1.5c-.1.5-.2.8-.3 1s-.2.4-.3.5c-.1.1-.2.3-.2.5-.1.2-.1.4-.1.8 0 .5 0 .8-.1.9-.1.1-.1.1-.2.1 0 0-.1 0-.1.1s.1.3.2.8c.1.2 0 .3 0 .4-.1.1-.1.2 0 .5 0 .1.1.2.1.3.1.1.1.3.2.5l1-1.3z"/><path d="M99.8 121.1c0-.2.1-.3.1-.3.1 0 .3-.2.8-.5l.1-.1h.2c.4-.1.6-.3.8-.4.1-.1.4-.3.9-.4l.3.3c.2.2.3.2.3.2.1 0 .1-.1.2-.2l.3-.3c.1-.1.3-.1.6 0l-.6-.6.8-.2c.3.6.5.9.6 1 .1.1.1.1.1-.1 0-.1-.1-.3-.1-.5-.1-.2-.1-.4-.1-.4.1-.1.2-.1.3 0 .1 0 .1.1.2.1 0 .1.1.1 0 .1 0 0 0-.1-.1-.3.2 0 .5 0 .8-.1.3 0 .5-.1.8-.1.3-.1.5-.1.7-.1.2 0 .4.1.6.2.1-.2.2-.4.3-.5.1-.2.2-.3.4-.4h.4c.7-.1 1.3-.2 1.7-.3.4-.1.8-.1 1 .1.3.1.5.3.6.7.2.3.3.8.5 1.5.1.3.2.6.2.9v.7c0 .2-.1.5-.1.8 0 .3-.1.7-.1 1.2l-.1.5-.3 2.5c0 .6-.1 1.2 0 1.9s.1 1.4.1 2.1c0 .1 0 .3.1.5 0 .2.1.4.1.6 0 .6.1 1.3.2 2s.4 1.4.7 1.9c.3.5.6 1.1.9 1.6.3.6.8 1 1.2 1.3.5.3 1 .4 1.4.4s.8-.3 1.3-.7l.9-.9.1-.1 4.6-7.6c.1-.2.2-.3.3-.4.1-.1.2-.2.3-.4.2-.2.3-.4.3-.6 0-.2.1-.4.2-.7h.2l.2.4.2-.5h.2v1.1c-.2.3-.3.7-.4 1-.1.6-.3 1.2-.5 1.7s-.5 1-.8 1.6c-.1.2-.1.3-.2.4 0 .1-.1.2-.2.4-.3.8-.6 1.4-1.1 2-.5.6-.9 1.2-1.3 1.9v.2c-.5.9-1.1 1.6-1.8 2.2-.3.3-.6.4-.8.5-.2.1-.4.1-.7.2-.5.1-.8.2-.9.3s-.3.3-.7.4c-.2 0-.3.1-.3.1h-.1-.2c-.1 0-.2.1-.3.2-.2.1-.3.2-.4.2 0 0-.2 0-.3.1-.3.1-.6.2-.9.2h-.9c-.9 0-1.7-.1-2.2-.4-.6-.2-1.2-.6-1.9-1.1h-.1l-.5-.5c-.1-.2-.3-.4-.5-.7-.2-.3-.4-.5-.6-.7-.5.1-.7.2-.7.2s-.1.2-.4.5c-.4.4-.8.9-1.3 1.3s-1 .8-1.6 1.1c-.6.3-1.1.5-1.7.7-.6.1-1.2.2-1.9.2-.6-.1-1-.1-1.4-.2-.4 0-.7-.1-1-.2l-.9-.3c-.3-.1-.7-.3-1.1-.6l-.3-.2-.9-.9c-.6-.5-1-1.1-1.3-1.8-.3-.7-.4-1.5-.4-2.2 0-.5 0-1 .1-1.4 0-.4.1-.8.1-1.2 0-.4.1-.7.2-1.2.1-.4.2-.9.3-1.4v-.1l2-3.6c.2-.4.5-.8.9-1.2.4-.4.7-.7 1.1-1-.2 0-.2-.2-.2-.4l.3-.6c.1-.2.3-.4.5-.7.2-.2.4-.4.5-.4.2-.2.3-.4.4-.6s.3-.8.7-.9zm0 13.9v1c0 .4.2.6.5.7.2.1.4.2.5.3.1.1.1.2.2.4 0 .1.1.3.2.4.1.1.3.3.5.4.4.2.9.3 1.5.3s1-.1 1.4-.4c.2-.1.3-.2.3-.2l.2-.1 1.1-1.2c.2-.3.4-.6.7-.8-.3-.6-.5-1.1-.6-1.5-.1-.4-.1-.8-.1-1 0-.1-.1-.4-.2-1-.2-.6-.2-1.2-.2-1.9v-.2l.3-3.7c.1-.3.1-.6.2-1.1.1-.4.2-.9.3-1.3l.3-1.2c.1-.4.1-.6 0-.8-.3.3-.5.5-.8.7-.3.2-.6.4-.9.7-.6.7-1.2 1.2-1.6 1.6l-1 1c-.3.3-.5.5-.6.7-.1.2-.2.4-.3.7l-.7 1.9.6.1-.6.5-.1.1V130.7s-.1.1-.2.4c.4 0 .5-.1.5-.1-.1-.1 0 0 .1.2-.3.1-.5.1-.6.2-.1 0-.1 0-.1.1v.1s0 .2-.1.3l-.1.1s0 .1-.2.2c-.3.2-.4.3-.3.2.1-.1.1-.1 0-.2l-.6.6c-.1.1-.1.1-.1.2h.1c.1 0 .1 0 .1.1.1 0 .2 0 .3.1 0 0-.1.1-.4.2-.2.1-.4.1-.5.1-.1 0-.1.1.1.4.1-.1.2-.1.4-.2s.3-.1.4-.1c.3-.1.4-.1.5-.1.1 0 .2.1.3.3-.4.1-.6.2-.6.1.1 0 .1.1 0 .3-.2.1-.3.2-.3.1s.1.1.2.4c.2-.1.3-.2.3-.2V134.8s.2 0 .5-.2l.1.5c-.3.2-.5.3-.4.4.1.1.2.3.3.6h-.4s-.2-.3-.4-1v-.1z"/><path d="M136.7 144.5s-.1-.4-.4-1c-.3-.6-.6-1.3-1-2.2-.3-.8-.7-1.6-1-2.4-.3-.8-.4-1.3-.5-1.7 0-.5-.1-.9-.2-1.5l-.3-1.5v-.5-.2s0-.1.1-.2c0-.1.1-.2.2-.4-.3 0-.4 0-.3-.1s.1-.4.1-1v-1.1c-.1-.8-.1-1.8 0-2.8.1-1 .2-1.9.2-2.8v-.4s0-.1.1-.4l.2-1.5c.1-.6.1-1.2.2-1.9 0-.6.1-1.3.2-1.9l.1-.6.4-2.5v-.3-.1-.1c.2-.7.2-1.1.1-1.3-.1-.1-.3-.1-.5 0s-.5.3-.8.6c-.3.3-.5.5-.7.6-.2.1-.4.3-.5.4-.1.1-.3.2-.4.4-.2.2-.3.5-.5.9s-.5 1-.9 1.7c-.1.2-.2.4-.3.5-.1.1-.1.3-.2.5 0 .2-.1.3-.1.4 0 .1 0 .2-.1.4-.1.4-.1.7-.2.8-.1.2-.2.3-.3.5-.1.2-.2.3-.2.6 0 .2-.1.6-.1 1.1l-.2 1.9c-.1.1-.1.2-.1.3v2c0 .8.1 1.6.2 2.4.1.9.1 1.7.1 2.4 0 .8 0 1.3-.1 1.6-.4.1-.6.1-.8.1-.1 0-.2-.1-.3-.2-.1-.1-.2-.1-.4-.1s-.6.2-1.1.4c-.6.3-1.1.4-1.6.4-.4 0-.9-.3-1.3-.8l-.2-.2s-.1-.2-.1-.3c-.2-.3-.3-.4-.4-.5 0-.1-.1-.3-.3-.6-.1-.1-.1-.3-.2-.4 0-.1-.1-.2-.1-.2-.1 0-.1-.1-.1-.2s-.1-.2-.1-.4l-1.2-3.6c-.1-.3-.1-.7-.2-1.4s-.1-1.4-.2-2.1c-.1-.7-.1-1.4-.2-2.1 0-.6-.1-1.1-.2-1.4 0-.3-.1-.5-.1-.6v-.6l-.2-1.1c-.1-.5-.1-1.2-.2-1.9 0-.8 0-1.4-.1-1.9l-.1-5.3v-.9-1l-.1-2.4c0-1 0-2.1-.1-3.2s0-2.1.2-3.1c.1-.5.2-.9.2-1.2.1-.3.1-.7-.1-1.3 1.1-.5 2-.4 3 .4l.3.2c.7.5 1.1 1 1.4 1.4.3.4.5 1 .6 1.8V100.6l.1 4.9.2.4v.9c0 .3.1.6.2.7s.2.4.1.7l.3 3.6c0 .5.1 1.1.2 1.6s.2 1 .2 1.5c0 .3 0 .5.1.8.1.2.1.5 0 .7v1.4c.1.6.1 1.1.1 1.5v.2l-.1.2c-.1.5-.1 1.1.1 1.8.1-.1.1-.2.1-.1v-.2c.2-.7.4-1.3.7-1.9.3-.6.6-1.2.8-1.9.5-1.3 1.3-2.5 2.3-3.5l1.3-1.3c.3-.3.6-.6 1-.9.4-.3.8-.5 1.2-.7.1 0 .3-.1.4-.1.2-.1.3-.1.4-.1l2.4-.6c.8 0 1.3 0 1.5.3l1 1c.3.3.4.5.5.9 0 .3.1.7 0 1 0 .3 0 .5.1.8.1.3.1.6 0 .9-.1.7-.1 1.3-.1 2 .1.7.1 1.4 0 2 0 .4.1.7.1 1v.7l-.1 1.6c.1.6.1 1.1.2 1.7 0 .5.1 1.1 0 1.7v.7c-.1.6-.1.9 0 1.1s.1.5.1.8l-.1.9.1 1.6v1.2c0 .5.1.8.2 1.1l.1.3.3 2.4c.1.3.2.6.1.9s0 .5 0 .8l.4 1.1c.2.3.3.6.4 1s.2.7.4.9c.2.2.4.3.6.3.2 0 .5-.3.9-.8.2-.3.5-.7.7-1 .2-.4.4-.7.5-1.1l1.5-5.2c.2-.7.3-1.4.5-1.9.1-.6.3-1.1.4-1.7.1-.5.2-1 .3-1.6.1-.5.1-1.1.2-1.7 0-.2.1-.3 0-.3s0-.1.1-.2l.1-.5c0-.3.1-.5.1-.5l.3-.3.2.1c.2.3.3.5.2.6s0 .3.1.4c.1.1.1.2 0 .1s0 0 .1.2c.1.3.1.8.1 1.7 0 .9-.1 1.8-.2 2.8-.1 1-.2 1.9-.4 2.8-.1.9-.3 1.5-.3 1.8-.1.6-.2 1.2-.3 1.6-.1.5-.2.9-.3 1.4-.1.4-.3.9-.5 1.3s-.4 1-.7 1.5v.2l-.2.4-.2.5-1 1.7c-.2.4-.5.6-.8.8-.3.2-.6.5-.8.8l-.4.4c-.1.1-.2.1-.3.1-.1 0-.2.1-.3.2-.4.2-.9.4-1.7.4-.7.1-1.3.1-1.6.1-.5.1-1 0-1.3-.1h-.1c-.2 0-.4-.3-.6-.7.1-.1 0-.4-.2-.7zm.7 1c.1-.2.1-.3.1-.2h-.3l.2.2zm.5-1h-.3c-.1 0-.1-.2 0-.5-.3.2-.5.3-.4.3.1 0 .1 0 .2.2l.1.4.4-.4zm.1 1.2c.1-.1.2-.2.1-.2-.1-.1-.2-.1-.3-.1-.1 0-.2 0-.3.1-.1.1 0 .2.3.4l.2-.2zm-.1.5c.1-.1.1-.2 0-.2h-.3l.3.2zm.6-.8v-.1c-.1 0-.2 0-.2-.1-.1.1-.1.1-.1.2 0 0 .1.1.2.1l.1-.1zm.5-1c-.1-.1-.2-.1-.3-.1-.1 0-.1-.2 0-.5-.3.2-.4.3-.4.3.1 0 .1 0 .2.2l.1.4.4-.3zm.1 1.6h-.3c-.1 0-.1-.2 0-.5-.4.2-.5.3-.4.3.1 0 .1 0 .1.2l.1.4.5-.4zm.4-1c-.1.1-.1.2-.2.2v-.5c-.2.1-.3.2-.3.2-.1 0-.1.1-.1.1l.1.1s.1.1.1.2l.1.4.3-.7zm.7.9h-.3c-.1 0-.1-.2 0-.6-.4.2-.5.3-.4.3s.1 0 .1.2l.1.4.5-.3zM146.5 99.8c-.1-.3-.1-.5-.1-.6v-.4c.3.1.4.1.4.1v.3l-.2.6h-.1zm.9-10.9c.2-.5.2-1.1.3-1.8 0-.7 0-1.3-.2-1.8.5.1.9.1 1.1.1h.4c.1 0 .2.1.3.2.1.1.4.3.8.7l.1.1.1.1c.1.1.2.2.4.2.3.3.6.5.7.6.1.1.2.2.3.2l.1.1c0 .1.1.2.1.4.3.8.5 1.6.7 2.4.2.9.3 1.6.3 2.4 0 .5.1.9.1 1.1.1.3.1.5.2.7.1.2.1.4.2.7.1.2.2.5.3.9l.3 2.2c0 .5.1.9.1 1.1v.6c0 .1 0 .2-.1.3v.4c.1.3.1.5.2.4v.2c0 .2-.1.4-.1.4-.1.1-.1.2-.1.4l.3 2.1c.1.8.2 1.3.4 1.6l.2.4c.1 0 .1.1.1.2s.1.3.1.8c0 .4.1.7.2.9.1.2.2.5.2.8.1.4.1.7.2.8.1.2.1.4.2.7v.8l.1.3s.1.1.1.3c.1.4.2.7.2.9v.8c0 .3.1.6.2.9s.2.6.2.8c.2.6.2 1.2 0 1.9-.1.6-.2 1-.1 1.2l.8 1.4-1.6.6c-.3.2-.5.3-.7.3-.2.1-.6.1-1.1.1-.6 0-1.2-.1-1.7-.3-.6-.2-1.1-.6-1.4-1-.2-.2-.3-.4-.4-.5-.1-.1-.1-.2-.1-.3 0-.1-.1-.2-.1-.3-.1-.1-.1-.3-.3-.5-.2-.2-.2-.3-.2-.3v-.4c-.1-.4-.1-.6-.1-.7 0-.1 0-.1-.1-.2 0 0-.1-.1-.1-.3 0-.1-.1-.4-.1-.9l-1.2-4.1c0-.6-.1-1-.1-1.2 0-.2-.1-.4-.1-.4 0-.1-.1-.1-.1-.2 0 0-.1-.2-.1-.4-.1-.7-.1-1.6-.2-2.6s-.2-1.9-.3-2.7c-.1-.6-.2-1-.1-1.2 0-.2.1-.3.1-.4v-.3c0-.1-.2-.4-.4-.8.1-.1.1-.1.2-.1s.2 0 .2-.1l.2-.2c.1-.1.1-.2 0-.3 0-.1 0-.2.2-.3l.4-.2c-.1-.4-.2-.6-.3-.6-.1 0 0-.2.1-.6.1-.3.1-.4.1-.4v-.1s0-.1-.1-.1c-.1-.1-.1-.3-.2-.6l.5-.1c-.3-.3-.5-.5-.6-.5-.1-.1-.2-.1-.1-.2 0-.1 0-.1.1-.2s.1-.3.1-.6h.6s0-.2.1-.6h-.5v.2s-.2.1-.5.3c0-.3-.1-.5 0-.6 0-.1.1-.2.1-.2h.8l-.1-1.9c.2-.7.2-1.2.1-1.5-.1-.3-.2-.5-.3-.7 0-.2 0-.4.1-.5.1-.1.1-.3.1-.5V89c-.1-.3-.1-.4-.1-.5v-.2l-.7.6zm-.6 20.7s0 .1.1.2c.1 0 .1 0 .1.1s-.1.1-.1-.1l-.1-.2zm.1.4s0 .1.1.2c.1 0 .1.1.1.2s-.1 0-.1-.2l-.1-.2zm.6 2.5zm.2-12c0 .2.1.2.1.2v-.2c.1-.1.1-.1 0-.2s-.2 0-.1.2zm0 13zm0-1l.4-.1c.1.2.1.3.1.4v.1s0 .1-.1.1-.1.1-.2.2l-.2-.7zm.4-25l.2.1.1.1c-.1-.2-.1-.3-.1-.5h-.4l.2.3zm-.1 27.1v-.2s0 .1.1.2c.1 0 .1.1 0 .2 0 0-.1 0-.1-.2zm.4 1s0 .1.1.2c.1 0 .1 0 .1.1s-.1.1-.1-.1l-.1-.2zm.4.9s0-.1 0 0zm.3.1h.2l.1.5h-.2l-.1-.5zm7.2 14.6c-.2 0-.4 0-.8-.1s-.8-.2-1.2-.4l-1.2-.6c-.4-.2-.7-.4-1-.7-.4-.4-.7-.8-1-1.4-.3-.6-.4-1.2-.3-1.7l.4-1c.4-.7 1-1.3 1.8-1.9.8-.6 1.5-.8 2.1-.7.6.1 1 .4 1.3.7.3.3.6.7 1.1 1.1.5.6.8 1.3.9 2.3.1 1 0 1.7-.3 2.3-.2.3-.4.7-.8 1.2s-.7.8-1 .9z"/></symbol><symbol id="medium" viewBox="0 0 19 19"><path d="M16.22 2.79A9.5 9.5 0 1 0 19 9.51a9.44 9.44 0 0 0-2.78-6.72zM9.5 18.01a8.5 8.5 0 1 1 8.5-8.5A8.51 8.51 0 0 1 9.5 18z"/><path d="M15.5 9h-12a.5.5 0 0 0 0 1h12a.5.5 0 0 0 0-1z"/></symbol><symbol id="normal" viewBox="0 0 19 19"><title>normal</title><path d="M16.22 2.79A9.5 9.5 0 1 0 19 9.51a9.44 9.44 0 0 0-2.78-6.72zM9.47 18a8.5 8.5 0 1 1 8.5-8.5 8.51 8.51 0 0 1-8.5 8.5z"/><path d="M14.15 7.66l-4.68 4.63-4.61-4.63a.5.5 0 0 0-.85.35.5.5 0 0 0 .15.35l5 5a.5.5 0 0 0 .71 0l5-5a.502.502 0 1 0-.72-.7z"/></symbol><symbol id="search" viewBox="0 0 19 20"><title>search</title><path class="cls-1" d="M114.26 307.26l-5.94-6.48a7.48 7.48 0 1 0-.74.68l5.94 6.48a.5.5 0 0 0 .74-.67zM96.39 295.6a6.5 6.5 0 1 1 6.5 6.5 6.51 6.51 0 0 1-6.5-6.5z" transform="translate(-95.39 -288.1)"/></symbol><symbol id="to-left" viewBox="0 0 10 19"><title>to-left</title><path class="cls-1" d="M82.2 181.34a.5.5 0 0 0 .35-.85l-8.65-8.65 8.65-8.65a.5.5 0 0 0-.71-.71l-9 9a.5.5 0 0 0 0 .71l9 9a.5.5 0 0 0 .35.15z" transform="translate(-72.7 -162.34)"/></symbol><symbol id="to-right" viewBox="0 0 10 19"><title>to-right</title><path class="cls-1" d="M130.54 181.34a.5.5 0 0 1-.35-.85l8.65-8.65-8.65-8.65a.5.5 0 1 1 .71-.71l9 9a.5.5 0 0 1 0 .71l-9 9a.5.5 0 0 1-.35.15z" transform="translate(-130.04 -162.34)"/></symbol></svg>