<svg version="1.1" id="company-logo" xmlns="http://www.w3.org/2000/svg" xmlns:xlink="http://www.w3.org/1999/xlink" x="0px" y="0px"
	 viewBox="0 0 600 180" style=".st0{fill:red;}" xml:space="preserve">
<g>
	<path class="st0" d="M195.8,108.2c-0.2,0.6-0.3,1.3-0.3,1.7c0,0.2,0,0.5,0.1,0.6c0.1,0.1,0.2,0.1,0.2,0.1c1.3,0,4.4-1.9,8.5-6.7
		c0.4-0.4,1-0.6,1.4-0.6c0.6,0,1.4,0,1.4,0.6c0,0.5-0.2,1-1,2.1c-4.8,5.5-9.2,9-12.2,9c-1.9,0-3.2-0.6-3.9-1.8
		c-0.4-0.6-0.6-1.2-0.7-2c-2,2.2-4.4,3.4-6.8,3.4c-3.9,0-7.3-3.4-7.3-7.8c0-2,0.5-3.8,1-5.6c3.8-11.8,16.9-16.1,20.6-10.6
		c3.8-7.4,8.1-17.8,6.8-27.8c-0.3-2.8,6.4-3.8,6.8-2.7C214.7,71.2,199.1,97.1,195.8,108.2z M194.1,96.4c-0.4-10.3-12.9-0.4-12.9,9.5
		c0,2.4,1,4.8,3.2,4.8c1.8,0,4.6-2.6,6.2-6.3l0.1-0.3c0.7-1.9,1.5-3.6,2.2-5C193.3,98,193.8,97.1,194.1,96.4z"/>
	<path class="st0" d="M232.4,103.9c0,0.6-0.4,1.4-1.2,2.5c-0.7,1-4.2,4.4-7.2,4.4c-1,0-2-0.2-2.9-0.5c-3.2,3.1-7,4.6-10.3,4.6
		c-5.1,0-8.1-4-8.1-9c0-8.1,7.4-17.4,15.5-17.4h0.6c1.4,0.1,4.5,0.5,4.6,2.6c0,1.6-1.4,2-2.7,2h-0.4c-0.3,0-0.7-0.1-1-0.1
		c-1.7,0-3.6,0.4-5.4,1.6c-2.8,2-4.8,5.7-5.1,8.6c-0.1,0.4-0.1,0.8-0.1,1.1c0,3.8,2.3,6.7,5,6.7c1.4,0,3.1-0.8,4.5-2.2
		c-2.2-2-3.1-4.2-3.1-6.2c0-4.6,4.6-8.6,7.9-8.6c1.9,0,3.4,1.3,3.4,4.5c0,2.9-0.6,5.4-2.6,8.3c2.7,0.8,4-0.6,6.1-3.1
		c0.3-0.5,0.8-0.7,1.4-0.7C232,103,232.4,103.2,232.4,103.9z M221.6,100.8c0-1.4-0.5-2-1-2c-0.7,0-1.5,1-1.5,2.5c0,1,0.4,2.4,1.5,4
		C221.2,103.3,221.6,101.9,221.6,100.8z"/>
	<path class="st0" d="M260.4,104c0,0.6-0.2,1-0.8,1.8l-0.1,0.1c0,0.1-0.1,0.1-0.2,0.2l-0.1,0.1l-0.2,0.2c-4.6,5.5-9.4,8.3-12.3,8.3
		c-3.1,0-4.6-1.8-4.6-4.7c0-0.5,0-1,0.1-1.5c-3.3,3.8-6.4,6.2-9.4,6.2c-0.5,0-0.9-0.1-1.4-0.2c-2-0.6-3-2.2-3-4.6
		c0-1,0.2-2.1,0.6-3.1c1.4-5,3.4-9.8,4.8-13.6c0.3-0.8,0.4-1.1,0.8-1.9c1-1.9,3.7-2.9,5.4-2.9h0.5c0.8,0.2,1,0.4,1,0.7
		c0,0.3-0.2,0.6-0.3,1c0,0.1-0.1,0.2-0.1,0.2l-2.5,6.5c-1.2,3.4-2.6,7.5-3.7,11c-0.2,0.6-0.3,1.2-0.3,1.7c0,0.8,0.2,1.2,0.7,1.2
		c1.8,0,6.4-5.6,9.3-10.5c1-2.6,1.9-5,2.7-7.1c0.3-0.8,0.3-1.1,0.7-1.9c1.1-1.9,3.8-2.9,5.4-2.9c0.2,0,0.3,0,0.5,0
		c0.8,0.2,1,0.4,1,0.8c0,0.3-0.2,0.7-0.3,1.2l-2.5,6.5c-1.3,3.4-2.7,7.5-3.8,11c-0.2,0.6-0.3,1.2-0.3,1.7c0,0.6,0.2,1.1,0.9,1.1
		c1.3,0,4.6-2.2,8.6-7c0.4-0.4,1-0.6,1.4-0.6C259.9,103.2,260.4,103.4,260.4,104z"/>
	<path class="st0" d="M287.9,105.7c-3.1,3.9-8.8,5.7-12.6,4.4c-3.1,3-7,4.8-10.6,4.8c-4.6,0-8.7-3.2-8.5-10.8
		C256.8,85.6,270,60,275.1,60c0.6,0,2,0.6,3.4,1.7c1,0.8,1.7,1.5,1,2.1c-7.4,6.9-15.4,25.4-17.5,35.4c-1,4.7-1,12.4,5.7,12.1
		c1.6-0.1,3.3-0.9,4.7-2.4c-10.6-3.7-11.3-17.6-1.4-20.1c0.6-0.2,1-0.2,1.6-0.2c4.1,0,8.3,3.7,8.3,8.9c0,2.7-0.9,6.6-2.8,9.4
		c2.7,1.1,6.1-0.8,7.9-3c0.3-0.4,0.9-0.7,1.4-0.7C288.8,103.1,288.5,104.9,287.9,105.7z M269.6,101.3c0.8,2,3,3.3,4.9,4.2
		C279.7,92.5,265.6,91.1,269.6,101.3z"/>
	<path class="st0" d="M309.4,63.6c0,0.2-0.1,0.3-0.2,0.5c-7.8,7.2-13.4,21.6-16.6,32.6c-0.7,2.5-1.4,5-2.1,7.5
		c-0.5,1.8-1.1,5.8,1.4,5.8c1.2,0,2.6-0.7,7-6c0.5-0.4,1-0.6,1.5-0.6s1,0.2,1,1c0,0.5-0.4,1.3-1.3,2.2c-4.5,5.3-6.9,8.3-10,8.3
		c-4.4,0-6-4-5.8-7.9c0.5-10.2,13.3-46.6,20.6-46.6c0.6,0,2,0.7,3.4,1.8C308.9,62.6,309.4,63.2,309.4,63.6z"/>
	<path class="st0" d="M324,104.2c0,0.6-0.2,1.1-1,2.2c-4.2,5.1-10.2,8.6-15.9,8.6c-5.6,0-9.7-3.8-9.7-9.3c0-8.4,6.8-17,15.8-17
		c2.6,0,4.8,1.1,5.8,2.9c0.6,0.8,0.7,1.8,0.7,2.8c0,1.3-0.3,2.6-0.8,3.8c-2.2,5.6-7,9.5-13.8,10.2c1,1.5,2.9,2.2,4.6,2.2
		c3.5,0,7.9-1.8,11.9-6.6c0.3-0.5,0.9-0.7,1.4-0.7C323.6,103.3,324,103.6,324,104.2z M303.4,104.1c0,0.5,0.1,1,0.2,1.4
		c0.2,0,0.2-0.1,0.4-0.1c3.1-0.7,6.6-1.4,8.3-4.8c0.8-1.5,1.1-3.4,1.1-4.9c0-2.2-0.7-3.9-2.3-3.9c-0.4,0-0.9,0.2-1.4,0.4
		C306.5,93.9,303.4,99.9,303.4,104.1z"/>
	<path class="st0" d="M355.8,104.7h0.8c0.3,0,0.6,0,0.8,0.2c0.3,0.3-0.6,2-2,3.5c-7.4,8.2-14.7,11.9-23.5,9.7
		c-6.8-1.8-10.9-9.8-10.9-16.8c-0.1-13.7,7.3-31.7,21-39.6c3.1-1.8,5.3-2.7,8.2-2.7c18.7,0,7.5,34.2-5.9,35.1
		c-6.6,0.5-9.8-7-8.4-6.1c3,2.2,8.2,0.8,10.8-1.8c10-9.8,10.8-24.5,3.8-24.4c-16.9,0.2-35.1,52.6-11.2,51.5c8.2-0.3,11.5-4,15.3-8.1
		C355.1,104.8,355.2,104.7,355.8,104.7z"/>
	<path class="st0" d="M385.9,104.1c0,0.5-0.3,1.4-1.3,2.3c-4.6,5.6-9.2,8.5-12.2,8.5c-2.3,0-3.9-1-4.4-3.3c-1.9,2.2-4.2,3.3-6.6,3.3
		c-3.8,0-7.2-3.4-7.2-7.8c0-2,0.5-3.8,1-5.6c2.7-8.4,10.1-12.9,15.4-12.9c2.2,0,4.2,0.8,5.1,2.5c1.2-1,2.8-1.9,3.8-1.9
		c1.2,0,1.8,0.6,1.8,1.4c0,1-1,2.9-1.9,5c-1.6,3.4-3.6,8-5,12.6c-0.2,0.6-0.4,1.3-0.4,1.7c0,0.7,0.3,1.1,0.9,1.1
		c1.3,0,4.4-2.2,8.5-7c0.6-0.6,1.2-0.6,1.6-0.6C385.6,103.3,385.9,103.5,385.9,104.1z M372.9,96c-0.2-2.5-1.4-3.4-2.8-3.4
		c-3.8,0-9.8,6.9-9.8,13.8c0,2.4,0.9,4.8,3.1,4.8c1.4,0,3.4-1.5,5-4.2c1.3-4.5,3.4-8.6,4.3-10.6L372.9,96z"/>
	<path class="st0" d="M391.7,93.3c2.7-2.8,5.4-4.2,8-4.2c4.5,0,6.6,4.2,6.6,7.8c0,3.4-1.4,7.6-3.2,10.3c1.8,0.2,5-1.6,5.9-3.4
		c0.4-0.4,0.8-0.6,1.3-0.6c2.5,0,1.4,1.6,0.5,2.8c-2,2.6-6.2,4.6-10.2,4.3c-3.1,4.2-7.4,4.3-9.7,4.3c-9.4,0-4.1-10.9,6.7-8.3
		c1.8-2.4,4.6-12.6-0.8-12.6c-2.6,0-5.8,3.4-8.2,7.6c-4.6,12.5-8.5,26-6,38.7c0,0.2,0.1,0.3-0.1,0.4c-0.2,0.4-1,0.6-1.9,0.6
		c-1.8,0-3,0-3.5-0.4c-4.1-2.6-0.8-17.1,0.5-21.5c2.8-10.2,8-26.7,9.7-29c1-1.4,6.9-3,6.2-1.4C392.9,90.1,392.3,91.7,391.7,93.3z
		 M395.2,110c-4.4-1-7.2,1.4-5,1.9C392.1,112.5,394.2,111.7,395.2,110z"/>
	<path class="st0" d="M417.5,93.3c2.7-2.8,5.4-4.2,8-4.2c4.5,0,6.6,4.2,6.6,7.8c0,3.4-1.4,7.6-3.2,10.3c1.8,0.2,5-1.6,5.9-3.4
		c0.4-0.4,0.8-0.6,1.3-0.6c2.5,0,1.4,1.6,0.5,2.8c-2,2.6-6.2,4.6-10.2,4.3c-3.1,4.2-7.4,4.3-9.7,4.3c-9.4,0-4.1-10.9,6.7-8.3
		c1.8-2.4,4.6-12.6-0.8-12.6c-2.6,0-5.8,3.4-8.2,7.6c-4.6,12.5-8.5,26-6,38.7c0,0.2,0.1,0.3-0.1,0.4c-0.2,0.4-1,0.6-1.9,0.6
		c-1.8,0-3,0-3.5-0.4c-4.1-2.6-0.8-17.1,0.5-21.5c2.8-10.2,8-26.7,9.7-29c1-1.4,6.9-3,6.2-1.4C418.7,90.1,418,91.7,417.5,93.3z
		 M421,110c-4.4-1-7.2,1.4-5,1.9C417.9,112.5,420,111.7,421,110z"/>
	<path class="st0" d="M465.2,104c0,0.6-0.2,1-0.8,1.8l-0.1,0.1c0,0.1-0.1,0.1-0.2,0.2l-0.1,0.1l-0.2,0.2c-4.6,5.5-9.4,8.3-12.3,8.3
		c-3.1,0-4.6-1.8-4.6-4.7c0-0.5,0-1,0.1-1.5c-3.3,3.8-6.4,6.2-9.4,6.2c-0.5,0-0.9-0.1-1.4-0.2c-2-0.6-3-2.2-3-4.6
		c0-1,0.2-2.1,0.6-3.1c1.4-5,3.4-9.8,4.8-13.6c0.3-0.8,0.4-1.1,0.8-1.9c1-1.9,3.7-2.9,5.4-2.9h0.5c0.8,0.2,1,0.4,1,0.7
		c0,0.3-0.2,0.6-0.3,1c0,0.1-0.1,0.2-0.1,0.2l-2.5,6.5c-1.2,3.4-2.6,7.5-3.7,11c-0.2,0.6-0.3,1.2-0.3,1.7c0,0.8,0.2,1.2,0.7,1.2
		c1.8,0,6.4-5.6,9.3-10.5c1-2.6,1.9-5,2.7-7.1c0.3-0.8,0.3-1.1,0.7-1.9c1.1-1.9,3.8-2.9,5.4-2.9c0.2,0,0.3,0,0.5,0
		c0.8,0.2,1,0.4,1,0.8c0,0.3-0.2,0.7-0.3,1.2l-2.5,6.5c-1.3,3.4-2.7,7.5-3.8,11c-0.2,0.6-0.3,1.2-0.3,1.7c0,0.6,0.2,1.1,0.9,1.1
		c1.3,0,4.6-2.2,8.6-7c0.4-0.4,1-0.6,1.4-0.6C464.7,103.2,465.2,103.4,465.2,104z"/>
	<path class="st0" d="M487.6,104.2c0,0.6-0.1,1.1-1,2.2c-4.2,5.1-10.2,8.6-15.9,8.6c-5.6,0-9.7-3.8-9.7-9.3c0-8.4,6.8-17,15.8-17
		c3.8,0,6.6,2.2,6.6,5.4c0,5.1-4.3,6.9-7,6.9c-1.3,0-2.2-0.3-2.2-1c0-0.2,0.1-0.4,0.2-0.6c1-1.1,2-4,2-5.8c0-1-0.3-1.8-1-1.8
		c-4.3,0-8.1,7.1-8.1,12.6c0,4,2.6,6.2,6.2,6.2c3.5,0,7.8-1.8,11.8-6.6c0.4-0.5,1-0.7,1.4-0.7C487.2,103.3,487.6,103.6,487.6,104.2z
		"/>
	<path class="st0" d="M510.2,104.2c0,0.6-0.1,1.1-1,2.2c-4.2,5.1-10.2,8.6-15.9,8.6c-5.6,0-9.7-3.8-9.7-9.3c0-8.4,6.8-17,15.8-17
		c3.8,0,6.6,2.2,6.6,5.4c0,5.1-4.3,6.9-7,6.9c-1.3,0-2.2-0.3-2.2-1c0-0.2,0.1-0.4,0.2-0.6c1-1.1,2-4,2-5.8c0-1-0.3-1.8-1-1.8
		c-4.3,0-8.1,7.1-8.1,12.6c0,4,2.6,6.2,6.2,6.2c3.5,0,7.8-1.8,11.8-6.6c0.4-0.5,1-0.7,1.4-0.7C509.8,103.3,510.2,103.6,510.2,104.2z
		"/>
	<path class="st0" d="M510.1,114.9c-3.2,0-4.6-1.8-4.6-4.7c0-1,0.2-2.1,0.6-3.1c1.4-5,3.4-9.8,4.8-13.6c0.3-0.8,0.3-1.1,0.8-1.9
		c1-1.9,3.7-2.9,5.4-2.9h0.5c0.8,0.2,1,0.3,1,0.7c0,0.3-0.2,0.8-0.4,1.3l-2.5,6.5c-1.3,3.4-2.6,7.5-3.7,11c-0.2,0.6-0.3,1.2-0.3,1.7
		c0,0.6,0.2,1.1,0.8,1.1c1.3,0,4.6-2.2,8.6-7c0.4-0.4,1-0.6,1.5-0.6c0.6,0,1,0.2,1,0.9c0,0.6-0.4,1.2-1.3,2.3
		C517.8,112.1,513.1,114.9,510.1,114.9z M513.4,82.6c0-2.5,2.6-4.9,5.2-4.9c1.9,0,3.4,1.1,3.4,3.2c0,2.2-2.4,4.8-5.2,4.8
		C514.9,85.7,513.4,84.4,513.4,82.6z"/>
	<path class="st0" d="M548.8,104.4c0,0.5-0.4,1.3-1.3,2.2c-4.6,5.5-8.2,8.3-11.1,8.3c-3,0-4.5-1.8-4.5-4.6c0-1,0.2-2.1,0.5-3.2
		c1.8-6.3,4.6-10.2,4.6-11.4c0-0.3-0.2-0.5-0.4-0.5c-1.4,0-6.2,4.1-9.2,8.1l-0.9,2.2c-0.2,0.4-0.4,0.8-0.5,1.2l-1.4,3.9
		c-1,2.6-3.7,4.3-5.4,4.3c-0.9,0-1.4-0.4-1.4-1.4c0-0.3,0.1-0.7,0.2-1.3c2.2-6.4,4.3-12.5,6.7-18.8c0.3-0.8,0.3-1.1,0.8-1.9
		c1-1.9,3.7-2.9,5.4-2.9h0.5c0.8,0.2,1,0.3,1,0.7c0,0.3-0.2,0.8-0.4,1.3l-2.1,5.4c4.1-3.9,9.1-6.6,12.1-6.6c1.4,0,2.5,0.7,2.5,2.2
		c0,0.9-0.4,2.3-1.2,3.9c-1.6,3.4-3.8,8.2-5,12.6c-0.2,0.7-0.7,2.4,0.6,2.4c1.4,0,3.3-1.8,7.4-6.6c0.4-0.4,1-0.6,1.4-0.6
		C548.4,103.4,548.8,103.6,548.8,104.4z"/>
	<path class="st0" d="M574.5,103.9c0,0.6-0.4,1.4-1.2,2.5c-0.7,1-4.2,4.4-7.2,4.4c-1,0-2-0.2-2.9-0.5c-3.2,3.1-7,4.6-10.3,4.6
		c-5.1,0-8.1-4-8.1-9c0-8.1,7.4-17.4,15.5-17.4h0.6c1.4,0.1,4.5,0.5,4.6,2.6c0,1.6-1.4,2-2.7,2h-0.4c-0.3,0-0.7-0.1-1-0.1
		c-1.7,0-3.6,0.4-5.4,1.6c-2.8,2-4.8,5.7-5.1,8.6c-0.1,0.4-0.1,0.8-0.1,1.1c0,3.8,2.3,6.7,5,6.7c1.4,0,3.1-0.8,4.5-2.2
		c-2.2-2-3.1-4.2-3.1-6.2c0-4.6,4.6-8.6,7.9-8.6c1.9,0,3.4,1.3,3.4,4.5c0,2.9-0.6,5.4-2.6,8.3c2.7,0.8,4-0.6,6.1-3.1
		c0.3-0.5,0.8-0.7,1.4-0.7C574,103,574.5,103.2,574.5,103.9z M563.6,100.8c0-1.4-0.5-2-1-2c-0.7,0-1.5,1-1.5,2.5c0,1,0.4,2.4,1.5,4
		C563.3,103.3,563.6,101.9,563.6,100.8z"/>
</g>
<g id="Cappuccino">
	<path class="st1" d="M57.9,70.6c0,0-4.8,60.9,52.8,64.5c0,0-9.1,8.5-30.7,10s-43.8-12.6-49.4-72.4L57.9,70.6z"/>
	<path class="st0" d="M151.4,71.3c-6.8-3.3-13.2-1.7-18,1.1c0-1.4-0.1-2.3-0.1-2.6c-0.1-2.2-2-4-4.2-4h-1.4c0.3-2.9,0.3-5.7-0.2-8.6
		c-3-17.8-20.4-29.5-21.1-30c-1.9-1.3-4.4-0.8-5.7,1c-5.4,7.5-15.4,8.4-25.9,9.4c-8.9,0.9-18.2,1.7-25.6,6.7
		c-8,5.3-12.8,11.8-14.1,19.3c-0.1,0.7-0.2,1.5-0.3,2.2H31c-2.2,0-4.1,1.8-4.2,4c-0.1,2.5-2.6,61.9,36.8,79.3
		c0.5,0.2,1.1,0.4,1.7,0.4h29.5c0.6,0,1.2-0.1,1.7-0.4c12.4-5.5,20.6-15.1,26.1-25.8c23.1-2,34-17.6,36.4-30.4
		C160.9,82.9,157.9,74.5,151.4,71.3z M43.3,65.1c0.9-5.1,4.4-9.8,10.5-13.8c5.7-3.8,13.5-4.5,21.7-5.3c10.1-1,21.3-2,29.1-9.6
		c4.5,3.7,12.8,11.9,14.6,22.2c0.4,2.4,0.4,4.8,0,7.2l-76,0C43.2,65.6,43.3,65.4,43.3,65.1z M93.9,141.1H66.2
		c-27.9-13.1-30.8-53.8-31-66.8l89.7,0C124.7,87.2,121.9,128,93.9,141.1z M150.8,91.4c-1.7,9-9,19.8-24.2,22.9
		c4-11,5.7-22.3,6.4-30.7c0-0.1,0.1-0.1,0.2-0.1c0.3-0.3,7-8.2,14.6-4.5C150.6,80.3,151.8,85.5,150.8,91.4z"/>
</g>
</svg>
